<svg id="Layer_1" data-name="Layer 1" xmlns="http://www.w3.org/2000/svg" xmlns:xlink="http://www.w3.org/1999/xlink" viewBox="0 0 51 19.32393">
  <defs>
    <style>
      .cls-1 {
        fill: #fff;
      }

      .cls-2 {
        mask: url(#mask);
      }

      .cls-3 {
        fill: #a82278;
      }

      .cls-4 {
        mask: url(#mask-2);
      }
    </style>
    <mask id="mask" x="0" y="0.03837" width="20.51045" height="19.18719" maskUnits="userSpaceOnUse">
      <g id="b">
        <path id="a" class="cls-1" d="M0,.03837H20.51045V19.22557H0Z"/>
      </g>
    </mask>
    <mask id="mask-2" x="0" y="0.11689" width="20.54662" height="19.18719" maskUnits="userSpaceOnUse">
      <g id="d">
        <path id="c" class="cls-1" d="M0,.11689H20.54662V19.30408H0Z"/>
      </g>
    </mask>
  </defs>
  <title>3eNews</title>
  <g>
    <g class="cls-2">
      <path class="cls-3" d="M20.51045,19.22557H0V15.04232H16.33117V11.743H0V7.52182H16.33117V4.22251H0V.03837H20.51045Z"/>
    </g>
    <path class="cls-3" d="M43.65329.05778V4.24147H27.54266V7.54079H43.65329v4.18369H27.54266v3.3002H43.65329v4.18148H23.21783V.05778Z"/>
    <path class="cls-3" d="M50.929,18.53968H46.94158l3.98741-2.605v-.68589H45.75506v.67883h4.00505l-4.00505,2.61211v.68589H50.929Zm0-7.78956h-.558v2.60461H48.53742V11.11225h-.558v2.24248H46.31656V10.78541h-.5615v3.25168H50.929v-3.287Zm0-2.33863-3.7704-1.10492-.39433-.082.39433-.0816,3.7704-1.0661V5.4549L45.75506,4.20045v.68589l3.53927.80277.69691.11027-.6259.14247-3.61028.99862v.57562L49.36534,8.5394l.61487.14556-.68236.09969L45.75506,9.602v.68236L50.929,9.03342V8.41149ZM51,1.80183A2.09158,2.09158,0,0,0,50.62155.49049,1.209,1.209,0,0,0,49.61411,0a1.302,1.302,0,0,0-.68589.176,1.53335,1.53335,0,0,0-.50989.53989,4.24359,4.24359,0,0,0-.39962,1.00964,2.62789,2.62789,0,0,1-.40006.913.66483.66483,0,0,1-.53459.26818.74064.74064,0,0,1-.61664-.28229,1.244,1.244,0,0,1-.22231-.78734,1.21761,1.21761,0,0,1,.26862-.84247.94152.94152,0,0,1,.73705-.29817V.01059A1.45109,1.45109,0,0,0,46.45859.24a1.56369,1.56369,0,0,0-.569.64663,2.12921,2.12921,0,0,0-.206.95054,1.94164,1.94164,0,0,0,.40006,1.27032,1.24947,1.24947,0,0,0,1.011.48872,1.18492,1.18492,0,0,0,.90775-.39962,3.20614,3.20614,0,0,0,.62016-1.27738A3.08812,3.08812,0,0,1,49.03276.9523a.70367.70367,0,0,1,.58841-.26642.71606.71606,0,0,1,.60076.288,1.34026,1.34026,0,0,1,.22054.82792,1.45969,1.45969,0,0,1-.27215.92584.89142.89142,0,0,1-.741.34625v.68589a1.36814,1.36814,0,0,0,.80675-.25054,1.67654,1.67654,0,0,0,.55974-.71235A2.43173,2.43173,0,0,0,51,1.80183Z"/>
    <g>
      <g class="cls-4">
        <path class="cls-3" d="M20.54662,19.30408H0V15.12083H16.35984V11.82152H0V7.60033H16.35984V4.301H0V.11689H20.54662Z"/>
      </g>
      <path class="cls-3" d="M43.72827.1363V4.32881H27.5581V7.63518H43.72827v4.19163H27.5581v3.30681H43.72827v4.19031H23.21783V.13674Z"/>
    </g>
  </g>
</svg>
