<?xml version="1.0" encoding="utf-8"?>
<!-- Generator: Adobe Illustrator 19.0.0, SVG Export Plug-In . SVG Version: 6.00 Build 0)  -->
<svg version="1.1" id="Layer_1" xmlns="http://www.w3.org/2000/svg" xmlns:xlink="http://www.w3.org/1999/xlink" x="0px" y="0px"
	 viewBox="0 0 85 85" style="enable-background:new 0 0 85 85;" xml:space="preserve">
<style type="text/css">
	.st0{opacity:0.55;}
	.st1{fill:#FFFFFF;}
</style>
<g class="st0">
	<path id="XMLID_3_" class="st1" d="M83.5,14.8c-0.9-0.1-1.8-0.1-2.6-0.2c-2.8-0.2-5.5-0.5-8.3-0.7c-0.8-0.1-1.1-0.3-1.1-1.1
		c-0.2-2.2-0.4-4.3-0.5-6.5c-0.1-1.6-0.3-3.3-0.5-5.1c-0.3,0.3-0.4,0.4-0.5,0.5c-4.4,4.4-8.8,8.8-13.2,13.2
		c-0.4,0.4-0.6,0.8-0.5,1.4c0.2,2.2,0.4,4.3,0.6,6.5c0.1,0.8-0.2,1.5-0.8,2c-3.2,3.1-6.3,6.2-9.4,9.4c-0.8,0.8-7.2,7.1-8,8
		c-1.6,1.9-0.7,4.7,1.7,5.3c1.4,0.3,2.4-0.3,3.4-1.2c3.8-3.8,13.2-13.2,16.9-17c0.5-0.6,1.1-0.8,1.9-0.7c2.1,0.2,4.2,0.4,6.3,0.6
		c0.7,0.1,1.3-0.1,1.8-0.7c4.3-4.4,8.7-8.7,13-13c0.1-0.1,0.2-0.3,0.4-0.5C83.9,14.9,83.7,14.9,83.5,14.8z"/>
	<path id="XMLID_2_" class="st1" d="M72.2,34.8c3.3,11.2,0.5,23.7-8.3,32.5c-12.8,12.8-33.6,12.8-46.4,0
		c-12.8-12.8-12.8-33.6,0-46.4c9-9,22-11.7,33.4-8l5.3-5.3C41.7,1.4,24.3,4.2,12.6,16c-15.5,15.5-15.5,40.7,0,56.2s40.7,15.5,56.2,0
		c11.5-11.5,14.5-28.5,8.8-42.8L72.2,34.8z"/>
	<path id="XMLID_1_" class="st1" d="M42.5,29.6l5.7-5.7c-7.6-2.8-16.6-1.2-22.7,4.9c-8.4,8.4-8.4,22,0,30.4s22,8.4,30.4,0
		c5.9-5.9,7.6-14.3,5.3-21.7l-5.9,5.9c0.2,3.9-1.2,7.9-4.2,10.9c-5.7,5.7-15,5.7-20.6,0c-5.7-5.7-5.7-15,0-20.6
		C33.7,30.5,38.2,29.1,42.5,29.6z"/>
</g>
</svg>
