<svg id="Layer_1" data-name="Layer 1" xmlns="http://www.w3.org/2000/svg" viewBox="0 0 112 32.7">
  <defs>
    <style>
      .cls-1 {
        fill: #fff;
      }
    </style>
  </defs>
  <title>GT-09</title>
  <g>
    <path class="cls-1" d="M40.51367,15.56479h.0712a4.95747,4.95747,0,0,0,4.12969-2.38525,4.85728,4.85728,0,0,0,.64081-2.42085v-.178H39.83725v1.74444h3.41767a2.91008,2.91008,0,0,1-2.70566,1.56643h-.1424a3.00687,3.00687,0,0,1-2.17165-1.03242,3.11079,3.11079,0,0,1-.81882-2.27845v-.1424A3.10007,3.10007,0,0,1,38.342,8.231a3.15439,3.15439,0,0,1,2.20725-.89h0a2.778,2.778,0,0,1,2.88366,1.958l.0356.1424h1.85124l-.0356-.21361a4.5537,4.5537,0,0,0-4.7349-3.63128h-.2492A4.65525,4.65525,0,0,0,36.95359,7.163,4.80184,4.80184,0,0,0,35.672,10.61628v.28481a4.834,4.834,0,0,0,1.45963,3.38207A5.23908,5.23908,0,0,0,40.51367,15.56479Z"/>
    <path class="cls-1" d="M50.16147,10.26028H48.84425v1.424l3.06167,3.70248h2.24285L51.1583,11.82671a2.97574,2.97574,0,0,0,2.24285-2.95486v-.2492a3.04137,3.04137,0,0,0-3.20407-2.91926H46.6014v9.719h1.70884V7.44782h2.02924a1.32457,1.32457,0,0,1,.99682.46281,1.551,1.551,0,0,1,.39161,1.03242A1.49414,1.49414,0,0,1,50.16147,10.26028Z"/>
    <rect class="cls-1" x="54.64717" y="5.66778" width="6.19453" height="1.70884"/>
    <rect class="cls-1" x="54.82518" y="9.69067" width="5.76732" height="1.67323"/>
    <rect class="cls-1" x="54.64717" y="13.67795" width="6.19453" height="1.70884"/>
    <rect class="cls-1" x="62.12333" y="9.69067" width="5.76732" height="1.67323"/>
    <rect class="cls-1" x="61.90973" y="13.67795" width="6.19453" height="1.70884"/>
    <rect class="cls-1" x="61.90973" y="5.66778" width="6.19453" height="1.70884"/>
    <polygon class="cls-1" points="69.315 5.668 69.315 15.387 71.059 15.387 71.059 9.263 75.26 15.387 76.613 15.387 76.613 5.668 74.904 5.668 74.904 11.827 70.668 5.668 69.315 5.668"/>
    <polygon class="cls-1" points="36.669 19.089 39.517 19.089 39.517 27.135 41.226 27.135 41.226 19.089 44.038 19.089 44.038 17.416 36.669 17.416 36.669 19.089"/>
    <path class="cls-1" d="M56.42721,17.30923l-3.88048,9.79021h0v.07121h1.81564l.89-2.34965h3.52448l.89,2.34965h1.85124l-3.88048-9.82581-1.21043-.0356Zm-.49841,5.83852L57.068,20.1573l1.13922,2.99046Z"/>
    <polygon class="cls-1" points="67.926 23.611 63.654 17.416 62.301 17.416 62.301 27.135 64.046 27.135 64.046 21.012 68.247 27.135 69.599 27.135 69.599 17.416 67.926 17.416 67.926 23.611"/>
    <path class="cls-1" d="M74.6548,21.43892c-1.10362-.1068-1.88684-.2492-1.958-.99682a.98022.98022,0,0,1,.178-.712,1.97029,1.97029,0,0,1,1.56643-.64081,1.63216,1.63216,0,0,1,1.70884,1.068l.0356.1424,1.67324-.0712-.0356-.21361A3.1477,3.1477,0,0,0,74.4768,17.416a3.73019,3.73019,0,0,0-2.99046,1.31723,2.61234,2.61234,0,0,0-.534,1.92244h0c.178,2.24284,2.314,2.45645,3.48887,2.56326.96122.1068,1.78.21361,1.88684.78322a.78386.78386,0,0,1,.0356.2848c0,.81881-.99682,1.35282-1.92244,1.35282-.85442,0-1.74444-.42721-1.81564-1.13923h0l-.0356-.3204-1.74444.0356.0356.46281c.178,1.74444,1.958,2.70566,3.56008,2.70566,1.78,0,3.66688-1.13923,3.66688-3.02606a3.92258,3.92258,0,0,0-.0712-.64081C77.68086,21.97294,76.11443,21.58133,74.6548,21.43892Z"/>
    <rect class="cls-1" x="79.2829" y="17.45163" width="1.70884" height="9.68341"/>
    <polygon class="cls-1" points="82.024 19.089 84.837 19.089 84.837 27.135 86.581 27.135 86.581 19.089 89.394 19.089 89.394 17.416 82.024 17.416 82.024 19.089"/>
    <rect class="cls-1" x="90.53274" y="17.45163" width="1.70884" height="9.68341"/>
    <path class="cls-1" d="M101.96058,18.69766a5.04335,5.04335,0,0,0-3.52448-1.424,4.82242,4.82242,0,0,0-3.48888,1.49523h0a5.116,5.116,0,0,0,0,7.12016l.0356.0356a4.89835,4.89835,0,0,0,3.48888,1.424h.0356a4.82241,4.82241,0,0,0,3.48888-1.49524,5.07223,5.07223,0,0,0,0-7.08455ZM98.47171,25.5686a3.1297,3.1297,0,0,1-2.27845-.99682,3.25739,3.25739,0,0,1-.96122-2.314,3.38568,3.38568,0,0,1,.96122-2.314,3.23724,3.23724,0,0,1,2.27845-.96122,3.32042,3.32042,0,0,1,2.314.96122h0a3.39541,3.39541,0,0,1,.96122,2.27845A3.30518,3.30518,0,0,1,98.47171,25.5686Z"/>
    <polygon class="cls-1" points="110.291 23.611 106.055 17.416 104.702 17.416 104.702 27.135 106.446 27.135 106.446 21.012 110.647 27.135 112 27.135 112 17.416 110.291 17.416 110.291 23.611"/>
    <path class="cls-1" d="M46.7438,19.16047H48.773a1.32457,1.32457,0,0,1,.99682.46281,1.551,1.551,0,0,1,.39161,1.03242,1.48484,1.48484,0,0,1-1.49523,1.38843H47.349v1.424l3.06167,3.70248h2.24285l-2.99046-3.56008a2.97573,2.97573,0,0,0,2.24285-2.95486v-.2492a3.04137,3.04137,0,0,0-3.20407-2.91926H45.10616v9.719H46.815V19.16047Z"/>
    <path class="cls-1" d="M14.59631,9.15666,10.85823,5.41858,0,16.27681,10.85823,27.135l1.53083-1.53083.1068.1068h0l.2492.24921.0356.0356.0712.07121c.0712.07121.1424.1068.178.178l.21361.21361c.07121.07121.178.1424.2492.21361s.178.1424.2492.21361.1424.1068.21361.178c.1068.07121.178.1424.28481.21361.0712.0356.1424.1068.21361.1424l.3204.21361c.0712.0356.1068.07121.178.1068.1424.07121.2492.1424.39161.21361a.2699.2699,0,0,0,.1424.07121l.42721.21361c.0356.0356.0712.0356.1068.07121.1424.07121.3204.1424.46281.21361.0356,0,.0712.0356.1068.0356.178.07121.3204.1424.49841.21361.0356,0,.0356,0,.0712.0356l.534.21361c.0356,0,.0356,0,.0712.0356.178.07121.356.1068.534.178H18.37a2.66677,2.66677,0,0,0,.56961.1424h.0712c.178.0356.356.07121.56961.1068h.1068l.534.1068a.214.214,0,0,1,.1424.0356c.178.0356.32041.0356.49841.07121a.78384.78384,0,0,1,.28481.0356c.1068,0,.2492.0356.39161.0356h.64081A13.46182,13.46182,0,0,0,34.88875,20.727l.1068-.356-1.03242-.356-.1068.356a12.3635,12.3635,0,0,1-20.328,4.7705l-.2492-.24921h0l-.1068-.1068L14.56071,23.397c.1068.1068.21361.24921.3204.356a10.36575,10.36575,0,0,0,7.36936,3.02606h.1068a10.51414,10.51414,0,0,0,10.431-10.57342A10.53719,10.53719,0,0,0,22.28607,5.739h-.0712a10.34189,10.34189,0,0,0-7.405,3.13287A.9832.9832,0,0,1,14.59631,9.15666ZM10.85823,25.5686l-9.3274-9.3274,9.3274-9.3274,9.3274,9.3274Zm10.57343-9.6122a.95541.95541,0,0,1,1.03242-.534.743.743,0,0,1,.56961.39161.77953.77953,0,0,1,.1068.67641.83282.83282,0,0,1-.67642.67641.93061.93061,0,0,1-1.10362-.60521l.356-.356Zm.81882,2.38525a2.10131,2.10131,0,0,0,.49841-.0712,2.05509,2.05509,0,0,0,1.246-.92562,1.9205,1.9205,0,0,0,.2136-1.53083,2.05511,2.05511,0,0,0-.92562-1.246,1.92051,1.92051,0,0,0-1.53083-.21361,1.96152,1.96152,0,0,0-1.13922.78322l-1.21043-1.21042a3.58521,3.58521,0,0,1,2.63446-1.31723h.2492a3.71458,3.71458,0,1,1-2.91926,6.01653L20.57724,17.416a1.945,1.945,0,0,0,.67642.64081A1.63475,1.63475,0,0,0,22.25048,18.34165Zm0,2.81246h.32041a4.82027,4.82027,0,0,0,3.59568-1.99364,4.81966,4.81966,0,0,0-7.54736-5.98093l-1.21042-1.21042a6.49546,6.49546,0,0,1,4.6993-2.17165h.1424A6.56367,6.56367,0,0,1,28.801,16.348a6.56368,6.56368,0,0,1-6.55054,6.55054h0a6.44076,6.44076,0,0,1-4.5213-1.81564,4.26726,4.26726,0,0,1-.39161-.42721l1.246-1.246A4.713,4.713,0,0,0,22.25048,21.15411ZM15.55753,9.72627a9.32493,9.32493,0,0,1,6.62174-2.77686,9.42714,9.42714,0,0,1,6.65734,2.70566,9.32494,9.32494,0,0,1,2.77686,6.62174,9.42716,9.42716,0,0,1-2.70566,6.65735A9.26367,9.26367,0,0,1,22.28608,25.711h-.1068a9.261,9.261,0,0,1-6.58614-2.70566,3.209,3.209,0,0,1-.3204-.356l1.246-1.246.42721.42721a7.52307,7.52307,0,0,0,5.26891,2.136h.178A7.67366,7.67366,0,1,0,16.59,11.1147l-1.246-1.246A.24038.24038,0,0,0,15.55753,9.72627Z"/>
    <g>
      <path class="cls-1" d="M33.71392,6.3442l.81882-.74762-.2492-.28481A16.32614,16.32614,0,0,0,19.82963.18527l-.356.0712.178,1.10363.356-.0712a15.15884,15.15884,0,0,1,13.45709,4.7705Z"/>
      <path class="cls-1" d="M10.85823,13.00154,7.61856,16.24121l3.23967,3.23967,3.23967-3.23967ZM9.14939,16.27681,10.85823,14.568l1.70884,1.70884-1.70884,1.70884Z"/>
      <path class="cls-1" d="M34.60394,25.2838a15.304,15.304,0,0,1-17.55117,5.41132l-.356-.1424-.39161,1.03242.356.1424a16.42208,16.42208,0,0,0,5.55372.96122h0a16.37674,16.37674,0,0,0,13.24349-6.76414l.2136-.2848-.89-.64081Z"/>
      <path class="cls-1" d="M26.62937,3.67414l-.356-.1068-.356,1.03242.356.1068a12.28231,12.28231,0,0,1,5.83853,4.27209l.2136.28481.89-.67641-.2136-.28481A13.31117,13.31117,0,0,0,26.62937,3.67414Z"/>
      <path class="cls-1" d="M10.85823,9.19226l-7.049,7.049,7.049,7.04895,7.049-7.049ZM5.34011,16.27681l5.51812-5.51812,5.51812,5.51812-5.51812,5.51812Z"/>
    </g>
  </g>
</svg>
