<?xml version="1.0" encoding="utf-8"?>
<!-- Generator: Adobe Illustrator 21.1.0, SVG Export Plug-In . SVG Version: 6.00 Build 0)  -->
<svg version="1.1" id="Layer_1" xmlns="http://www.w3.org/2000/svg" xmlns:xlink="http://www.w3.org/1999/xlink" x="0px" y="0px"
	 viewBox="0 0 125.9 128.2" style="enable-background:new 0 0 125.9 128.2;" xml:space="preserve">
<style type="text/css">
	.st0{opacity:0.73;}
	.st1{fill:#AAAAA9;}
	.st2{fill:#FFFFFF;}
</style>
<g>
	<g>
		<path class="st2" d="M62.9,39.9c12,0,21.9,9.2,23,21l9.9,5.6c0.1-1.1,0.2-2.3,0.2-3.5c0-18.3-14.8-33.1-33.1-33.1
			S29.9,44.7,29.9,62.9c0,14.5,9.4,26.9,22.4,31.3l-0.6-11.1l0-0.1c-7.1-3.9-11.9-11.5-11.9-20.2C39.9,50.2,50.2,39.9,62.9,39.9z"/>
		<path class="st2" d="M62.9,0C28.2,0,0,28.2,0,62.9c0,31.7,23.5,57.9,54,62.3l-0.7-13.3C30.3,107.4,13,87.2,13,62.9
			C13,35.4,35.4,13,62.9,13s49.9,22.4,49.9,49.9c0,4.2-0.5,8.3-1.5,12.2l11.6,6.5l0.1,0c1.8-5.9,2.8-12.2,2.8-18.7
			C125.9,28.2,97.7,0,62.9,0z"/>
		<path class="st2" d="M113.3,91.6c-0.7-0.6-1.5-1-2.2-1.5C97.1,81,83.1,71.9,69.2,62.8c-1.1-0.7-2.2-1.5-3.4-2.1
			c-2.5-1.3-4.9,0.2-4.9,3c0,1.1,0.1,2.2,0.2,3.3c0.5,5.2,1.1,10.4,1.6,15.5c0.3,3.2,0.6,6.5,0.9,9.7c0.5,5.2,1,10.4,1.6,15.5
			c0.4,3.8,0.7,7.6,1.2,11.4c0.3,2.1,0.9,4.2,3.2,5.2c2.5,1.1,4.5,0.1,6.3-1.4c1.3-1,2.3-2.4,3.4-3.6c1.5-1.7,3-3.4,4.6-5.3
			c2.3,3.7,3.7,5.9,5.8,9.4c0.5,0.8,1,1.6,1.5,2.4c1.7,2.5,4.1,2.9,6.7,1.4c0.8-0.5,1.5-1,2.3-1.4c0.5-0.3,4.3-2.5,4.8-2.9l0,0
			c0.1-0.1,0.2-0.1,0.3-0.2c2.6-1.6,3-4,1.5-6.7c-0.4-0.8-0.9-1.5-1.4-2.3c-1.8-3.1-3.7-6.1-5.5-9.2c0.3-0.2,0.5-0.4,0.7-0.4
			c2.6-0.6,5.3-1.1,7.9-1.8c1.4-0.4,2.8-0.8,4.1-1.5C116.5,98.6,116.8,94.4,113.3,91.6z"/>
	</g>
</g>
</svg>
