<?xml version="1.0" encoding="utf-8"?>
<!-- Generator: Adobe Illustrator 21.1.0, SVG Export Plug-In . SVG Version: 6.00 Build 0)  -->
<svg version="1.1" id="Layer_1" xmlns="http://www.w3.org/2000/svg" xmlns:xlink="http://www.w3.org/1999/xlink" x="0px" y="0px"
	 viewBox="0 0 125.9 128.2" style="enable-background:new 0 0 125.9 128.2;" xml:space="preserve">
<style type="text/css">
	.st0{opacity:0.73;}
	.st1{fill:#AAAAA9;}
	.st2{fill:#FFFFFF;}
</style>
<rect y="-0.5" class="st0" width="125.9" height="128.7"/>
<g>
	<g>
		<path class="st2" d="M62.9,44.5c9.7,0,17.8,7.5,18.6,17l8,4.5c0.1-0.9,0.1-1.9,0.1-2.8c0-14.8-12-26.8-26.8-26.8
			s-26.8,12-26.8,26.8c0,11.8,7.6,21.8,18.2,25.4l-0.5-9l0-0.1c-5.7-3.2-9.6-9.3-9.6-16.4C44.2,52.9,52.6,44.5,62.9,44.5z"/>
		<path class="st2" d="M62.9,12.2c-28.2,0-51,22.8-51,51c0,25.7,19,47,43.7,50.5l-0.6-10.8c-18.6-3.7-32.6-20-32.6-39.7
			c0-22.4,18.1-40.5,40.5-40.5s40.5,18.1,40.5,40.5c0,3.4-0.4,6.7-1.2,9.9l9.4,5.3l0.1,0c1.5-4.8,2.3-9.9,2.3-15.2
			C114,35,91.1,12.2,62.9,12.2z"/>
		<path class="st2" d="M103.7,86.4c-0.6-0.5-1.2-0.8-1.8-1.2C90.6,77.8,79.3,70.4,68,63.1c-0.9-0.6-1.8-1.2-2.7-1.7
			c-2-1-4,0.2-4,2.4c0,0.9,0.1,1.8,0.1,2.7c0.4,4.2,0.9,8.4,1.3,12.6c0.3,2.6,0.5,5.3,0.8,7.9c0.4,4.2,0.8,8.4,1.3,12.6
			c0.3,3.1,0.6,6.2,1,9.2c0.3,1.7,0.7,3.4,2.6,4.3c2,0.9,3.7,0.1,5.1-1.1c1-0.8,1.9-1.9,2.8-2.9c1.2-1.4,2.4-2.8,3.7-4.3
			c1.8,3,3,4.8,4.7,7.6c0.4,0.6,0.8,1.3,1.2,1.9c1.4,2,3.3,2.4,5.4,1.1c0.6-0.4,1.2-0.8,1.9-1.2c0.4-0.3,3.5-2.1,3.9-2.3l0,0
			c0.1,0,0.2-0.1,0.2-0.1c2.1-1.3,2.4-3.2,1.2-5.4c-0.4-0.6-0.8-1.3-1.1-1.9c-1.5-2.5-3-5-4.5-7.5c0.3-0.2,0.4-0.3,0.6-0.3
			c2.1-0.5,4.3-0.9,6.4-1.5c1.1-0.3,2.3-0.6,3.3-1.2C106.4,92.1,106.6,88.7,103.7,86.4z"/>
	</g>
</g>
</svg>
