<svg id="Layer_1" data-name="Layer 1" xmlns="http://www.w3.org/2000/svg" viewBox="0 0 94.91359 22.99598">
  <defs>
    <style>
      .cls-1, .cls-2 {
        fill: #a82278;
      }

      .cls-2 {
        fill-rule: evenodd;
      }
    </style>
  </defs>
  <title>izgubenabg</title>
  <g>
    <g>
      <path class="cls-1" d="M13.78017,17.05788A9.16172,9.16172,0,0,1,2.79387,2.557a9.19992,9.19992,0,0,1,11.70729-.84657,9.24359,9.24359,0,0,1,2.53205,12.11119.694.694,0,0,1,.15929.09544q2.54672,2.54168,5.08887,5.08793a2.3135,2.3135,0,1,1-3.25316,3.289q-1.64985-1.64185-3.29223-3.29121-.918-.918-1.83661-1.83543C13.86064,17.12869,13.81875,17.09318,13.78017,17.05788ZM1.97873,9.13847A7.17279,7.17279,0,1,0,9.16058,1.97381,7.168,7.168,0,0,0,1.97873,9.13847Z"/>
      <path class="cls-1" d="M14.891,9.13876H13.6791a4.55405,4.55405,0,0,0-4.5063-4.51833V3.42425A5.6987,5.6987,0,0,1,14.891,9.13876Z"/>
    </g>
    <g id="ИЗГУБЕНАТА_БЪЛГАРИЯ" data-name="ИЗГУБЕНАТА БЪЛГАРИЯ">
      <path class="cls-2" d="M28.6072,6.91739l.03455-.88135V1.62936h-2.031V9.87448h1.97339c.79626-1.751,1.86951-3.78046,2.8042-5.43878l-.02295.82336V9.87448h2.00781V1.62936H31.48062C30.55752,3.18332,29.44961,5.16629,28.6072,6.91739Zm11.61.52185A2.09727,2.09727,0,0,0,38.71707,5.375a1.87758,1.87758,0,0,0,1.16553-1.751c0-1.34521-1.131-2.14539-2.90808-2.14539a5.0867,5.0867,0,0,0-2.53882.61462l.55383,1.3916a3.74166,3.74166,0,0,1,1.81189-.44067c.70386,0,1.09619.28992,1.09619.82336,0,.69574-.72693.98566-1.68481.98566h-.69238v1.438h.78467c.88867,0,1.708.15076,1.77734.90454.13843.76538-.531,1.1944-1.44263,1.1944a5.23311,5.23311,0,0,1-1.92725-.45221c-.196.487-.38086.98566-.56543,1.47272a5.92165,5.92165,0,0,0,2.70044.61462C38.89016,10.02523,40.21719,9.16708,40.21719,7.43924Zm3.0127-4.36029h2.83887V1.5018H41.19863V9.74691h2.03125Zm5.80505,4.69659a1.3909,1.3909,0,0,1-.69812.63641,2.27231,2.27231,0,0,1-1.09058.07092c-.01147.44067-.02307.90454-.02307,1.34521a5.09435,5.09435,0,0,0,1.2926.15076A2.91955,2.91955,0,0,0,51.2853,7.85672c.68091-1.86707,1.37329-3.78052,2.16956-6.22736h-2.031c-.32312,1.09009-.63477,2.26135-.981,3.38617l-.34619,1.24084c-.09241-.3479-.24231-.719-.34631-1.06689-.49609-1.24078-.96924-2.47-1.3501-3.56012H46.27688c.66931,1.65833,1.48865,3.60651,2.38879,5.462C48.79263,7.32327,48.90811,7.5552,49.03494,7.77554Zm7.19031-3.56018c-.18469,0-.32324.0116-.50781.02319v-1.206h3.6698V1.30465h-5.574V9.56137a9.84382,9.84382,0,0,0,2.48108.3479c2.38892,0,3.77368-.91614,3.77368-2.84113C60.068,5.01553,58.63711,4.21536,56.22525,4.21536Zm.13843,3.95441a3.33785,3.33785,0,0,1-.64624-.05792V5.94326c.1499-.0116.3-.02319.46155-.02319,1.16565,0,1.90417.30151,1.90417,1.15967S57.27529,8.16977,56.36367,8.16977Zm9.74072.12756H63.09231V6.39553h2.52722v-1.554H63.09231V3.19491h2.86194V1.62936H61.04971V9.87448H66.1044Zm3.69336-1.8786h2.34253V9.87448h2.03125V1.62936H72.14028V4.84158H69.79775V1.62936H67.755V9.87448h2.04272ZM82.81008,9.74691C81.737,6.58108,80.8251,4.01828,79.84426,1.5018h-1.881c-.99243,2.50488-1.8927,5.09088-2.96582,8.24512h1.9502l.554-1.70471h2.6427l.5885,1.70471ZM77.90554,6.60427c.31165-.98572.61157-1.80908.85388-2.66724.02319-.11591.05786-.22028.08081-.30145.03467.10437.11548.42908.231.81171.21924.6958.43848,1.41479.66919,2.157Zm6.04028,3.2702H85.977v-6.668h1.89258V1.62936H82.05325V3.20651h1.89258Zm5.6593-1.83228h2.6427l.5885,1.70471H94.9136c-1.07324-3.16583-1.985-5.72864-2.96594-8.24512H90.0668c-.99255,2.50488-1.8927,5.09088-2.96594,8.24512h1.95032ZM90.86294,3.937c.02307-.11591.05762-.22028.08081-.30145.03455.10437.11548.42908.23071.81171.21936.6958.4386,1.41479.66943,2.157h-1.835C90.32046,5.61856,90.62063,4.79519,90.86294,3.937Zm-50.4126,11.876c-.18469,0-.32324.0116-.50781.02319V14.63021h3.6698V12.90231h-5.574V21.159a9.84469,9.84469,0,0,0,2.4812.3479c2.38879,0,3.77356-.91614,3.77356-2.84113C44.29312,16.61319,42.86221,15.81308,40.45034,15.81308Zm.13843,3.95441a3.33252,3.33252,0,0,1-.64624-.058V17.54092c.1499-.0116.3-.02319.46167-.02319,1.16553,0,1.90405.30151,1.90405,1.15967S41.50039,19.76748,40.58877,19.76748Zm7.87109-3.71088c-.19617,0-.38074.0116-.554.02319V13.227H44.23623v1.496h1.69629v6.44763a7.93615,7.93615,0,0,0,2.57349.39429c2.29663,0,3.58911-.89294,3.58911-2.71356C52.09512,16.9031,50.7333,16.0798,48.45986,16.05661Zm.05774,4.00079a2.87777,2.87777,0,0,1-.61169-.058v-2.4585a5.30051,5.30051,0,0,1,.63477-.02319c1.004,0,1.51172.44067,1.51172,1.29883C50.05239,19.76748,49.40615,20.0574,48.5176,20.0574Zm6.548-6.95795c-1.03857,2.644-2.04248,5.52-2.94263,8.24512h1.96179c.49622-1.65826,1.03857-3.39777,1.58105-5.04443a8.9459,8.9459,0,0,1,.28845-.97412c.06934.15076.15.52185.277.95093.50769,1.61188,1.0155,3.32819,1.52332,5.06763H59.901c-.91162-2.73676-1.91565-5.60107-2.94287-8.24512Zm10.57556,0h-4.87v8.24512h2.031v-6.668h2.839Zm2.03455,0c-.99243,2.50488-1.89258,5.09088-2.96582,8.24512h1.95032l.55383-1.70465h2.64282l.5885,1.70465h2.07727c-1.07324-3.16583-1.98486-5.72864-2.96582-8.24512Zm-.05762,5.10248c.31152-.98572.61157-1.809.85388-2.66718.02307-.116.05774-.22034.08093-.30151.03442.10437.11523.42908.23071.81177.21924.69574.43848,1.41473.66931,2.15692Zm8.14819-5.07928a9.05615,9.05615,0,0,0-2.52734.3595v7.99h2.00793V18.59622c.127,0,.24231.0116.35779.0116,2.44653.02319,3.66968-.96252,3.66968-2.75995C79.27432,14.14315,78.16665,13.12265,75.76626,13.12265Zm-.1731,4.00079c-.11548,0-.21936-.0116-.34631-.0116v-2.47a3.45584,3.45584,0,0,1,.56555-.04639c.93469,0,1.4541.3363,1.4541,1.24084C77.2665,16.81033,76.7355,17.14663,75.59317,17.12344Zm6.65918,1.3916.03467-.88135V13.227H80.256v8.24512H82.2294c.79614-1.751,1.86938-3.78046,2.8042-5.43872l-.02307.8233v4.61542h2.00793V13.227H85.12588C84.20278,14.781,83.09487,16.76394,82.25234,18.515Zm6.20935-3.45575a2.96642,2.96642,0,0,0-.06921.84656,2.02509,2.02509,0,0,0,1.1886,1.751,1.8087,1.8087,0,0,0,.39246.24353c-.66943.96252-1.48877,2.26135-2.21582,3.57172h2.18115c.45-.88135.95776-1.77423,1.41943-2.51642.1731-.23193.35767-.44067.53076-.67261h.49634v3.189h2.01953V13.49374a9.00713,9.00713,0,0,0-2.49268-.37109C89.97354,13.12265,88.78482,13.83,88.4617,15.05929Zm3.92371-.40588V16.9031c-.127.0116-.28857.02319-.45007.02319-.99243,0-1.53491-.24353-1.53491-1.11322-.0116-.78857.47327-1.13647,1.21179-1.19446a2.76646,2.76646,0,0,1,.43848,0A1.48468,1.48468,0,0,1,92.3854,14.65341Z"/>
    </g>
  </g>
</svg>
