<svg id="Layer_1" data-name="Layer 1" xmlns="http://www.w3.org/2000/svg" viewBox="0 0 94.9 23">
  <defs>
    <style>
      .cls-1, .cls-2 {
        fill: #fff;
      }

      .cls-2 {
        fill-rule: evenodd;
      }
    </style>
  </defs>
  <title>izgubenabg-09</title>
  <g>
    <g>
      <path class="cls-1" d="M13.77338,17.05988A9.16172,9.16172,0,0,1,2.78707,2.559a9.19992,9.19992,0,0,1,11.70729-.84657,9.24359,9.24359,0,0,1,2.53205,12.11119.694.694,0,0,1,.15929.09544q2.54672,2.54168,5.08887,5.08793a2.3135,2.3135,0,1,1-3.25316,3.289q-1.64985-1.64185-3.29223-3.29121-.918-.918-1.83661-1.83543C13.85385,17.13069,13.812,17.09518,13.77338,17.05988ZM1.97194,9.14047A7.17279,7.17279,0,1,0,9.15378,1.97581,7.168,7.168,0,0,0,1.97194,9.14047Z"/>
      <path class="cls-1" d="M14.88424,9.14077H13.67231A4.55405,4.55405,0,0,0,9.166,4.62243V3.42626A5.6987,5.6987,0,0,1,14.88424,9.14077Z"/>
    </g>
    <g id="ИЗГУБЕНАТА_БЪЛГАРИЯ" data-name="ИЗГУБЕНАТА БЪЛГАРИЯ">
      <path class="cls-2" d="M28.6004,6.91937l.03455-.88129V1.63141h-2.031V9.87653h1.97333c.79633-1.7511,1.86957-3.78046,2.80432-5.43878l-.02307.82336V9.87653h2.00793V1.63141H31.47388C30.55066,3.1853,29.44281,5.16833,28.6004,6.91937Zm11.61.52185a2.09724,2.09724,0,0,0-1.50018-2.06415A1.8776,1.8776,0,0,0,39.87579,3.626c0-1.34515-1.13092-2.14532-2.90814-2.14532a5.08722,5.08722,0,0,0-2.53882.61462l.554,1.39154a3.74142,3.74142,0,0,1,1.81183-.44067c.70392,0,1.09625.28992,1.09625.82336,0,.6958-.727.98572-1.68481.98572h-.69244v1.438h.78473c.88855,0,1.70795.15076,1.77722.90448.13849.76538-.53088,1.19446-1.44257,1.19446a5.23139,5.23139,0,0,1-1.92719-.45227c-.19617.48706-.38086.98572-.56549,1.47278a5.92157,5.92157,0,0,0,2.70038.61462C38.88336,10.02728,40.21045,9.16913,40.21045,7.44122ZM43.223,3.08093H46.062V1.50385h-4.87V9.749H43.223Zm5.80511,4.69659a1.39021,1.39021,0,0,1-.69806.63641,2.27192,2.27192,0,0,1-1.09064.071c-.01154.44067-.02307.90454-.02307,1.34521a5.09389,5.09389,0,0,0,1.29254.15076A2.91967,2.91967,0,0,0,51.27856,7.8587c.68085-1.867,1.37323-3.78046,2.16949-6.22729h-2.031c-.32318,1.09-.63477,2.26129-.981,3.38617L50.0899,6.25842c-.09235-.3479-.24237-.719-.34625-1.06689-.49622-1.24084-.9693-2.47009-1.35016-3.56012H46.27008c.66931,1.65826,1.48865,3.60651,2.38879,5.46191C48.78583,7.32526,48.90125,7.55719,49.02814,7.77753Zm7.19025-3.56012c-.18463,0-.32312.0116-.50781.02319V3.03455h3.66986V1.3067h-5.574V9.56342a9.84469,9.84469,0,0,0,2.4812.3479c2.38879,0,3.77362-.91614,3.77362-2.84119C60.06128,5.01758,58.63025,4.21741,56.21838,4.21741Zm.13849,3.95441a3.33367,3.33367,0,0,1-.6463-.058V5.94531c.15-.0116.30011-.02319.46161-.02319,1.16565,0,1.90417.30151,1.90417,1.15961S57.26855,8.17181,56.35687,8.17181Zm9.74066.12756h-3.012V6.39758h2.52728v-1.554H63.08551V3.1969h2.86194V1.63141H61.04291V9.87653h5.05463ZM69.791,6.42072h2.34259V9.87653h2.03113V1.63141H72.13354V4.84363H69.791V1.63141H67.74829V9.87653H69.791ZM82.80328,9.749c-1.07318-3.16589-1.98486-5.7287-2.96582-8.24512h-1.881C76.964,4.00867,76.06384,6.59473,74.9906,9.749h1.95026l.554-1.70471h2.6427L80.72607,9.749Zm-4.90454-3.1427c.31158-.98566.61157-1.809.85394-2.66718.02307-.116.05774-.22034.08081-.30151.03467.10437.11542.42908.23083.81177.21924.6958.43848,1.41479.66931,2.15692ZM83.939,9.87653h2.03113V3.2085h1.89252V1.63141H82.04645V3.2085H83.939Zm5.6593-1.83228H92.241L92.82947,9.749H94.9068c-1.07324-3.16589-1.98492-5.7287-2.96588-8.24512h-1.881C89.06744,4.00867,88.1673,6.59473,87.09406,9.749h1.95026ZM90.8562,3.93909c.023-.116.05762-.22034.08075-.30151.03461.10437.11542.42908.23077.81177.2193.6958.43854,1.41479.66931,2.15692H90.0022C90.31372,5.62061,90.61383,4.79724,90.8562,3.93909Zm-50.41272,11.876c-.18463,0-.32312.0116-.50775.02319v-1.206h3.6698V12.90436h-5.574v8.25671a9.84506,9.84506,0,0,0,2.4812.3479c2.38879,0,3.77362-.91614,3.77362-2.84113C44.28638,16.61523,42.85535,15.81506,40.44348,15.81506Zm.13849,3.95441a3.33252,3.33252,0,0,1-.64624-.058V17.543c.15-.0116.3-.02319.46161-.02319,1.16559,0,1.90411.30151,1.90411,1.15967S41.49365,19.76947,40.582,19.76947Zm7.87109-3.71088c-.19617,0-.38074.0116-.55389.02319V13.22906h-3.6698v1.496h1.69641v6.44763a7.93615,7.93615,0,0,0,2.57349.39429c2.29651,0,3.589-.89294,3.589-2.71362C52.08826,16.90515,50.72656,16.08179,48.45306,16.05859Zm.05774,4.00079a2.87672,2.87672,0,0,1-.61163-.058V17.543a5.3,5.3,0,0,1,.63477-.02319c1.004,0,1.51166.44067,1.51166,1.29883C50.04559,19.76947,49.39941,20.05939,48.5108,20.05939Zm6.548-6.95789c-1.03857,2.644-2.04254,5.52-2.94275,8.24512H54.078c.49615-1.65833,1.03851-3.39777,1.581-5.04449a8.9459,8.9459,0,0,1,.28845-.97412c.06927.15076.15.52185.277.95093.50781,1.61194,1.01556,3.32819,1.52332,5.06769h2.14648c-.91168-2.73676-1.91565-5.60114-2.94275-8.24512Zm10.5755,0h-4.87v8.24512h2.03107v-6.668h2.83893Zm2.03455,0c-.99243,2.50482-1.89252,5.09088-2.96582,8.24512h1.95032l.55389-1.70471H69.85l.58856,1.70471h2.07727c-1.07318-3.16583-1.98486-5.7287-2.96582-8.24512ZM67.61127,18.204c.31152-.98572.61157-1.80908.85388-2.66724.02313-.116.05774-.22034.08087-.30151.03455.10437.11536.42908.23077.81177.21924.6958.43854,1.41479.66931,2.157Zm8.14813-5.07928a9.056,9.056,0,0,0-2.52728.3595v7.99h2.00793V18.59827c.127,0,.24237.0116.35779.0116,2.44653.02319,3.66974-.96252,3.66974-2.76C79.26758,14.1452,78.15979,13.12469,75.7594,13.12469Zm-.1731,4.00079c-.11542,0-.2193-.0116-.34625-.0116V14.6438a3.46349,3.46349,0,0,1,.56549-.04633c.93475,0,1.4541.33624,1.4541,1.24078C77.25964,16.81238,76.72876,17.14868,75.5863,17.12549Zm6.65924,1.3916.03467-.88135V13.22906H80.24915v8.24512h1.97339c.79626-1.7511,1.86951-3.78046,2.80432-5.43878l-.02313.82336v4.61542h2.00806V13.22906H85.11914C84.19592,14.783,83.088,16.766,82.24554,18.51709Zm6.20935-3.45581a2.96642,2.96642,0,0,0-.06921.84656,2.02511,2.02511,0,0,0,1.1886,1.7511,1.80837,1.80837,0,0,0,.3924.24353c-.66931.96252-1.48871,2.26129-2.21576,3.57172H89.932c.45007-.88135.95789-1.77429,1.41949-2.51648.17316-.23187.35773-.44061.53082-.67255h.49628v3.189h2.01953V13.49579a9.00757,9.00757,0,0,0-2.49274-.37109C89.96667,13.12469,88.778,13.83209,88.4549,15.06128Zm3.92371-.40582v2.24969c-.127.0116-.28851.02319-.45007.02319-.99243,0-1.53491-.24353-1.53491-1.11328-.01154-.78857.47321-1.13641,1.21179-1.1944a2.76646,2.76646,0,0,1,.43848,0A1.48468,1.48468,0,0,1,92.3786,14.65546Z"/>
    </g>
  </g>
</svg>
