<?xml version="1.0" encoding="utf-8"?>
<!-- Generator: Adobe Illustrator 19.0.0, SVG Export Plug-In . SVG Version: 6.00 Build 0)  -->
<svg version="1.1" id="Layer_3" xmlns="http://www.w3.org/2000/svg" xmlns:xlink="http://www.w3.org/1999/xlink" x="0px" y="0px"
	 viewBox="202 -80.1 1000 1000" style="enable-background:new 202 -80.1 1000 1000;" xml:space="preserve">
<style type="text/css">
	.st0{fill:#FFFFFF;}
	.st1{fill:#5D5D5D;}
</style>
<path id="XMLID_2_" class="st0" d="M502.6,400.7c0,0,49.5,18.5,155.4,92.7c0,0,310.9-381.3,533.4-432.1c0,0-234,139.6-484.5,591.5
	c0,0-148.7-115.1-258.5-160.8L502.6,400.7z"/>
<path id="XMLID_1_" class="st1" d="M948,136.9"/>
<g>
	<path class="st0" d="M678.7,835.8c0,0-385.4-81.9-385.4-680.6c0,0,232.2-42,385.4-138.3c73.2,46,164.4,79.6,239.7,102.2l86.5-59.9
		c-76.2-19.3-196-55.7-283.2-110.6l-43-27l-43,27C498.6,34.8,281,75.4,278.9,75.7l-66.4,12v67.4c0,186.1,37.6,445.1,216.6,622.2
		c112,110.8,227.9,136.4,232.8,137.5l16.8,3.6l16.8-3.6c4.9-1,120.8-26.6,232.7-137.4c165.4-163.6,210-397.1,215.9-578.5l-85.9,79.3
		C1009.8,765.4,678.7,835.8,678.7,835.8z"/>
</g>
</svg>
