<?xml version="1.0" encoding="utf-8"?>
<!-- Generator: Adobe Illustrator 21.1.0, SVG Export Plug-In . SVG Version: 6.00 Build 0)  -->
<svg version="1.1" id="Layer_1" xmlns="http://www.w3.org/2000/svg" xmlns:xlink="http://www.w3.org/1999/xlink" x="0px" y="0px"
	 viewBox="0 0 280 55" style="enable-background:new 0 0 280 55;" xml:space="preserve">
<style type="text/css">
	.st0{fill:#FFFFFF;}
</style>
<g>
	<path class="st0" d="M145.4,12.6c-2.1,0-3.8-1.5-3.8-3.6c0-2.1,1.7-3.6,3.8-3.6c2.1,0,3.7,1.5,3.7,3.6
		C149.1,11.2,147.4,12.6,145.4,12.6z M142.2,44.4V16.6h6.5v27.8H142.2z"/>
	<path class="st0" d="M168.7,21.3c0,0-1.7-0.3-3.1-0.2c-1.9,0-3.2,0.4-3.8,0.6v22.8h-6.5V18.1c2.3-1,5.3-1.8,9.4-1.9
		c1.7-0.1,4.1,0.2,5.8,0.5C170,18.2,169.3,19.6,168.7,21.3z"/>
	<path class="st0" d="M178.8,44.9c-2.3,0-4.1-1.6-4.1-4c0-2.4,1.8-4.1,4.1-4.1c2.3,0,4.1,1.6,4.1,4.1
		C182.8,43.2,181,44.9,178.8,44.9z"/>
	<polygon class="st0" points="99.4,0 79.1,49 85.2,49 105.5,0 	"/>
	<polygon class="st0" points="273.9,0 253.6,49 259.7,49 280,0 	"/>
	<path class="st0" d="M127.9,4.1v10.4v2.7v4.7v1.7v16c-0.8,0.4-1.9,0.5-3.7,0.5c-4.7,0-7.1-3.6-7.1-9.6c0-5.4,1.8-9.5,6.9-9.5
		c0.2,0,0.4,0,0.5,0v-4.7c-0.5-0.1-1-0.1-1.6-0.1c-7.5,0-12.4,5.6-12.4,14.5c0,8.9,5.1,14.3,13.5,14.3c4.6,0,8.3-1,10.3-2V4.1H127.9
		z"/>
	<path class="st0" d="M201,16.1c-0.9,0-1.6,0.1-2.3,0.2V21c0.3,0,0.7-0.1,1.1-0.1c4.7,0,6.5,4.1,6.5,9.4c0,6.1-2.4,9.8-7.1,9.8
		c-1.6,0-3-0.2-3.8-0.5V23.5h0v-9.1h0V4.1h-6.4v39.1c2.2,1,5.7,1.8,10.1,1.8c8.7,0,13.8-5.6,13.8-14.8
		C212.8,21.8,208.3,16.1,201,16.1z"/>
	<path class="st0" d="M231.8,16.1c-8.8,0-13.6,5.8-13.6,14.4c0,8.7,4.9,13.4,11.7,13.4c0.7,0,1.4-0.1,2-0.1v-4.6
		c-0.3,0-0.6,0.1-0.9,0.1c-4,0-6.4-2.9-6.4-8.9c0-5.8,2.3-9.5,6.9-9.5c1.8,0,2.9,0.2,3.7,0.5l0.1,22.6c0,2.2-1.1,4-3.1,4.8
		c-1.2,0.8-2.8,1.2-4.9,1.1c-2.4-0.2-4.2-0.7-5.8-1.4c-0.7,1.6-1.3,3.1-2,4.8c2.4,1,5.8,1.8,9.5,1.8c8,0,12.5-3.7,12.5-11.9V17.9
		C239.5,16.9,236,16.1,231.8,16.1z"/>
</g>
<g>
	<path class="st0" d="M30.3,38.2l-1,0H9.6c10.3-5.7,16.7-10,19.3-12.9c2.6-2.9,3.9-6.2,3.9-10c0-4.2-1.5-7.7-4.4-10.4
		c-2.9-2.7-6.8-4.1-11.7-4.1C12,0.8,8.2,2.2,5.2,4.9C2.3,7.7,0.6,11,0,14.8l7.7,1.9c0.8-6.1,3.7-9.1,8.7-9.1c2.3,0,4.2,0.7,5.7,2.2
		c1.5,1.5,2.2,3.3,2.2,5.4c0,1.8-0.7,3.7-2.2,5.9c-1.5,2.1-4.3,4.6-8.5,7.3L0,37.3v7.6h34.6C32.5,43.1,31,40.9,30.3,38.2z"/>
</g>
<g>
	<path class="st0" d="M62.2,45.1l1.7-4.3l1,0.4l-1.2,3l6.4,2.6l-0.5,1.3L62.2,45.1z"/>
	<path class="st0" d="M67.7,42.1c-1.4-0.6-2.2-1.3-2.6-2.4c-0.3-0.9-0.3-1.7,0.1-2.7c0.4-1,1.1-1.7,2-2.1c0.9-0.4,2-0.3,3.2,0.2
		c1,0.4,1.6,0.8,2.1,1.3c0.4,0.5,0.7,1.1,0.8,1.8c0.1,0.7,0,1.3-0.3,2c-0.4,1-1.1,1.7-2,2.1C70.1,42.7,69,42.6,67.7,42.1z
		 M68.3,40.8c0.9,0.4,1.7,0.5,2.4,0.2c0.6-0.2,1.1-0.6,1.3-1.3c0.3-0.6,0.2-1.2-0.1-1.8c-0.3-0.6-0.9-1.1-1.9-1.5
		c-0.9-0.4-1.7-0.4-2.3-0.2c-0.6,0.2-1.1,0.6-1.3,1.3c-0.3,0.6-0.2,1.2,0.1,1.8C66.7,40,67.3,40.5,68.3,40.8z"/>
	<path class="st0" d="M67.7,31.5l2.1-5.2l6.4,2.6l0.3-0.8l3.1,1.3l-0.4,1l-2.1-0.9l-2.4,5.8l2.1,0.9l-0.4,1l-3.1-1.3l0.3-0.7
		C72.7,34,70.8,32.7,67.7,31.5z M69.2,30.9c2.4,1.1,4,2.2,4.9,3.3l1.6-4L70.3,28L69.2,30.9z"/>
	<path class="st0" d="M70.7,24.2l0.5-1.3l5.7,2.3l-4.2-5.8l0.5-1.4l7.4,3L80,22.4l-5.6-2.3l4.2,5.8l-0.5,1.4L70.7,24.2z"/>
	<path class="st0" d="M73.9,16.2l0.5-1.3l3.1,1.2l1.4-3.5l-3.1-1.2l0.5-1.3l7.4,3l-0.5,1.3L80,13.1l-1.4,3.5l3.3,1.3l-0.5,1.3
		L73.9,16.2z"/>
	<path class="st0" d="M77.1,8.3l0.5-1.3l5.7,2.3L79,3.6l0.5-1.4l7.4,3l-0.5,1.3l-5.6-2.3l4.2,5.8l-0.5,1.4L77.1,8.3z"/>
</g>
<g>
	<polygon class="st0" points="68,10.5 68.1,10.2 68,10.5 	"/>
</g>
<g>
	<path class="st0" d="M49.3,40.1c-2,0-3.8-0.6-5.4-1.8c-1.6-1.2-2.5-2.6-2.9-4.3L41,33.7l-7.4,1.9l0.1,0.2c0.9,3.3,2.9,6,5.9,7.9
		c2.9,1.9,6.4,2.9,10.1,2.9c0.4,0,0.7,0,1.1,0l3.3-7.9C52.6,39.7,51,40.1,49.3,40.1z"/>
</g>
<g>
	<path class="st0" d="M42.7,2l-6.4,23.1l6.6,2.8l0.1-0.2c2.1-3.1,4.7-4.6,8-4.6c2.1,0,3.8,0.7,5.3,2.1c1.4,1.3,2.1,2.9,2.2,4.9
		l4.3-10.4c-2.5-2.4-5.7-3.6-9.3-3.6c-3.2,0-6,1.1-8.3,3.3l-0.7,0.6l3.2-11h19.2l0.4-0.8L69.8,2H42.7z"/>
</g>
</svg>
