<?xml version="1.0" encoding="utf-8"?>
<!-- Generator: Adobe Illustrator 21.1.0, SVG Export Plug-In . SVG Version: 6.00 Build 0)  -->
<svg version="1.1" id="Layer_1" xmlns="http://www.w3.org/2000/svg" xmlns:xlink="http://www.w3.org/1999/xlink" x="0px" y="0px"
	 viewBox="0 0 150.2 34.2" style="enable-background:new 0 0 150.2 34.2;" xml:space="preserve">
<style type="text/css">
	.st0{fill:#FFFFFF;}
</style>
<g>
	<g>
		<g>
			<path class="st0" d="M90.4,7.9C89.1,7.9,88,7,88,5.7s1.1-2.2,2.4-2.2s2.3,0.9,2.3,2.2C92.7,7,91.7,7.9,90.4,7.9z M88.4,27.6V10.3
				h4v17.3L88.4,27.6z"/>
			<path class="st0" d="M104.9,13.2c0,0-1.1-0.2-1.9-0.1c-1.2,0-2,0.2-2.4,0.4v14.2h-4V11.3c1.4-0.6,3.3-1.1,5.8-1.2
				c1.1-0.1,2.5,0.1,3.6,0.3C105.7,11.4,105.2,12.2,104.9,13.2z"/>
			<path class="st0" d="M111.1,27.9c-1.4,0-2.5-1-2.5-2.5s1.1-2.5,2.5-2.5s2.5,1,2.5,2.5C113.7,26.9,112.6,27.9,111.1,27.9z"/>
			<polygon class="st0" points="61.8,0 49.2,30.5 53,30.5 65.6,0 			"/>
			<path class="st0" d="M79.5,2.5V9v1.7v2.9v1.1v9.9c-0.5,0.2-1.2,0.3-2.3,0.3c-2.9,0-4.4-2.2-4.4-6c0-3.4,1.1-5.9,4.3-5.9
				c0.1,0,0.2,0,0.3,0v-2.9c-0.3-0.1-0.6-0.1-1-0.1c-4.7,0-7.7,3.5-7.7,9s3.2,8.9,8.4,8.9c2.9,0,5.2-0.6,6.4-1.2V2.5H79.5z"/>
			<path class="st0" d="M125,10.1c-0.6,0-1,0.1-1.4,0.1v2.9c0.2,0,0.4-0.1,0.7-0.1c2.9,0,4,2.5,4,5.8c0,3.8-1.5,6.1-4.4,6.1
				c-1,0-1.9-0.1-2.4-0.3v-10l0,0V9l0,0V2.5h-4v24.3c1.4,0.6,3.5,1.1,6.3,1.1c5.4,0,8.6-3.5,8.6-9.2C132.3,13.5,129.5,10.1,125,10.1
				z"/>
			<path class="st0" d="M144.1,10c-5.5,0-8.5,3.6-8.5,9s3,8.3,7.3,8.3c0.4,0,0.9-0.1,1.2-0.1v-2.9c-0.2,0-0.4,0.1-0.6,0.1
				c-2.5,0-4-1.8-4-5.5c0-3.6,1.4-5.9,4.3-5.9c1.1,0,1.8,0.1,2.3,0.3l0.1,14c0,1.4-0.7,2.5-1.9,3c-0.7,0.5-1.7,0.7-3,0.7
				c-1.5-0.1-2.6-0.4-3.6-0.9c-0.4,1-0.8,1.9-1.2,3c1.5,0.6,3.6,1.1,5.9,1.1c5,0,7.8-2.3,7.8-7.4V11.1C148.9,10.5,146.7,10,144.1,10
				z"/>
		</g>
		<g>
			<path class="st0" d="M18.8,23.7h-0.6H6c6.4-3.5,10.4-6.2,12-8s2.4-3.9,2.4-6.2c0-2.6-0.9-4.8-2.7-6.5s-4.2-2.5-7.3-2.5
				C7.5,0.5,5.1,1.4,3.2,3C1.4,4.8,0.3,6.8,0,9.2l4.8,1.2c0.5-3.8,2.3-5.7,5.4-5.7c1.4,0,2.6,0.4,3.5,1.4s1.4,2.1,1.4,3.4
				c0,1.1-0.4,2.3-1.4,3.7c-0.9,1.3-2.7,2.9-5.3,4.5L0,23.2v4.7h21.5C20.2,26.8,19.3,25.4,18.8,23.7z"/>
		</g>
		<g>
			<path class="st0" d="M38.7,28l1.1-2.7l0.6,0.2l-0.7,1.9l4,1.6l-0.3,0.8L38.7,28z"/>
			<path class="st0" d="M42.1,26.2c-0.9-0.4-1.4-0.8-1.6-1.5c-0.2-0.6-0.2-1.1,0.1-1.7c0.2-0.6,0.7-1.1,1.2-1.3
				c0.6-0.2,1.2-0.2,2,0.1c0.6,0.2,1,0.5,1.3,0.8c0.2,0.3,0.4,0.7,0.5,1.1s0,0.8-0.2,1.2c-0.2,0.6-0.7,1.1-1.2,1.3
				C43.6,26.5,42.9,26.5,42.1,26.2z M42.5,25.4c0.6,0.2,1.1,0.3,1.5,0.1c0.4-0.1,0.7-0.4,0.8-0.8c0.2-0.4,0.1-0.7-0.1-1.1
				c-0.2-0.4-0.6-0.7-1.2-0.9c-0.6-0.2-1.1-0.2-1.4-0.1c-0.4,0.1-0.7,0.4-0.8,0.8c-0.2,0.4-0.1,0.7,0.1,1.1
				C41.5,24.9,41.8,25.2,42.5,25.4z"/>
			<path class="st0" d="M42.1,19.6l1.3-3.2l4,1.6l0.2-0.5l1.9,0.8L49.2,19l-1.3-0.6L46.4,22l1.3,0.6l-0.2,0.6l-1.9-0.8l0.2-0.4
				C45.2,21.1,44,20.4,42.1,19.6z M43,19.2c1.5,0.7,2.5,1.4,3,2.1l1-2.5l-3.3-1.4L43,19.2z"/>
			<path class="st0" d="M43.9,15l0.3-0.8l3.5,1.4L45.1,12l0.3-0.9L50,13l-0.3,0.8l-3.5-1.4l2.6,3.6l-0.3,0.9L43.9,15z"/>
			<path class="st0" d="M45.9,10.1l0.3-0.8l1.9,0.7L49,7.8l-1.9-0.7l0.3-0.8L52,8.1L51.7,9l-2.1-0.8l-0.9,2.2l2.1,0.8L50.5,12
				L45.9,10.1z"/>
			<path class="st0" d="M47.9,5.2l0.3-0.8l3.5,1.4l-2.6-3.6l0.3-0.9L54,3.2L53.8,4l-3.5-1.4l2.6,3.6L52.6,7L47.9,5.2z"/>
		</g>
		<g>
			<path class="st0" d="M42.3,6.5V6.3V6.5z"/>
		</g>
		<g>
			<path class="st0" d="M30.6,24.9c-1.2,0-2.4-0.4-3.4-1.1s-1.6-1.6-1.8-2.7V21l-4.6,1.2l0.1,0.1c0.6,2.1,1.8,3.7,3.7,4.9
				c1.8,1.2,4,1.8,6.3,1.8c0.2,0,0.4,0,0.7,0l2.1-4.9C32.7,24.7,31.8,24.9,30.6,24.9z"/>
		</g>
		<g>
			<path class="st0" d="M26.5,1.3l-4,14.4l4.1,1.7l0.1-0.1c1.3-1.9,2.9-2.9,5-2.9c1.3,0,2.4,0.4,3.3,1.3c0.9,0.8,1.3,1.8,1.4,3
				l2.7-6.5c-1.6-1.5-3.5-2.2-5.8-2.2c-2,0-3.7,0.7-5.2,2.1l-0.4,0.4l2-6.8h11.9l0.2-0.5l1.6-3.9L26.5,1.3L26.5,1.3z"/>
		</g>
	</g>
</g>
</svg>
