<?xml version="1.0" encoding="utf-8"?>
<!-- Generator: Adobe Illustrator 19.0.0, SVG Export Plug-In . SVG Version: 6.00 Build 0)  -->
<svg version="1.1" id="Layer_1" xmlns="http://www.w3.org/2000/svg" xmlns:xlink="http://www.w3.org/1999/xlink" x="0px" y="0px"
	 viewBox="0 0 73.7 59.5" style="enable-background:new 0 0 73.7 59.5;" xml:space="preserve">
<style type="text/css">
	.st0{opacity:0.55;}
	.st1{fill:#FFFFFF;}
</style>
<g class="st0">
	<path id="XMLID_2_" class="st1" d="M0.7,21C9.1,27.4,18,32.8,26.3,39.1c1.5,1.1,3,2,4.6,2.9c4,2.2,8.1,2.1,12.1-0.2
		c1.7-1,3.3-2.1,4.9-3.2c6.6-4.5,13.1-9.1,19.6-13.7c1.6-1.1,3.1-2.5,4.7-3.7c0.2-0.1,0.3-0.2,0.7-0.5c0.1,0.5,0.1,0.8,0.1,1.1
		c0,10.2,0,20.3,0,30.5c0,4-2.9,6.8-6.8,6.8c-19.6,0-39.2,0-58.8,0c-2.7,0-4.8-1.1-6.1-3.4C1,55,0.7,54,0.7,53
		c-0.1-10.4,0-20.8,0-31.3C0.6,21.5,0.7,21.3,0.7,21z"/>
	<path id="XMLID_1_" class="st1" d="M36.8,0.3c9.8,0,19.7,0.1,29.5-0.1c4.1-0.1,7.6,4,6.7,8.2c-1,4.2-3.5,7.1-6.9,9.5
		c-5.5,3.9-11,7.7-16.6,11.5c-2.7,1.9-5.5,3.8-8.3,5.7c-0.6,0.4-1.3,0.7-2,1c-1.7,0.7-3.5,0.7-5.2-0.2c-1.5-0.8-3.1-1.6-4.5-2.6
		C22.3,28.2,15,23.1,7.7,18c-2.5-1.7-4.5-3.9-6-6.5C0.3,9,0.2,6.4,1.4,3.9c1.1-2.4,3-3.6,5.6-3.6C16.9,0.3,26.8,0.3,36.8,0.3z"/>
</g>
</svg>
