<?xml version="1.0" encoding="utf-8"?>
<!-- Generator: Adobe Illustrator 19.0.0, SVG Export Plug-In . SVG Version: 6.00 Build 0)  -->
<svg version="1.1" id="Layer_2" xmlns="http://www.w3.org/2000/svg" xmlns:xlink="http://www.w3.org/1999/xlink" x="0px" y="0px"
	 viewBox="374 -111.9 1400 333.9" style="enable-background:new 374 -111.9 1400 333.9;" xml:space="preserve">
<style type="text/css">
	.st0{fill:#FFFFFF;}
</style>
<g>
	<path class="st0" d="M407.5,201.6c0-1.4,0-2.8,0-4.3c0.2-2,0.5-4,0.7-6c0.6-5.9,1.1-11.9,1.6-17.8c0.5-5.3,0.9-10.7,1.4-16
		c0.5-6.1,1.1-12.1,1.6-18.1c0.5-5.2,0.9-10.5,1.4-15.7c0.5-6,1.1-12.1,1.6-18.1c0.5-5.3,1-10.7,1.4-16c0.5-5.7,1.1-11.5,1.6-17.2
		c0.5-5.5,1-11.1,1.5-16.6c0.5-5.7,1.1-11.5,1.6-17.2c0.5-5.4,0.9-10.9,1.4-16.3c0.5-5.6,1.1-11.3,1.6-16.9
		c0.5-5.5,0.9-11.1,1.4-16.6c0.1-1.5,0.4-3,0.8-4.5c1.5-4.7,5.7-7.6,10.9-7.6c11.8,0,23.5,0,35.3,0c1.1,0,2.1-0.1,3.3-0.1
		c0-5.3-0.1-10.3,0-15.3c0.2-4.3,0.4-8.7,1.1-13c3.8-22.9,22.1-42.1,44.8-47.2c2.7-0.6,5.5-1.1,8.3-1.7c3.7,0,7.3,0,11,0
		c1.2,0.2,2.3,0.4,3.5,0.6c15.2,2.6,27.8,9.7,37.5,21.8c7.3,9.1,11.8,19.5,12.7,31.3c0.5,6.7,0.4,13.4,0.5,20c0,1.1,0,2.2,0,3.5
		c5,0,9.6,0,14.3,0c8.2,0,16.4-0.1,24.6,0c5.9,0.1,10.4,4.1,11.1,10c0.7,6.3,1.2,12.7,1.8,19c0.5,5.2,0.9,10.5,1.4,15.7
		c0.5,5.9,1.1,11.9,1.6,17.8c0.5,5.3,0.9,10.7,1.4,16c0.5,5.9,1.1,11.9,1.6,17.8c0.5,5.3,0.9,10.7,1.4,16c0.5,6,1.1,12.1,1.6,18.1
		c0.5,5.2,0.9,10.5,1.4,15.7c0.5,6,1.1,12.1,1.6,18.1c0.5,5.2,0.9,10.5,1.4,15.7c0.5,5.5,1.1,11.1,1.6,16.6s0.9,11.1,1.4,16.6
		c0.2,2.5,0.7,5,1,7.5c0,1.4,0,2.8,0,4.3c-0.2,0.4-0.4,0.9-0.6,1.3c-1.8,4.8-5.7,7.7-10.8,7.9c-0.8,0-1.6,0-2.4,0
		c-76.8,0-153.6,0-230.4,0c-0.8,0-1.6,0-2.4,0c-5.2-0.2-9.1-3.1-10.8-7.9C408,202.5,407.8,202,407.5,201.6z M573.6-23.8
		c0.1-0.7,0.2-1.3,0.2-1.9c0-6,0-12-0.1-17.9c-0.1-2.2-0.4-4.4-0.9-6.6c-5.6-22.1-29.1-34.2-50.1-25.4c-14.3,6-22.2,17.1-23.1,32.8
		c-0.3,5.8-0.1,11.6-0.1,17.3c0,0.6,0.2,1.1,0.3,1.7C524.5-23.8,549-23.8,573.6-23.8z M503.8,13.2c0-7.7-6.4-14.2-14.1-14.2
		c-7.9-0.1-14.4,6.4-14.4,14.2c0,7.7,6.4,14.2,14.1,14.2C497.1,27.5,503.8,21.1,503.8,13.2z M598,13.2C598,5.5,591.8-1,584-1
		c-7.9-0.1-14.4,6.4-14.4,14.2c0,7.7,6.4,14.2,14.1,14.2C591.5,27.5,598,21.1,598,13.2z"/>
	<g>
		<path id="XMLID_635_" class="st0" d="M966,196.9v-89.3c0-32,0-53.1-26.2-53.1c-11.2,0-19.5,4.2-24.6,8.3c1.6,15,1.6,32.3,1.6,48.3
			v85.8h-47v-89.6c0-33.9-0.6-52.8-27.8-52.8c-9.9,0-16.6,1.3-21.4,2.9v139.5H773V30.2c17.9-6.4,41.3-11.8,70.4-11.8
			c25.3,0,40.6,7,50.6,16.6c10.9-7.7,28.8-16.3,54.1-16.3c58.2,0,65.3,38.4,65.3,81.9v96.3H966z"/>
		<path id="XMLID_632_" class="st0" d="M1102.9,200.1c-46.1,0-73.6-17-73.6-56.3c0-41.6,36.5-56.3,80.3-59.2
			c6.4-0.3,13.4,0,17.6,0.3c-0.6-18.9-7.4-31.4-30.4-31.4c-18.2,0-34.5,4.8-46.1,9.9l-8.3-33.9c11.8-4.8,34.2-11.2,60.5-11.2
			c41.3,0,64.6,17.9,68.8,53.7c0.6,6.7,1,13.4,1,20.8v96.6C1158.9,195,1133.2,200.1,1102.9,200.1z M1127.6,114.4
			c-5.1,0-11.2-0.3-18.6,0.3c-18.9,1.9-33.9,8-33.9,27.8c0,17.9,11.8,25,30.7,25c10.2,0,16-0.6,21.8-2.6V114.4z"/>
		<path id="XMLID_630_" class="st0" d="M1293.2,57.1c-9-2.2-14.4-2.9-22.4-2.9c-11.5,0-19.2,1.9-23,3.5v139.2h-47.4V31.8
			c15-6.4,35.8-12.2,63-12.8c11.2-0.3,26.2,1.3,38.1,3.8C1298.9,34,1296.1,45.6,1293.2,57.1z"/>
		<path id="XMLID_628_" class="st0" d="M1416.1,196.9c-11.8-17.9-40-68.8-55-78.7v78.7h-47V-55.2h47V89.4
			c17.3-21.8,37.4-47.4,51.8-67.5h52.5c-19.8,25-44.1,54.1-65.3,79c23.7,26.9,50.6,64.6,69.4,96H1416.1z"/>
		<path id="XMLID_625_" class="st0" d="M1511.9,125.9c3.5,24.6,17.3,37.4,43.8,37.4c19.5,0,35.8-4.8,46.4-9.9l8.6,34.9
			c-11.8,6.1-33.6,12.5-59.8,12.5c-57.9,0-86.7-36.8-86.7-91.2c0-58.2,34.2-91.2,79.7-91.2c43.2,0,70.4,25.3,73.9,74.2
			c0,7,0.6,14.1,0.6,25.9L1511.9,125.9z M1542.9,52.9c-19.5,0-32.3,16-32.6,43.2l62.7-5.1C1572.1,65.7,1561.4,52.9,1542.9,52.9z"/>
		<path id="XMLID_596_" class="st0" d="M1708.9,199.5c-52.8,1.9-60.8-32.6-62.7-69.7c-0.3-18.9-0.6-52.5-0.6-71.7h-22.5V22.5h22.4
			v-45.8h47.4v45.2h43.8v35.8h-43.8v69.7c0,24,2.9,33.9,18.2,35.2c9,0.6,17.3-1,25.6-4.8c1.3,11.5,2.6,22.7,3.8,34.2
			C1733.4,195.3,1722.6,198.8,1708.9,199.5z"/>
	</g>
</g>
</svg>
