<svg id="Layer_1" data-name="Layer 1" xmlns="http://www.w3.org/2000/svg" viewBox="0 0 98 19.85263">
  <defs>
    <style>
      .cls-1 {
        fill: #a82278;
      }
    </style>
  </defs>
  <title>maxsport</title>
  <g>
    <g>
      <path class="cls-1" d="M64.1164,5.78594H60.50007L59.8413,9.18267h3.66015c.35131,0,.54176-.20513.615-.5858l.42451-2.24C64.61411,5.96148,64.46771,5.78594,64.1164,5.78594Z"/>
      <path class="cls-1" d="M72.88665,5.75656H69.68037c-.35131,0-.54153.19044-.615.5709l-1.27353,6.57387c-.07341.39536.073.5709.42451.5709h3.20628c.35131,0,.54176-.19022.615-.5709l1.27375-6.57387C73.38436,5.93232,73.23819,5.75656,72.88665,5.75656Z"/>
      <path class="cls-1" d="M82.19884,5.78594H78.65572L78.0263,9.0216h3.57226c.35131,0,.54176-.19046.615-.57113l.40983-2.09362C82.69653,5.96148,82.55015,5.78594,82.19884,5.78594Z"/>
      <path class="cls-1" d="M64.54092,6.35684l-.42451,2.24c-.07319.38068-.26365.5858-.615.5858H59.8413l.65878-3.39672H64.1164C64.46771,5.78594,64.61411,5.96148,64.54092,6.35684Z"/>
    </g>
    <polygon class="cls-1" points="36.174 7.689 29.732 7.689 27.858 10.69 35.588 10.69 34.825 14.261 39.674 9.329 36.764 4.537 36.174 7.689"/>
    <path class="cls-1" d="M3.85918,0,0,19.85263H94.14082L98,0ZM48.37073,14.73133H43.64152l-1.5078-2.92817-2.50344,2.92817H30.36163l.33662-1.21522H26.27674l-.732,1.21522h-8.8882l1.47865-6.11977-2.25469,3.68952H12.87914l-.8637-3.71889-.90775,6.14914H6.75938L8.75043,4.48285h5.43182l.8637,4.04083,2.45961-4.04083h5.49035l-1.90158,9.78736,6.22187-9.78736H41.50408l1.43483,2.79645,2.38641-2.79645h4.846V4.556L45.34,9.56315l3.1037,4.75836Zm8.61493-8.93075H52.66673c-.366,0-.54176.19024-.615.57091l-.21959,1.21522a1.34379,1.34379,0,0,0-.02937.27811c0,.30748.20514.48324.60027.64433l2.4743,1.0101a1.55607,1.55607,0,0,1,1.1565,1.464,2.01521,2.01521,0,0,1-.04384.38091l-.33662,1.72762A1.81716,1.81716,0,0,1,53.75,14.73126H48.904l.249-1.31758h4.39215c.35131,0,.54175-.19022.615-.57112l.249-1.34672a1.65313,1.65313,0,0,0,.02915-.249c0-.35131-.23429-.49793-.64434-.65878l-2.26916-.9369a1.76135,1.76135,0,0,1-1.27375-1.61059,2.96277,2.96277,0,0,1,.02937-.41l.2928-1.508A1.8168,1.8168,0,0,1,52.47627,4.483H57.2344Zm9.12179.35136-.51239,2.67921a1.817,1.817,0,0,1-1.90317,1.63974h-4.0702l-.81986,4.26042H57.24975L59.241,4.48283h5.49035A1.26622,1.26622,0,0,1,66.10745,6.15194Zm8.77048-.02938-1.36164,7.01305a1.81717,1.81717,0,0,1-1.90339,1.63974H67.60145a1.26615,1.26615,0,0,1-1.37609-1.66911l1.3614-7.01283a1.81718,1.81718,0,0,1,1.90339-1.63974h4.01146A1.2662,1.2662,0,0,1,74.87793,6.12255Zm9.312.02938-.49771,2.53281A1.78708,1.78708,0,0,1,81.96455,10.266l.89307,4.46533H81.26194l-.776-4.42151H77.792l-.84925,4.42151H75.40561l1.991-10.24847H82.8138A1.26615,1.26615,0,0,1,84.18988,6.15194ZM91.9502,5.8006H89.10991l-1.72763,8.93068H85.83044l1.7423-8.93068h-2.855l.24873-1.31779h7.23266Z"/>
  </g>
</svg>
