<svg id="Layer_1" data-name="Layer 1" xmlns="http://www.w3.org/2000/svg" viewBox="0 0 98 19.9">
  <defs>
    <style>
      .cls-1 {
        fill: #fff;
      }
    </style>
  </defs>
  <title>maxsport-09</title>
  <g>
    <g>
      <path class="cls-1" d="M64.1164,5.80963H60.50007L59.8413,9.20635h3.66015c.35131,0,.54176-.20513.615-.5858l.42451-2.24C64.61411,5.98516,64.46771,5.80963,64.1164,5.80963Z"/>
      <path class="cls-1" d="M72.88665,5.78024H69.68037c-.35131,0-.54153.19044-.615.5709L67.79189,12.925c-.07341.39536.073.5709.42451.5709h3.20628c.35131,0,.54176-.19022.615-.5709l1.27375-6.57387C73.38436,5.956,73.23819,5.78024,72.88665,5.78024Z"/>
      <path class="cls-1" d="M82.19884,5.80963H78.65572L78.0263,9.04528h3.57226c.35131,0,.54176-.19046.615-.57113l.40983-2.09362C82.69653,5.98516,82.55015,5.80963,82.19884,5.80963Z"/>
      <path class="cls-1" d="M64.54092,6.38053l-.42451,2.24c-.07319.38068-.26365.5858-.615.5858H59.8413l.65878-3.39672H64.1164C64.46771,5.80963,64.61411,5.98516,64.54092,6.38053Z"/>
    </g>
    <polygon class="cls-1" points="36.174 7.713 29.732 7.713 27.858 10.714 35.588 10.714 34.825 14.285 39.674 9.353 36.764 4.561 36.174 7.713"/>
    <path class="cls-1" d="M3.85918.02368,0,19.87632H94.14082L98,.02368ZM48.37073,14.755H43.64152l-1.5078-2.92817L39.63028,14.755H30.36163l.33662-1.21522H26.27674l-.732,1.21522h-8.8882l1.47865-6.11977-2.25469,3.68952H12.87914l-.8637-3.71889L11.10769,14.755H6.75938L8.75043,4.50654h5.43182l.8637,4.04083,2.45961-4.04083h5.49035L21.09433,14.2939l6.22187-9.78736H41.50408L42.93891,7.303l2.38641-2.79645h4.846v.07319L45.34,9.58683l3.1037,4.75836Zm8.61493-8.93075H52.66673c-.366,0-.54176.19024-.615.57091l-.21959,1.21522a1.34379,1.34379,0,0,0-.02937.27811c0,.30748.20514.48324.60027.64433l2.4743,1.0101a1.55607,1.55607,0,0,1,1.1565,1.464,2.01521,2.01521,0,0,1-.04384.38091l-.33662,1.72762A1.81716,1.81716,0,0,1,53.75,14.75494H48.904l.249-1.31758h4.39215c.35131,0,.54175-.19022.615-.57112l.249-1.34672a1.65313,1.65313,0,0,0,.02915-.249c0-.35131-.23429-.49793-.64434-.65878l-2.26916-.9369a1.76135,1.76135,0,0,1-1.27375-1.61059,2.96277,2.96277,0,0,1,.02937-.41l.2928-1.508a1.8168,1.8168,0,0,1,1.90317-1.63952H57.2344Zm9.12179.35136-.51239,2.67921a1.817,1.817,0,0,1-1.90317,1.63974h-4.0702L58.80183,14.755H57.24975L59.241,4.50651h5.49035A1.26622,1.26622,0,0,1,66.10745,6.17562Zm8.77048-.02938-1.36164,7.01305A1.81717,1.81717,0,0,1,71.61291,14.799H67.60145a1.26615,1.26615,0,0,1-1.37609-1.66911l1.3614-7.01283a1.81718,1.81718,0,0,1,1.90339-1.63974h4.01146A1.2662,1.2662,0,0,1,74.87793,6.14623Zm9.312.02938-.49771,2.53281a1.78708,1.78708,0,0,1-1.72763,1.58123l.89307,4.46533H81.26194l-.776-4.42151H77.792L76.94277,14.755H75.40561l1.991-10.24847H82.8138A1.26615,1.26615,0,0,1,84.18988,6.17562Zm7.76032-.35133H89.10991L87.38228,14.755H85.83044l1.7423-8.93068h-2.855L84.9665,4.5065h7.23266Z"/>
  </g>
</svg>
