<svg id="Layer_1" data-name="Layer 1" xmlns="http://www.w3.org/2000/svg" viewBox="0 0 161 28.2514">
  <defs>
    <style>
      .cls-1 {
        fill: #a82278;
      }
    </style>
  </defs>
  <title>nasam</title>
  <g>
    <g id="Group_10" data-name="Group 10">
      <g>
        <g id="Group_6" data-name="Group 6">
          <g id="Group_5" data-name="Group 5">
            <g>
              <path class="cls-1" d="M23.49668,27.44881s-.43345-5.973-.49545-6.83987a2.41164,2.41164,0,0,0-.80487-1.48563S4.123,9.00341,2.38932,8.01184C.6873,7.023.78033,8.632.78033,8.632S.09882,15.06666.00646,16.677A2.1264,2.1264,0,0,0,.84166,18.7829s20.3652,8.85126,21.60277,9.34671S23.49668,27.44881,23.49668,27.44881Zm-1.08258.25012c-1.11492-.43619-20.7669-9.41081-20.7669-9.41081S.56394,18.10277.657,16.6171c.093-1.45467.71184-7.36631.71184-7.36631s-.062-1.48567,1.45463-.58781c1.54771.89584,19.03321,10.70839,19.03321,10.70839a1.72969,1.72969,0,0,1,.86686,1.24034c.062.80483.49545,5.973.49545,5.973S23.55939,28.13238,22.4141,27.69893Z"/>
              <g>
                <path class="cls-1" d="M29.96164,7.054c-.155-1.5787-.74283-6.128-.74283-6.128s.03377-1.609-1.60692-.585C26.2642,1.13732,14.39243,9.44022,9.84639,12.62513l.204.11474C14.46406,9.66889,26.26475,1.47446,27.51952.773c1.547-.93029,1.33064.8958,1.33064.8958s.34042,3.80649.46445,5.19913a2.57251,2.57251,0,0,1-.34042,1.98044s-7.15358,4.02456-12.9538,7.24627l.42984.24141c5.839-3.26646,12.73758-7.17759,12.73758-7.17759A2.03131,2.03131,0,0,0,29.96164,7.054Z"/>
                <path class="cls-1" d="M24.33116,4.5464c-1.67106.031-1.36164-.09232-2.04248.40246s.062,1.3616.062,1.3616L11.63109,13.62852c.97.5452,1.94785,1.09465,2.89572,1.62715L22.6291,10.365a2.47425,2.47425,0,0,0-.24739,1.42363c.124.74283,1.11425-.43341,1.11425-.43341l4.85875-6.71583S26.00218,4.5154,24.33116,4.5464Z"/>
              </g>
            </g>
            <g id="Path_14" data-name="Path 14">
              <path class="cls-1" d="M22.41342,21.60055,8.27,14.14053s.83586-1.98043-.031-1.98043-6.3444.9282-6.3444.9282l5.69459,7.57992s.99021.062.62018-1.17627-.124-.80485-.124-.80485l14.5755,6.90462Z"/>
            </g>
          </g>
        </g>
        <g id="Group_9" data-name="Group 9">
          <g>
            <g id="Group_7" data-name="Group 7">
              <path id="Path_15" data-name="Path 15" class="cls-1" d="M33.87793,14.25544a1.54422,1.54422,0,0,1,.35742-.76471,1.81229,1.81229,0,0,1,1.20727-.34041,1.72271,1.72271,0,0,1,.71182.155,1.15971,1.15971,0,0,1,.52577.49545l4.4253,7.11824h.031v-6.5587a1.25,1.25,0,0,1,.3094-.9282,1.36577,1.36577,0,0,1,.89581-.3094,1.22106,1.22106,0,0,1,.89581.3094,1.16179,1.16179,0,0,1,.3094.9282v8.69624a1.89775,1.89775,0,0,1-.34041,1.17627,1.394,1.394,0,0,1-1.14526.40242,2.66867,2.66867,0,0,1-.52646-.031,1.74472,1.74472,0,0,1-.37142-.124,1.70073,1.70073,0,0,1-.27563-.21637c-.062-.093-.155-.18536-.24738-.3094l-4.30195-6.93219h-.031v6.3754a1.39334,1.39334,0,0,1-.3094.9282,1.36577,1.36577,0,0,1-.89581.3094,1.22106,1.22106,0,0,1-.89581-.3094,1.16179,1.16179,0,0,1-.3094-.9282V15.38394S33.85775,14.38016,33.87793,14.25544Z"/>
              <path id="Path_16" data-name="Path 16" class="cls-1" d="M53.1135,22.83539a2.12946,2.12946,0,0,1,.062.40242.90328.90328,0,0,1,.062.27563.603.603,0,0,1,.031.24738.72215.72215,0,0,1-.3094.62017,1.17145,1.17145,0,0,1-.71183.24738,1.13285,1.13285,0,0,1-1.02122-.40242,1.52012,1.52012,0,0,1-.3094-.9282A3.60186,3.60186,0,0,1,49.493,24.319a4.67961,4.67961,0,0,1-1.64.27563,3.23858,3.23858,0,0,1-.9282-.155,2.29049,2.29049,0,0,1-.80485-.46444,2.19813,2.19813,0,0,1-.58779-.71182,1.91014,1.91014,0,0,1-.21637-.9592,2.746,2.746,0,0,1,.24738-1.17627A1.96806,1.96806,0,0,1,46.244,20.385a3.2049,3.2049,0,0,1,.99021-.43343,6.98247,6.98247,0,0,1,1.20727-.21637l1.36163-.155a1.55322,1.55322,0,0,0,.37142-.062.92681.92681,0,0,0,.3094-.124.83451.83451,0,0,0,.21637-.24738.73183.73183,0,0,0,.062-.40242.758.758,0,0,0-.43343-.71182,2.03143,2.03143,0,0,0-.99021-.21637,2.16992,2.16992,0,0,0-.99021.18536,2.23062,2.23062,0,0,0-.58779.43343,5.94222,5.94222,0,0,1-.46444.43343.8641.8641,0,0,1-.55678.18536.96471.96471,0,0,1-.68082-.24738.758.758,0,0,1-.24738-.62018,1.179,1.179,0,0,1,.21637-.68081,1.97014,1.97014,0,0,1,.68082-.64981,4.64458,4.64458,0,0,1,1.11425-.49545,5.65055,5.65055,0,0,1,1.516-.18536,7.59718,7.59718,0,0,1,1.48567.124,3.544,3.544,0,0,1,1.14526.40242,2.33806,2.33806,0,0,1,.74283.71182,1.90526,1.90526,0,0,1,.27563,1.05223S53.08509,22.64084,53.1135,22.83539ZM50.823,20.63859a1.11629,1.11629,0,0,1-.46444.24738,1.70138,1.70138,0,0,1-.49545.093l-.80485.124a2.78941,2.78941,0,0,0-1.08324.34041.81036.81036,0,0,0-.37142.74283.85307.85307,0,0,0,.34041.64981,1.38644,1.38644,0,0,0,.9282.27563,2.37187,2.37187,0,0,0,.83586-.124,1.73719,1.73719,0,0,0,.62017-.37142,2.16364,2.16364,0,0,0,.40242-.52646,1.341,1.341,0,0,0,.124-.58779V20.64Z"/>
              <path id="Path_17" data-name="Path 17" class="cls-1" d="M54.66118,18.69055a2.021,2.021,0,0,1,.3094-1.17627,2.40558,2.40558,0,0,1,.80485-.77384,3.77746,3.77746,0,0,1,1.08324-.43343,5.24524,5.24524,0,0,1,1.17627-.124,5.69518,5.69518,0,0,1,1.26861.124,5.86487,5.86487,0,0,1,1.11425.34041,3.0699,3.0699,0,0,1,.77384.52646,1.0336,1.0336,0,0,1,.27563.71182,1.01986,1.01986,0,0,1-.24738.68081.86411.86411,0,0,1-.68082.27563.88477.88477,0,0,1-.52577-.155c-.124-.093-.27563-.21637-.43343-.34041a3.06559,3.06559,0,0,0-.52577-.34041,2.11826,2.11826,0,0,0-.83586-.155,2.39867,2.39867,0,0,0-.9282.155.52714.52714,0,0,0-.34041.52646.51544.51544,0,0,0,.34041.52646,4.2221,4.2221,0,0,0,.86686.24738l.9282.21637a5.608,5.608,0,0,1,.9592.27563,4.01941,4.01941,0,0,1,.89581.43343,1.95076,1.95076,0,0,1,.6498.68081,1.68756,1.68756,0,0,1,.24738.99021,2.19266,2.19266,0,0,1-.3094,1.20727,2.30979,2.30979,0,0,1-.80485.83586,4.52515,4.52515,0,0,1-1.11425.49545,5.65049,5.65049,0,0,1-1.24035.155,7.22759,7.22759,0,0,1-1.45466-.155,5.193,5.193,0,0,1-1.17627-.43343,2.47169,2.47169,0,0,1-.80485-.64981,1.25067,1.25067,0,0,1-.27563-.77384.97162.97162,0,0,1,.21637-.64981.82208.82208,0,0,1,.68082-.27563.77041.77041,0,0,1,.58779.21637c.155.155.3094.3094.49545.46444a2.94313,2.94313,0,0,0,.62017.46444,1.81021,1.81021,0,0,0,.99021.21637,1.76407,1.76407,0,0,0,.9613-.2143.63809.63809,0,0,0,.34041-.58779.55609.55609,0,0,0-.34041-.55678,6.95933,6.95933,0,0,0-.9282-.27563l-1.33062-.3094c-.34041-.093-.62017-.18536-.9282-.27563a2.92651,2.92651,0,0,1-.74283-.43343,1.84531,1.84531,0,0,1-.49545-.68081A4.54814,4.54814,0,0,1,54.66118,18.69055Z"/>
              <path id="Path_18" data-name="Path 18" class="cls-1" d="M70.78505,22.83539a2.12946,2.12946,0,0,1,.062.40242.90328.90328,0,0,1,.062.27563.60354.60354,0,0,1,.031.24738.72215.72215,0,0,1-.3094.62017,1.17145,1.17145,0,0,1-.71183.24738,1.13285,1.13285,0,0,1-1.02122-.40242,1.52012,1.52012,0,0,1-.3094-.9282A3.60186,3.60186,0,0,1,67.1646,24.319a4.67961,4.67961,0,0,1-1.64.27563,3.23858,3.23858,0,0,1-.9282-.155,2.29049,2.29049,0,0,1-.80485-.46444,2.19813,2.19813,0,0,1-.58779-.71182,1.91014,1.91014,0,0,1-.21637-.9592,2.746,2.746,0,0,1,.24738-1.17627,1.96806,1.96806,0,0,1,.68082-.74283,3.2049,3.2049,0,0,1,.99021-.43343,6.98147,6.98147,0,0,1,1.20727-.21637l1.36163-.155a1.55322,1.55322,0,0,0,.37142-.062.92681.92681,0,0,0,.3094-.124.83451.83451,0,0,0,.21637-.24738.73183.73183,0,0,0,.062-.40242.758.758,0,0,0-.43343-.71182,2.0321,2.0321,0,0,0-.99021-.21637,2.16992,2.16992,0,0,0-.99021.18536,2.23062,2.23062,0,0,0-.58779.43343,5.94612,5.94612,0,0,1-.46444.43343.8641.8641,0,0,1-.55678.18536.96471.96471,0,0,1-.68082-.24738.758.758,0,0,1-.24738-.62018,1.179,1.179,0,0,1,.21637-.68081,1.9708,1.9708,0,0,1,.68082-.64981,4.64458,4.64458,0,0,1,1.11425-.49545,5.65055,5.65055,0,0,1,1.516-.18536,7.59718,7.59718,0,0,1,1.48567.124,3.544,3.544,0,0,1,1.14526.40242,2.33876,2.33876,0,0,1,.74283.71182,1.90526,1.90526,0,0,1,.27563,1.05223S70.7595,22.6604,70.78505,22.83539Zm-2.29052-2.1968a1.11629,1.11629,0,0,1-.46444.24738,1.70138,1.70138,0,0,1-.49545.093l-.80485.124a2.78941,2.78941,0,0,0-1.08324.34041.81036.81036,0,0,0-.37142.74283.85307.85307,0,0,0,.34041.64981,1.38644,1.38644,0,0,0,.9282.27563,2.37187,2.37187,0,0,0,.83586-.124,1.73719,1.73719,0,0,0,.62017-.37142,2.16364,2.16364,0,0,0,.40242-.52646,1.341,1.341,0,0,0,.124-.58779V20.64Z"/>
              <path id="Path_19" data-name="Path 19" class="cls-1" d="M72.70414,17.29791a1.10253,1.10253,0,0,1,.27563-.80485,1.12183,1.12183,0,0,1,1.54768,0,1.157,1.157,0,0,1,.27563.80485v.27563h.031a3.10083,3.10083,0,0,1,1.14526-1.05223A3.30142,3.30142,0,0,1,77.558,16.1499a4.65178,4.65178,0,0,1,.62017.062,2.58694,2.58694,0,0,1,.62017.24738,2.30793,2.30793,0,0,1,.52647.43343,2.08863,2.08863,0,0,1,.40242.68081,4.00074,4.00074,0,0,1,1.11425-1.05223,2.93756,2.93756,0,0,1,1.54768-.37142,3.97875,3.97875,0,0,1,1.08324.155,2.25819,2.25819,0,0,1,.89581.46444,2.0494,2.0494,0,0,1,.58779.83586,3.10981,3.10981,0,0,1,.21637,1.2686V23.4852a1.2665,1.2665,0,0,1-.21637.77384,1.35336,1.35336,0,0,1-1.79162,0,1.3293,1.3293,0,0,1-.21637-.77384v-4.0208a1.79985,1.79985,0,0,0-.27563-1.02122,1.06325,1.06325,0,0,0-.9592-.43343,1.38574,1.38574,0,0,0-.62017.124,1.91558,1.91558,0,0,0-.52647.34041,1.75646,1.75646,0,0,0-.37142.55678,1.81644,1.81644,0,0,0-.124.71182v3.77549a1.28311,1.28311,0,0,1-.24738.77384,1.35336,1.35336,0,0,1-1.79162,0,1.3293,1.3293,0,0,1-.21637-.77384V19.49471a1.79985,1.79985,0,0,0-.27563-1.02122,1.06325,1.06325,0,0,0-.9592-.43343,1.38574,1.38574,0,0,0-.62017.124,1.91558,1.91558,0,0,0-.52647.34041,1.75646,1.75646,0,0,0-.37142.55678,1.81567,1.81567,0,0,0-.124.71182v3.74448a1.2665,1.2665,0,0,1-.21637.77384,1.35336,1.35336,0,0,1-1.79162,0,1.3293,1.3293,0,0,1-.21637-.77384V17.29791Z"/>
              <path id="Path_20" data-name="Path 20" class="cls-1" d="M87.20844,14.08278a1.54337,1.54337,0,0,1,.31929-.59206,1.81231,1.81231,0,0,1,1.20728-.34041,1.72263,1.72263,0,0,1,.71182.155,1.15971,1.15971,0,0,1,.52577.49545l4.4253,7.11824h.031v-6.5587a1.25,1.25,0,0,1,.3094-.9282,1.36578,1.36578,0,0,1,.8958-.3094,1.221,1.221,0,0,1,.8958.3094,1.16107,1.16107,0,0,1,.31146.9282v8.69624a1.89778,1.89778,0,0,1-.3404,1.17627,1.394,1.394,0,0,1-1.14525.40242,2.66877,2.66877,0,0,1-.52647-.031,1.74462,1.74462,0,0,1-.37142-.124,1.70024,1.70024,0,0,1-.27563-.21637c-.062-.093-.155-.18536-.24739-.3094l-4.302-6.93219h-.031v6.3754a1.263,1.263,0,0,1-.3404.9282,1.36643,1.36643,0,0,1-.8958.3094,1.221,1.221,0,0,1-.8958-.3094,1.17146,1.17146,0,0,1-.3404-.9282V15.1024A9.43808,9.43808,0,0,1,87.20844,14.08278Z"/>
              <path id="Path_21" data-name="Path 21" class="cls-1" d="M106.40657,22.83539a2.12862,2.12862,0,0,1,.062.40242.90393.90393,0,0,1,.062.27563.60372.60372,0,0,1,.031.24738.7222.7222,0,0,1-.3094.62017,1.33476,1.33476,0,0,1-1.73306-.155,1.52092,1.52092,0,0,1-.3094-.9282A3.60185,3.60185,0,0,1,102.7861,24.319a4.67888,4.67888,0,0,1-1.64.27563,3.23869,3.23869,0,0,1-.92819-.155,2.29049,2.29049,0,0,1-.80485-.46444,2.19813,2.19813,0,0,1-.58779-.71182,1.91014,1.91014,0,0,1-.21637-.9592,2.74586,2.74586,0,0,1,.24739-1.17627,1.96733,1.96733,0,0,1,.68082-.74283,3.20433,3.20433,0,0,1,.99022-.43343,6.98194,6.98194,0,0,1,1.20728-.21637l1.36164-.155a1.55388,1.55388,0,0,0,.37142-.062.927.927,0,0,0,.3094-.124.83436.83436,0,0,0,.21637-.24738.73115.73115,0,0,0,.062-.40242.758.758,0,0,0-.43343-.71182,2.03211,2.03211,0,0,0-.99022-.21637,2.16993,2.16993,0,0,0-.99022.18536,2.23126,2.23126,0,0,0-.58779.43343,5.94236,5.94236,0,0,1-.46445.43343.86408.86408,0,0,1-.55679.18536.96471.96471,0,0,1-.68082-.24738.758.758,0,0,1-.24739-.62018,1.46207,1.46207,0,0,1,.21637-.68081,1.97005,1.97005,0,0,1,.68082-.64981,4.64439,4.64439,0,0,1,1.11425-.49545,5.65041,5.65041,0,0,1,1.516-.18536,7.59718,7.59718,0,0,1,1.48567.124,3.544,3.544,0,0,1,1.14525.40242,2.33876,2.33876,0,0,1,.74283.71182,1.90535,1.90535,0,0,1,.27563,1.05223S106.37816,22.64084,106.40657,22.83539Zm-2.25952-2.1968a1.1163,1.1163,0,0,1-.46445.24738,1.70145,1.70145,0,0,1-.49545.093l-.80485.124a2.78939,2.78939,0,0,0-1.08323.34041.81039.81039,0,0,0-.37142.74283.8531.8531,0,0,0,.3404.64981,1.38642,1.38642,0,0,0,.92819.27563,2.37174,2.37174,0,0,0,.83587-.124,1.73719,1.73719,0,0,0,.62017-.37142,2.16363,2.16363,0,0,0,.40244-.52646,1.34085,1.34085,0,0,0,.124-.58779V20.64Z"/>
              <path id="Path_22" data-name="Path 22" class="cls-1" d="M108.91277,17.85538H108.54a.99573.99573,0,0,1-.68082-.18536.8269.8269,0,0,1,0-1.11425.99573.99573,0,0,1,.68082-.18536h.37142V15.00809a1.03366,1.03366,0,0,1,.3094-.83586,1.157,1.157,0,0,1,.80485-.27563,1.10254,1.10254,0,0,1,.80485.27563,1.03366,1.03366,0,0,1,.3094.83586v1.36163h.68082a1.47668,1.47668,0,0,1,.74283.155.7504.7504,0,0,1,0,1.11425,1.32649,1.32649,0,0,1-.74283.155h-.68082v4.48732c0,.34041.18537.52646.58779.52646h.3094a.74491.74491,0,0,1,.80485.77384c0,.68081-.55679.99021-1.64.99021a2.4552,2.4552,0,0,1-1.76405-.49545,1.92942,1.92942,0,0,1-.52647-1.516Z"/>
              <path id="Path_23" data-name="Path 23" class="cls-1" d="M121.50923,22.83539c.031.155.062.27563.093.40242a.90393.90393,0,0,1,.062.27563.60372.60372,0,0,1,.031.24738.7222.7222,0,0,1-.3094.62017,1.1714,1.1714,0,0,1-.71182.24738,1.13285,1.13285,0,0,1-1.02122-.40242,1.52092,1.52092,0,0,1-.3094-.9282A3.60185,3.60185,0,0,1,117.9198,24.319a4.67961,4.67961,0,0,1-1.64.27563,3.23869,3.23869,0,0,1-.92819-.155,2.29049,2.29049,0,0,1-.80485-.46444,2.19813,2.19813,0,0,1-.58779-.71182,1.91014,1.91014,0,0,1-.21637-.9592,2.74586,2.74586,0,0,1,.24739-1.17627,1.96733,1.96733,0,0,1,.68082-.74283,3.205,3.205,0,0,1,.99022-.43343,6.98194,6.98194,0,0,1,1.20728-.21637l1.36164-.155a1.55388,1.55388,0,0,0,.37142-.062.927.927,0,0,0,.3094-.124.83436.83436,0,0,0,.21637-.24738.73173.73173,0,0,0,.062-.40242.758.758,0,0,0-.43343-.71182,2.03141,2.03141,0,0,0-.99022-.21637,2.16993,2.16993,0,0,0-.99022.18536,2.23046,2.23046,0,0,0-.58779.43343,5.94388,5.94388,0,0,1-.46445.43343.86408.86408,0,0,1-.55679.18536.96472.96472,0,0,1-.68082-.24738.758.758,0,0,1-.24739-.62018,1.179,1.179,0,0,1,.21637-.68081,1.97005,1.97005,0,0,1,.68082-.64981,4.6444,4.6444,0,0,1,1.11425-.49545,5.65041,5.65041,0,0,1,1.516-.18536,7.59637,7.59637,0,0,1,1.48567.124,3.544,3.544,0,0,1,1.14525.40242,2.33876,2.33876,0,0,1,.74283.71182,1.90535,1.90535,0,0,1,.27563,1.05223S121.48082,22.64084,121.50923,22.83539Zm-2.29052-2.1968a1.11563,1.11563,0,0,1-.46445.24738,1.70145,1.70145,0,0,1-.49545.093l-.80485.124a2.78939,2.78939,0,0,0-1.08323.34041.81039.81039,0,0,0-.37142.74283.8531.8531,0,0,0,.3404.64981,1.38642,1.38642,0,0,0,.92819.27563,2.37174,2.37174,0,0,0,.83587-.124,1.73719,1.73719,0,0,0,.62017-.37142,2.16291,2.16291,0,0,0,.40244-.52646,1.34085,1.34085,0,0,0,.124-.58779V20.64Z"/>
              <path id="Path_24" data-name="Path 24" class="cls-1" d="M123.42763,17.29791a1.10258,1.10258,0,0,1,.27563-.80485,1.12183,1.12183,0,0,1,1.54768,0,1.157,1.157,0,0,1,.27563.80485v.27563h.031a3.1009,3.1009,0,0,1,1.14525-1.05223,3.30139,3.30139,0,0,1,1.578-.37142,4.65074,4.65074,0,0,1,.62017.062,2.58639,2.58639,0,0,1,.62017.24738,2.307,2.307,0,0,1,.52647.43343,2.08845,2.08845,0,0,1,.40244.68081,4.00012,4.00012,0,0,1,1.11425-1.05223,2.93825,2.93825,0,0,1,1.54768-.37142,3.97949,3.97949,0,0,1,1.08323.155,2.25821,2.25821,0,0,1,.8958.46444,2.0492,2.0492,0,0,1,.58779.83586,3.11,3.11,0,0,1,.21637,1.2686V23.4852a1.11015,1.11015,0,0,1-.24739.77384,1.35336,1.35336,0,0,1-1.79162,0,1.32915,1.32915,0,0,1-.21637-.77384v-4.0208a1.8,1.8,0,0,0-.27563-1.02122,1.06257,1.06257,0,0,0-.9592-.43343,1.38568,1.38568,0,0,0-.62017.124,1.91545,1.91545,0,0,0-.52577.34041,1.75555,1.75555,0,0,0-.37142.55678,1.81548,1.81548,0,0,0-.124.71182v3.77549a1.26657,1.26657,0,0,1-.21637.77384,1.35336,1.35336,0,0,1-1.79162,0,1.32915,1.32915,0,0,1-.21637-.77384V19.49471a1.8,1.8,0,0,0-.27563-1.02122,1.06327,1.06327,0,0,0-.9592-.43343,1.38568,1.38568,0,0,0-.62017.124,1.91558,1.91558,0,0,0-.52647.34041,1.75646,1.75646,0,0,0-.37142.55678,1.81626,1.81626,0,0,0-.124.71182v3.74448a1.26657,1.26657,0,0,1-.21637.77384,1.35336,1.35336,0,0,1-1.79162,0,1.32915,1.32915,0,0,1-.21637-.77384V17.29791Z"/>
            </g>
            <g id="Group_8" data-name="Group 8">
              <path id="Path_25" data-name="Path 25" class="cls-1" d="M137.50906,23.581a.92.92,0,0,1,.24739-.62018.86411.86411,0,0,1,.62017-.24738.92063.92063,0,0,1,.62017.24738.86418.86418,0,0,1,.24739.62018.92.92,0,0,1-.24739.62018.86411.86411,0,0,1-.62017.24738.9199.9199,0,0,1-.62017-.24738A.98269.98269,0,0,1,137.50906,23.581Z"/>
              <path id="Path_26" data-name="Path 26" class="cls-1" d="M140.29433,21.7239a3.79589,3.79589,0,0,1,.18537-1.20727,2.33049,2.33049,0,0,1,.55679-.9282,2.72533,2.72533,0,0,1,.8958-.62018,3.15258,3.15258,0,0,1,1.24034-.21637,2.86109,2.86109,0,0,1,.8958.124,3.79,3.79,0,0,1,.71182.3094,1.65784,1.65784,0,0,1,.46445.46444.8647.8647,0,0,1,.155.52646.54232.54232,0,0,1-.21637.49545.85655.85655,0,0,1-.49545.155.62014.62014,0,0,1-.27563-.062.8201.8201,0,0,1-.18537-.155,1.30949,1.30949,0,0,1-.155-.21637c-.062-.062-.124-.155-.18537-.21637a.81166.81166,0,0,0-.27563-.155,1.6131,1.6131,0,0,0-.43343-.062.98813.98813,0,0,0-.43343.093,1.17755,1.17755,0,0,0-.40244.27563,1.5512,1.5512,0,0,0-.3094.55678,2.33425,2.33425,0,0,0-.124.86687,1.80262,1.80262,0,0,0,.3404,1.14526,1.13769,1.13769,0,0,0,.9592.43343.95642.95642,0,0,0,.58779-.155,1.77433,1.77433,0,0,0,.3404-.34041,3.28725,3.28725,0,0,1,.27563-.34041.61261.61261,0,0,1,.43343-.155.6298.6298,0,0,1,.46445.18536.54505.54505,0,0,1,.186.40242,1.25533,1.25533,0,0,1-.155.52646,1.70971,1.70971,0,0,1-.43343.52577,2.20985,2.20985,0,0,1-.71182.37142,3.22427,3.22427,0,0,1-1.02122.155,3.15326,3.15326,0,0,1-1.24034-.21637,2.7799,2.7799,0,0,1-.86686-.55678A2.91811,2.91811,0,0,1,140.29433,21.7239Z"/>
              <path id="Path_28" data-name="Path 28" class="cls-1" d="M152.58729,19.25176a.864.864,0,0,1,.14777-.28212.747.747,0,0,1,.52647-.21637.6374.6374,0,0,1,.52647.21637.758.758,0,0,1,.18537.55678v.18536h.031A2.11625,2.11625,0,0,1,154.77821,19a2.39323,2.39323,0,0,1,1.05224-.24738.91371.91371,0,0,1,.40244.062,1.55431,1.55431,0,0,1,.40244.155,1.6411,1.6411,0,0,1,.37142.3094,1.1653,1.1653,0,0,1,.27563.46444,2.69084,2.69084,0,0,1,.74485-.71527,1.83232,1.83232,0,0,1,1.05224-.24738,2.87284,2.87284,0,0,1,.74283.093,1.66469,1.66469,0,0,1,.62017.3094,1.33482,1.33482,0,0,1,.40244.58779,2.41165,2.41165,0,0,1,.155.86687v3.12569a.95929.95929,0,0,1-.155.52646c-.093.155-.3094.21637-.62017.21637a.718.718,0,0,1-.62017-.21637,1.04316,1.04316,0,0,1-.155-.52646V21.0424a1.177,1.177,0,0,0-.18537-.68081.72286.72286,0,0,0-.6498-.27563.85656.85656,0,0,0-.40244.093.8778.8778,0,0,0-.3404.24738,1.11288,1.11288,0,0,0-.24739.37142,1.24015,1.24015,0,0,0-.093.46445v2.5379a.95929.95929,0,0,1-.155.52646c-.093.155-.3094.21637-.62017.21637a.71733.71733,0,0,1-.62017-.21637,1.04316,1.04316,0,0,1-.155-.52646V21.0734a1.177,1.177,0,0,0-.18537-.68081.72286.72286,0,0,0-.6498-.27563.85657.85657,0,0,0-.40244.093.8778.8778,0,0,0-.3404.24738,1.11288,1.11288,0,0,0-.24739.37142,1.24015,1.24015,0,0,0-.093.46445v2.5379a.95921.95921,0,0,1-.155.52577c-.093.155-.3094.21637-.62017.21637a.71733.71733,0,0,1-.62017-.21637,1.04329,1.04329,0,0,1-.155-.52577S152.56026,19.34,152.58729,19.25176Z"/>
            </g>
          </g>
        </g>
      </g>
    </g>
    <path class="cls-1" d="M151.341,20.51665a2.37312,2.37312,0,0,0-.5097-.87341c-.006-.007-.01-.01544-.01605-.0224l-.01141-.00983a2.22,2.22,0,0,0-.8454-.60449l-.01-.00586a3.4716,3.4716,0,0,0-2.41254,0l-.01.00586a2.22,2.22,0,0,0-.8454.60449l-.01141.00983c-.006.007-.01007.01538-.01605.0224a2.3741,2.3741,0,0,0-.50977.87341,3.23955,3.23955,0,0,0-.18536,1.11426,4.15985,4.15985,0,0,0,.15509,1.08319,2.25776,2.25776,0,0,0,.46442.89581,2.20716,2.20716,0,0,0,.53778.44049.81364.81364,0,0,0,.26361.17969,3.92334,3.92334,0,0,0,2.72675,0,2.309,2.309,0,0,0,.86682-.62018,3.67329,3.67329,0,0,0,.36865-3.09326Zm-2.07208-.49475a1.15828,1.15828,0,0,1,.40247.3714,1.52976,1.52976,0,0,1,.24738.55676,2.4104,2.4104,0,0,1,.08771.642l.004.03882a4.21818,4.21818,0,0,1-.062.64978,2.325,2.325,0,0,1-.21637.55676,1.159,1.159,0,0,1-.40247.37146,1.19517,1.19517,0,0,1-1.17627,0,1.15937,1.15937,0,0,1-.4024-.37146,1.49774,1.49774,0,0,1-.21637-.55676,2.31408,2.31408,0,0,1-.062-.64978,2.41134,2.41134,0,0,1,.093-.68085,1.52874,1.52874,0,0,1,.24738-.55676,1.15862,1.15862,0,0,1,.4024-.3714,1.22308,1.22308,0,0,1,1.05359,0Z"/>
  </g>
</svg>
