<svg id="Layer_1" data-name="Layer 1" xmlns="http://www.w3.org/2000/svg" viewBox="0 0 90 23.21353">
  <defs>
    <style>
      .cls-1 {
        fill: #a82278;
      }
    </style>
  </defs>
  <title>rtf</title>
  <g>
    <path class="cls-1" d="M34.96438,3.68215A3.08,3.08,0,0,0,31.66646.54432H28.14441V10.214h1.761V2.27333h1.697a1.41271,1.41271,0,0,1,1.5369,1.47286A1.35389,1.35389,0,0,1,31.66646,5.187h-1.633v.89652L33.26739,10.214h2.01718V9.92579L32.595,6.62787A2.92771,2.92771,0,0,0,34.96438,3.68215Z"/>
    <path class="cls-1" d="M43.35328,7.84457H41.52821l-.032.032a2.09074,2.09074,0,0,1-1.82506.89652,2.00986,2.00986,0,0,1-2.04919-1.633h5.85942V7.04411a4.24158,4.24158,0,0,0-.96056-3.16985,3.81512,3.81512,0,0,0-2.84966-1.15267,3.68354,3.68354,0,0,0-3.81022,3.81022,3.85682,3.85682,0,0,0,7.42833,1.40882ZM37.686,5.79538a2.13974,2.13974,0,0,1,4.06637,0Z"/>
    <path class="cls-1" d="M48.12406,10.342a3.52556,3.52556,0,0,0,2.4014-.86451l.032.70441h1.60093V2.81764H50.55748l-.032.70441a3.65849,3.65849,0,0,0-2.4014-.83249,3.61731,3.61731,0,0,0-3.68215,3.81022A3.64436,3.64436,0,0,0,48.12406,10.342ZM46.17092,6.53181a2.1775,2.1775,0,1,1,4.35454,0,2.1775,2.1775,0,1,1-4.35454,0Z"/>
    <rect class="cls-1" x="54.17558" y="0.57633" width="1.69699" height="9.66964"/>
    <polygon class="cls-1" points="59.811 10.214 61.604 10.214 61.604 2.241 64.293 2.241 64.293 0.576 57.153 0.576 57.153 2.241 59.811 2.241 59.811 10.214"/>
    <rect class="cls-1" x="65.54221" y="2.84966" width="1.69699" height="7.36429"/>
    <path class="cls-1" d="M66.3747,2.24131a1.10758,1.10758,0,0,0,1.15267-1.05661v-.064A1.12114,1.12114,0,0,0,66.3747,0,1.13446,1.13446,0,0,0,65.254,1.12065a1.07965,1.07965,0,0,0,1.08864,1.08863A.03136.03136,0,0,0,66.3747,2.24131Z"/>
    <path class="cls-1" d="M78.06151,2.75361A3.47943,3.47943,0,0,0,75.436,3.9383,2.64725,2.64725,0,0,0,73.0666,2.75361a2.99969,2.99969,0,0,0-2.14525.86451V2.88169h-1.665V10.246h1.697V6.17961a1.72311,1.72311,0,0,1,1.82506-1.85708c1.0246,0,1.50488.60835,1.50488,1.85708V10.214h1.697V6.14758A1.70732,1.70732,0,0,1,77.80536,4.2905c1.0246,0,1.50488.60835,1.50488,1.85708V10.214h1.697V6.08355C81.00723,3.93829,79.95062,2.75361,78.06151,2.75361Z"/>
    <path class="cls-1" d="M89.04391,3.87426a3.81512,3.81512,0,0,0-2.84966-1.15267A3.68354,3.68354,0,0,0,82.384,6.53181a3.85682,3.85682,0,0,0,7.42833,1.40882l.032-.12807H88.01932l-.032.032a2.09073,2.09073,0,0,1-1.82506.89652,2.00986,2.00986,0,0,1-2.04919-1.633h5.85942V7.01209A3.94217,3.94217,0,0,0,89.04391,3.87426ZM84.17708,5.79538a2.13974,2.13974,0,0,1,4.06637,0Z"/>
    <polygon class="cls-1" points="28.112 22.957 29.905 22.957 29.905 19.115 33.556 19.115 33.556 17.418 29.905 17.418 29.905 15.017 33.908 15.017 33.908 13.32 28.112 13.32 28.112 22.957"/>
    <path class="cls-1" d="M40.53563,19.65946a1.78342,1.78342,0,0,1-1.95314,1.8891c-1.08863,0-1.633-.64037-1.633-1.85708V15.62511h-1.697v4.13041c0,2.11323,1.08863,3.32994,2.97774,3.32994a3.2383,3.2383,0,0,0,2.30534-.86451v.73643h1.665V15.59308h-1.665v4.06638Z"/>
    <path class="cls-1" d="M47.54772,21.48453c-.8645,0-1.18469-.28817-1.18469-1.08863V17.066h1.85708V15.62512H46.363V13.8l-1.697.19211v1.633H43.25722V17.066H44.666V20.588c0,1.633.89652,2.46544,2.62553,2.46544.32019,0,.64037-.032.96056-.064h.09606V21.42049l-.12807.032C47.996,21.45251,47.77185,21.48453,47.54772,21.48453Z"/>
    <path class="cls-1" d="M54.88,19.65946a1.78342,1.78342,0,0,1-1.95314,1.8891c-1.08864,0-1.633-.64037-1.633-1.85708V15.62511h-1.697v4.13041c0,2.11323,1.08864,3.32994,2.97774,3.32994A3.2383,3.2383,0,0,0,54.88,22.22094v.73643h1.665V15.59308H54.848l.032,4.06638Z"/>
    <path class="cls-1" d="M62.11622,15.497a2.5294,2.5294,0,0,0-1.95314.86451l-.032-.73643h-1.665v7.36429h1.697V19.08313a1.91656,1.91656,0,0,1,2.0492-1.98516,2.9073,2.9073,0,0,1,.73643.09605l.12808.032V15.65713l-.064-.032A3.0317,3.0317,0,0,0,62.11622,15.497Z"/>
    <path class="cls-1" d="M67.3993,15.465a3.68354,3.68354,0,0,0-3.81022,3.81022,3.85683,3.85683,0,0,0,7.42833,1.40882l.032-.12807H69.22436l-.032.064a2.09073,2.09073,0,0,1-1.82506.89652,2.00986,2.00986,0,0,1-2.0492-1.633H71.1775v-.09605a4.24158,4.24158,0,0,0-.96056-3.16985A3.745,3.745,0,0,0,67.3993,15.465Zm-2.01718,3.07379a2.13974,2.13974,0,0,1,4.06637,0Z"/>
    <path class="cls-1" d="M19.88359,23.21353a3.21128,3.21128,0,0,1-3.20187-3.20187h0V3.32994a3.20187,3.20187,0,1,1,6.40373,0h0V20.01167a3.21128,3.21128,0,0,1-3.20187,3.20187Z"/>
    <path class="cls-1" d="M3.394,23.05344A3.21128,3.21128,0,0,1,.19211,19.85157a3.30663,3.30663,0,0,1,.92854-2.27333L17.61027,1.08863A3.19233,3.19233,0,0,1,22.1249,5.60327h0L5.63529,22.09288A3.12655,3.12655,0,0,1,3.394,23.05344Z"/>
    <path class="cls-1" d="M19.88359,6.56383H3.20187a3.20187,3.20187,0,1,1,0-6.40373H19.88359a3.20187,3.20187,0,0,1,0,6.40373Z"/>
  </g>
</svg>
