<svg id="Layer_1" data-name="Layer 1" xmlns="http://www.w3.org/2000/svg" viewBox="0 0 90 23.2">
  <defs>
    <style>
      .cls-1 {
        fill: #fff;
      }
    </style>
  </defs>
  <title>rtf-09</title>
  <g>
    <path class="cls-1" d="M34.96438,3.67538A3.08,3.08,0,0,0,31.66646.53755H28.14441v9.66963h1.761V2.26656h1.697a1.41271,1.41271,0,0,1,1.5369,1.47286,1.35389,1.35389,0,0,1-1.47286,1.44084h-1.633v.89652l3.23389,4.13041h2.01718V9.919L32.595,6.6211A2.92771,2.92771,0,0,0,34.96438,3.67538Z"/>
    <path class="cls-1" d="M43.35328,7.83781H41.52821l-.032.032a2.09074,2.09074,0,0,1-1.82506.89652,2.00986,2.00986,0,0,1-2.04919-1.633h5.85942V7.03734a4.24158,4.24158,0,0,0-.96056-3.16985,3.81512,3.81512,0,0,0-2.84966-1.15267A3.68354,3.68354,0,0,0,35.86091,6.525a3.85682,3.85682,0,0,0,7.42833,1.40882ZM37.686,5.78861a2.13974,2.13974,0,0,1,4.06637,0Z"/>
    <path class="cls-1" d="M48.12406,10.33526a3.52556,3.52556,0,0,0,2.4014-.86451l.032.70441h1.60093V2.81087H50.55748l-.032.70441a3.65849,3.65849,0,0,0-2.4014-.83249A3.61731,3.61731,0,0,0,44.44191,6.493,3.64436,3.64436,0,0,0,48.12406,10.33526ZM46.17092,6.525a2.1775,2.1775,0,1,1,4.35454,0,2.1775,2.1775,0,1,1-4.35454,0Z"/>
    <rect class="cls-1" x="54.17558" y="0.56957" width="1.69699" height="9.66964"/>
    <polygon class="cls-1" points="59.811 10.207 61.604 10.207 61.604 2.235 64.293 2.235 64.293 0.57 57.153 0.57 57.153 2.235 59.811 2.235 59.811 10.207"/>
    <rect class="cls-1" x="65.54221" y="2.84289" width="1.69699" height="7.36429"/>
    <path class="cls-1" d="M66.3747,2.23454a1.10758,1.10758,0,0,0,1.15267-1.05661v-.064A1.12114,1.12114,0,0,0,66.3747-.00677,1.13446,1.13446,0,0,0,65.254,1.11389a1.07965,1.07965,0,0,0,1.08864,1.08863A.03136.03136,0,0,0,66.3747,2.23454Z"/>
    <path class="cls-1" d="M78.06151,2.74684A3.47943,3.47943,0,0,0,75.436,3.93154,2.64725,2.64725,0,0,0,73.0666,2.74684a2.99969,2.99969,0,0,0-2.14525.86451V2.87492h-1.665v7.36429h1.697V6.17284a1.72311,1.72311,0,0,1,1.82506-1.85708c1.0246,0,1.50488.60835,1.50488,1.85708v4.03434h1.697V6.14081a1.70732,1.70732,0,0,1,1.82506-1.85708c1.0246,0,1.50488.60835,1.50488,1.85708v4.06637h1.697V6.07678C81.00723,3.93153,79.95062,2.74684,78.06151,2.74684Z"/>
    <path class="cls-1" d="M89.04391,3.86749a3.81512,3.81512,0,0,0-2.84966-1.15267A3.68354,3.68354,0,0,0,82.384,6.525a3.85682,3.85682,0,0,0,7.42833,1.40882l.032-.12807H88.01932l-.032.032a2.09073,2.09073,0,0,1-1.82506.89652,2.00986,2.00986,0,0,1-2.04919-1.633h5.85942V7.00532A3.94217,3.94217,0,0,0,89.04391,3.86749ZM84.17708,5.78861a2.13974,2.13974,0,0,1,4.06637,0Z"/>
    <polygon class="cls-1" points="28.112 22.951 29.905 22.951 29.905 19.108 33.556 19.108 33.556 17.411 29.905 17.411 29.905 15.01 33.908 15.01 33.908 13.313 28.112 13.313 28.112 22.951"/>
    <path class="cls-1" d="M40.53563,19.65269a1.78342,1.78342,0,0,1-1.95314,1.8891c-1.08863,0-1.633-.64037-1.633-1.85708V15.61834h-1.697v4.13041c0,2.11323,1.08863,3.32994,2.97774,3.32994a3.2383,3.2383,0,0,0,2.30534-.86451v.73643h1.665V15.58631h-1.665v4.06638Z"/>
    <path class="cls-1" d="M47.54772,21.47776c-.8645,0-1.18469-.28817-1.18469-1.08863V17.05919h1.85708V15.61835H46.363V13.79328l-1.697.19211v1.633H43.25722v1.44084H44.666v3.52205c0,1.633.89652,2.46544,2.62553,2.46544.32019,0,.64037-.032.96056-.064h.09606V21.41372l-.12807.032C47.996,21.44574,47.77185,21.47776,47.54772,21.47776Z"/>
    <path class="cls-1" d="M54.88,19.65269a1.78342,1.78342,0,0,1-1.95314,1.8891c-1.08864,0-1.633-.64037-1.633-1.85708V15.61834h-1.697v4.13041c0,2.11323,1.08864,3.32994,2.97774,3.32994A3.2383,3.2383,0,0,0,54.88,22.21418v.73643h1.665V15.58631H54.848l.032,4.06638Z"/>
    <path class="cls-1" d="M62.11622,15.49027a2.5294,2.5294,0,0,0-1.95314.86451l-.032-.73643h-1.665v7.36429h1.697V19.07636a1.91656,1.91656,0,0,1,2.0492-1.98516,2.9073,2.9073,0,0,1,.73643.09605l.12808.032V15.65036l-.064-.032A3.0317,3.0317,0,0,0,62.11622,15.49027Z"/>
    <path class="cls-1" d="M67.3993,15.45825a3.68354,3.68354,0,0,0-3.81022,3.81022,3.85683,3.85683,0,0,0,7.42833,1.40882l.032-.12807H69.22436l-.032.064a2.09073,2.09073,0,0,1-1.82506.89652,2.00986,2.00986,0,0,1-2.0492-1.633H71.1775v-.09605a4.24158,4.24158,0,0,0-.96056-3.16985A3.745,3.745,0,0,0,67.3993,15.45825ZM65.38212,18.532a2.13974,2.13974,0,0,1,4.06637,0Z"/>
    <path class="cls-1" d="M19.88359,23.20677a3.21128,3.21128,0,0,1-3.20187-3.20187h0V3.32317a3.20187,3.20187,0,1,1,6.40373,0h0V20.0049a3.21128,3.21128,0,0,1-3.20187,3.20187Z"/>
    <path class="cls-1" d="M3.394,23.04667A3.21128,3.21128,0,0,1,.19211,19.84481a3.30663,3.30663,0,0,1,.92854-2.27333L17.61027,1.08187A3.19233,3.19233,0,0,1,22.1249,5.5965h0L5.63529,22.08611A3.12655,3.12655,0,0,1,3.394,23.04667Z"/>
    <path class="cls-1" d="M19.88359,6.55706H3.20187a3.20187,3.20187,0,0,1,0-6.40373H19.88359a3.20187,3.20187,0,0,1,0,6.40373Z"/>
  </g>
</svg>
