<svg id="Layer_1" data-name="Layer 1" xmlns="http://www.w3.org/2000/svg" viewBox="0 0 57 33.61926">
  <defs>
    <style>
      .cls-1 {
        fill: #a72278;
      }
    </style>
  </defs>
  <title>soulpp</title>
  <g>
    <path class="cls-1" d="M55.5292,30.50836q.00123-13.38783.00257-26.65091a2.99938,2.99938,0,0,0-1.4702.01986,4.48815,4.48815,0,0,1-.006.72863,2.21173,2.21173,0,0,1-1.41791,1.69173,3.53086,3.53086,0,0,1-1.59093.30527c-.41322-.01615-.43234-.01051-.56571.37879q-.37339,1.09-.70422,2.19432a.92233.92233,0,0,1-.60891.73249.67748.67748,0,0,1-.16166.00169.74093.74093,0,0,1,.00228-.19309.86012.86012,0,0,0-.21958-.85994,1.647,1.647,0,0,0-.356-.32458A6.19088,6.19088,0,0,0,44.99744,7.487a1.04,1.04,0,0,0-.87944.31042c-.03207.039-.1065.04315-.17063.06689a.73327.73327,0,0,1-.07744-.51764c.07457-.36448.14349-.73019.22353-1.09346.12263-.55664.25458-1.11122.37795-1.6677a3.12552,3.12552,0,0,0,.03813-.33077,3.20878,3.20878,0,0,0-.48543-.36464,1.16068,1.16068,0,0,0-.496-.10486c-1.49025-.00772-2.98058-.00477-4.47088-.00471q-18.47974.00081-36.95948.001c-.703,0-.67046-.03411-.67091.673Q1.42218,11.608,1.42519,18.76147q.00014,5.64452.00218,11.289c.00008.14321.0214.28641.03511.45841.157.0077.27778.01877.39854.0188q7.26522.00142,14.53044.001c.03726,0,.07452-.00014.11177,0,.40742.00176.42812.02023.43054.41216.00206.333.00043.66593.00043.9612-.05066.04481-.05955.05358-.06939.06112-.00965.00739-.01981.01846-.03053.01944-.09819.009-.19656.023-.29487.023q-8.17779-.00186-16.35558-.0075a.648.648,0,0,1-.14666-.04863,3.59175,3.59175,0,0,1-.0367-.37442q-.00194-5.7004.00053-11.4008Q.00109,11.53053.00077,2.88678c0-.1572.016-.31441.0263-.50492.16217-.01291.29367-.03248.42517-.03251q6.46418-.0017,12.92837.00007,14.66085.00153,29.32169.00236c.122,0,.244-.01032.38461-.01667a1.528,1.528,0,0,0,.05192-.26474A1.68184,1.68184,0,0,1,44.54009.38813a4.687,4.687,0,0,1,1.334-.031.86982.86982,0,0,0,.39535-.03376,5.015,5.015,0,0,1,2.6019-.262A4.05018,4.05018,0,0,1,51.2532,1.26748a2.81327,2.81327,0,0,1,.42917.64684.61185.61185,0,0,0,.50247.38647c.1725.01426.34452.04854.51684.049,1.29158.00378,2.58318.00076,3.87477.00194.11956.00011.2391.01457.31909.01979.04538.04936.055.0577.06186.06787a.08591.08591,0,0,1,.0158.03336,1.30007,1.30007,0,0,1,.02251.183q.00348,14.549.00428,29.09808a.42865.42865,0,0,1-.01637.10981.71039.71039,0,0,1-.06011.10793c-.11464.00953-.25738.03171-.40013.03177q-6.35242.00282-12.70482.00159-1.58344,0-3.16688-.00022h-.37881a1.14233,1.14233,0,0,1-.08222-.26605c-.00951-.29776-.01282-.59621-.00349-.89393.00758-.24219.07546-.30331.31676-.3146.14871-.007.298-.00144.447-.00143q7.09737.00042,14.19473.0001C55.25387,30.52878,55.36206,30.51759,55.5292,30.50836ZM47.40553,6.40245l.0342-.08655a.67514.67514,0,0,1,.25155.00449,11.01838,11.01838,0,0,1,1.06911.51014,8.89457,8.89457,0,0,1,.81289.60072c.08234-.25161.1492-.45822.21751-.66434a.97957.97957,0,0,0-.33838-1.13483,3.666,3.666,0,0,0-1.469-.77068,4.97131,4.97131,0,0,1-.49454-.18372,8.167,8.167,0,0,0,1.128-.53511,7.5804,7.5804,0,0,0,.8797-.81972,1.36633,1.36633,0,0,1,.01526.247c-.03236.22084-.08945.43894-.109.66057a.68032.68032,0,0,0,.48475.74547.65591.65591,0,0,0,.75471-.24864c.05523-.0663.091-.14937.149-.21268a1.74528,1.74528,0,0,1,.21377-.16732c.08762.42377-.17465.72286-.24136,1.08927.4502.09486.64541-.30985.95675-.465.08152.33395-.22814.48761-.30154.72151.06563.16009.17631.15156.2887.1183a3.95617,3.95617,0,0,0,.49466-.16246A1.49611,1.49611,0,0,0,53.13193,4.48a1.33311,1.33311,0,0,0-.65713-1.324c-.37754-.29038-.564-.24194-.82906.16287a.47767.47767,0,0,1-.43646.29483c-.0031-.1305-.00019-.24925-.0098-.367a1.88973,1.88973,0,0,0-.32881-1.08218A3.45026,3.45026,0,0,0,47.4581.88261a1.47091,1.47091,0,0,0-1.29282,1.66781c.00324.0276-.02944.05942-.04526.08907-.36582-.18461-.48945-.55684-.50252-1.48759a1.33639,1.33639,0,0,0-1.6464.55057,1.01684,1.01684,0,0,0-.07416,1.0903,3.04276,3.04276,0,0,0,1.72428,1.49909.993.993,0,0,1,.4562.26138,2.68391,2.68391,0,0,1-.37959.03548.36579.36579,0,0,0-.40346.25419c-.25477.61942-.51923,1.23486-.77142,1.8553a1.1907,1.1907,0,0,0-.04129.29992,7.05055,7.05055,0,0,1,.99687-.00985,8.913,8.913,0,0,1,1.94892.45489,4.09992,4.09992,0,0,1,1.53778.80509c.039.0382.12448.029.199.0439.0042-.06848.01883-.10914.00673-.139a2.57443,2.57443,0,0,0-1.02317-1.287C47.89948,6.71311,47.65291,6.55713,47.40553,6.40245Z"/>
    <path class="cls-1" d="M23.575,11.014a4.85427,4.85427,0,0,1-.74163,2.728,5.10024,5.10024,0,0,1-3.17683,2.34435,5.79082,5.79082,0,0,1-2.54548.11718,5.06344,5.06344,0,0,1-3.53387-2.18538,5.287,5.287,0,0,1-.40256-5.32139,4.99731,4.99731,0,0,1,3.12824-2.73316A5.79919,5.79919,0,0,1,18.9497,5.7314a5.28352,5.28352,0,0,1,4.57955,4.39145A6.64065,6.64065,0,0,1,23.575,11.014ZM18.11772,7.8547a2.31975,2.31975,0,0,0-.90469.13846,2.68078,2.68078,0,0,0-1.329.9089,3.32319,3.32319,0,0,0-.66145,2.63191,2.85715,2.85715,0,0,0,1.231,2.0478,2.89451,2.89451,0,0,0,2.63.35674,2.8124,2.8124,0,0,0,1.73181-1.63406,3.42813,3.42813,0,0,0,.17974-2.14817A2.97536,2.97536,0,0,0,18.11772,7.8547Z"/>
    <path class="cls-1" d="M48.23391,24.39778c-.00325.44018-.00771.87043-.00925,1.30068-.00156.43432-.0002.86865-.00017,1.303,0,.43215,0,.86431,0,1.28136a8.51192,8.51192,0,0,1-2.26914.03767.212.212,0,0,1-.02679-.027.113.113,0,0,1-.01516-.0335.27625.27625,0,0,1-.0167-.07164q-.00317-4.87676-.00417-9.75352c0-.04877.00952-.09754.01828-.18158a.93511.93511,0,0,1,.26123-.07965c1.14057-.00705,2.28139-.01934,3.42171-.00188a6.7515,6.7515,0,0,1,1.40121.13753,2.64071,2.64071,0,0,1,1.85592,1.533,3.77731,3.77731,0,0,1,.23347,2.00312,2.6724,2.6724,0,0,1-.92893,1.80083,1.58415,1.58415,0,0,1-.73836.41135,1.02115,1.02115,0,0,0-.21715.10489.82173.82173,0,0,0,.047.24866c.2798.49584.56745.98726.85456,1.479q.68363,1.1708,1.36831,2.341c.01038.01781.0013.04695.0013.09731a1.30631,1.30631,0,0,1-.23624.04368c-.65767.00363-1.31556-.0068-1.973.00655a.50707.50707,0,0,1-.49245-.32066q-.92767-1.71737-1.85868-3.43292C48.74443,24.31882,48.70284,24.30505,48.23391,24.39778Zm-.009-1.75858a5.65366,5.65366,0,0,0,1.51108.02337,1.27329,1.27329,0,0,0,1.01806-1.39538,1.166,1.166,0,0,0-1.12708-1.2c-.39341-.03625-.79073-.03161-1.1864-.04a.99424.99424,0,0,0-.216.05438C48.22268,20.93384,48.22374,21.78068,48.22491,22.6392Z"/>
    <path class="cls-1" d="M24.89591,5.92312a11.111,11.111,0,0,1,2.35188-.00672c.01108.14169.0336.297.03379.4524.00217,1.8498-.00646,3.69967.00745,5.54937a4.761,4.761,0,0,0,.14784,1.02517,1.4317,1.4317,0,0,0,.74471.97383,1.38254,1.38254,0,0,0,.62861.20342c.21082.0052.42191.00047.63268.00678a1.61072,1.61072,0,0,0,1.4868-1.236,5.44836,5.44836,0,0,0,.13514-1.17757c-.00671-1.78771-.00353-3.57545-.00391-5.36319,0-.13416,0-.26832,0-.40584a1.173,1.173,0,0,1,.23874-.0832,11.38789,11.38789,0,0,1,2.14219.0672,2.8828,2.8828,0,0,1,.031.30787c.00183,1.98637.0087,3.97278-.00295,5.95908a4.27277,4.27277,0,0,1-.49217,2.078A3.71369,3.71369,0,0,1,30.63353,16.092a5.45709,5.45709,0,0,1-2.39766.11794,3.73576,3.73576,0,0,1-3.33445-3.62211c-.06074-1.0146-.02382-2.03517-.02679-3.05306q-.00469-1.6015-.0004-3.203C24.87442,6.19822,24.88806,6.06471,24.89591,5.92312Z"/>
    <path class="cls-1" d="M14.84866,20.21926v1.95027c.12993.16655.2999.13478.4574.13507,1.06745.002,2.13489.00048,3.20234.00213.13292.0002.26581.01234.4413.02107a15.08638,15.08638,0,0,1,.01129,1.92288c-.19541.009-.32843.02023-.46147.0204-1.055.00143-2.11008-.00122-3.1651.00289-.15485.0006-.30958.03025-.49793.05-.00063.67989-.004,1.31852.00271,1.991.17613.01644.30707.03893.43807.03926,1.055.00268,2.11006.0012,3.1651.001.07447,0,.149-.00184.22341,0,.3408.00836.38873.0515.39153.38851.00423.507.0011,1.014.0011,1.56231a2.14291,2.14291,0,0,1-.36614.06732q-2.923.00592-5.8461.00119a2.0467,2.0467,0,0,1-.28287-.04349c-.01031-.13047-.028-.25007-.028-.36968q-.00164-4.69179.00058-9.38359c.00016-.38388.03291-.39828.43362-.39834,1.37726-.0002,2.75452-.01057,4.13178-.01592.5213-.002,1.04263-.00386,1.56391-.00026.33469.00231.3897.059.39159.38838.00242.422.00307.844-.0006,1.266-.00308.35376-.05122.40157-.41658.40218q-1.67563.00278-3.35128-.00047C15.15524,20.21921,15.02219,20.21926,14.84866,20.21926Z"/>
    <path class="cls-1" d="M44.19149,18.23424V20.1815c-.14616.01366-.27564.03594-.40518.03628q-1.65778.00439-3.31554.002c-.12162,0-.24325,0-.39249,0a2.55761,2.55761,0,0,0-.04437.314q-.00622.68913-.00126,1.37835c.00193.33352.05468.3926.38727.39348,1.10518.003,2.21037-.00117,3.31555-.0007.13351.00005.267.01157.43233.01925.06816.642.022,1.255.02914,1.90262a2.87416,2.87416,0,0,1-.34769.04455c-1.16716-.00058-2.33432-.00576-3.50148-.00775-.08315-.00014-.1663.01511-.28414.02659-.06034.66734-.026,1.31819-.01986,2.01266a4.13879,4.13879,0,0,0,.44205.0495c1.09275.00421,2.18553.00176,3.27829.00417.13216.00029.26427.01724.384.02561a8.62391,8.62391,0,0,1,.01765,1.95779,2.499,2.499,0,0,1-.30553.03549q-2.88713.00255-5.77427-.0016a3.23435,3.23435,0,0,1-.33995-.03713,2.68464,2.68464,0,0,1-.039-.313q-.0025-4.74981-.00026-9.49962c.00012-.29372.04972-.34137.30227-.3422,1.35284-.00448,2.70568-.01388,4.05852-.01507.61992-.00055,1.2399.01235,1.85978.02315A1.86949,1.86949,0,0,1,44.19149,18.23424Z"/>
    <path class="cls-1" d="M3.64374,15.20967a8.219,8.219,0,0,1,1.17708-1.97782c.21.10307.429.21047.64785.31807a4.82335,4.82335,0,0,0,2.43253.57348,1.76857,1.76857,0,0,0,.80707-.2504.84251.84251,0,0,0,.33251-.97717,1.41537,1.41537,0,0,0-.76516-.77164,9.91355,9.91355,0,0,0-.95266-.42042,9.16355,9.16355,0,0,1-1.73309-.84949A2.7055,2.7055,0,0,1,4.4,7.85152a2.478,2.478,0,0,1,.98668-1.39761A3.73117,3.73117,0,0,1,7.08833,5.756a7.33594,7.33594,0,0,1,1.70541-.02181,5.80265,5.80265,0,0,1,1.95559.55824c.14472.07028.28672.14655.42717.22508.12655.07075.18154.177.09836.3095q-.5029.80124-1.01548,1.59638c-.0107.01668-.04431.01868-.09282.03739-.05866-.03039-.13427-.06678-.20727-.1078a3.32969,3.32969,0,0,0-2.34677-.49867,1.52882,1.52882,0,0,0-.5127.20261.68675.68675,0,0,0-.11744,1.06492,1.386,1.386,0,0,0,.4133.30788c.63228.28519,1.27285.552,1.911.82411a4.2345,4.2345,0,0,1,1.60842,1.11071,2.81375,2.81375,0,0,1-.18311,3.89712,3.95026,3.95026,0,0,1-1.53284.81158,6.69685,6.69685,0,0,1-2.28523.16969,7.36664,7.36664,0,0,1-2.43668-.61458C4.19412,15.51022,3.92712,15.3534,3.64374,15.20967Z"/>
    <path class="cls-1" d="M31.55465,28.292a7.99353,7.99353,0,0,1-2.267.01123.28708.28708,0,0,1-.02413-.02832.09341.09341,0,0,1-.01592-.03309.8581.8581,0,0,1-.02172-.146q-.001-4.84347.00113-9.68694a1.03494,1.03494,0,0,1,.03281-.15723,1.9039,1.9039,0,0,1,.39841-.08424c1.13011-.00684,2.26071-.02193,3.39027.00429a4.09774,4.09774,0,0,1,1.90071.457,2.69222,2.69222,0,0,1,1.39889,1.836,3.42928,3.42928,0,0,1-.30165,2.49432,2.91108,2.91108,0,0,1-1.6698,1.39674,4.79422,4.79422,0,0,1-1.75093.26427c-.1859-.00817-.37252.0004-.5588,0-.51261-.00112-.493-.00167-.486.49471.01423,1.00575.00537,2.01183.00419,3.01778A.93013.93013,0,0,1,31.55465,28.292Zm.01119-5.59682a.82494.82494,0,0,0,.21458.06728,4.24968,4.24968,0,0,0,1.21568-.0954,1.29184,1.29184,0,0,0,.96877-1.3631A1.1883,1.1883,0,0,0,32.887,20.08641a9.45254,9.45254,0,0,0-1.0365-.05809,1.09667,1.09667,0,0,0-.28467.06411Z"/>
    <path class="cls-1" d="M6.38434,24.65058a8.55173,8.55173,0,0,0-.03289,1.24378c-.00779.39689-.00167.794-.00167,1.19108v1.24123a2.5792,2.5792,0,0,1-.32126.04766c-.55817.00653-1.11641.00818-1.67462.00957-.25036.00062-.305-.05156-.31921-.29774-.00357-.06182-.00019-.124-.00019-.18608q.00053-4.597.001-9.19392c0-.04963-.00083-.09927,0-.14889.0056-.3369.0532-.39327.38588-.394,1.11666-.00244,2.23354-.01124,3.34994.00665a4.00174,4.00174,0,0,1,2.19722.59185A2.81156,2.81156,0,0,1,11.17742,20.605a3.59832,3.59832,0,0,1-.15222,1.97141A2.78164,2.78164,0,0,1,9.786,24.055a3.83936,3.83936,0,0,1-2.12542.56618c-.3101-.00519-.62039-.00337-.93053.00026C6.6226,24.6227,6.51529,24.639,6.38434,24.65058Zm-.03391-4.554c0,.26071.00031.49418-.00006.72766-.00088.54464-.00081,1.08928-.004,1.63391-.00087.14905.02462.29076.20064.29945a2.87967,2.87967,0,0,0,1.52529-.20474,1.05528,1.05528,0,0,0,.65857-1.02818c-.00433-.08642.00112-.17329-.00035-.25991A1.1355,1.1355,0,0,0,7.7179,20.09066a9.91169,9.91169,0,0,0-1.07257-.05992A1.28089,1.28089,0,0,0,6.35043,20.0966Z"/>
    <path class="cls-1" d="M20.84789,18.19412c.09466-.00875.21379-.02906.333-.02933,1.06771-.00246,2.13551-.0088,3.20312.00187a5.0233,5.0233,0,0,1,1.50286.22087,2.82741,2.82741,0,0,1,2.04538,2.64537,3.438,3.438,0,0,1-.35059,1.87778,3.03061,3.03061,0,0,1-1.7167,1.44673,4.41647,4.41647,0,0,1-1.74907.26365c-.3196-.01172-.64-.00207-.99615-.00207-.012.173-.02873.304-.029.435-.00217.956,0,1.912-.00214,2.86794-.0003.13191-.01654.26378-.02757.4279-.76066.048-1.48616.01887-2.17682.02228-.04344-.04557-.0527-.054-.06038-.06369-.0075-.00947-.01851-.01988-.01923-.03046-.00917-.1354-.02385-.27091-.02372-.40639q.0045-4.78539.0134-9.57076C20.79426,18.27887,20.81546,18.257,20.84789,18.19412Zm2.24234,1.88382c.0036.87885-.00723,1.74141.00319,2.591a.71425.71425,0,0,0,.17283.08244,3.282,3.282,0,0,0,1.32549-.10714,1.19305,1.19305,0,0,0,.71182-.56505,1.33145,1.33145,0,0,0-.67413-1.93819,2.21372,2.21372,0,0,0-.58406-.10271A2.97063,2.97063,0,0,0,23.09023,20.07794Z"/>
    <path class="cls-1" d="M49.45422,14.10355a3.756,3.756,0,0,0,.27792.37352c.34974.36936.71009.72862,1.06339,1.09464.0722.0748.13144.1621.22944.28464a1.53025,1.53025,0,0,1-.29189.07176c-.571.0041-1.142-.0021-1.71293.00215a.53268.53268,0,0,1-.42655-.18279c-.19076-.20812-.39478-.40409-.60641-.61859-.2167.12653-.4114.231-.59677.35006a4.05382,4.05382,0,0,1-2.5968.5887,2.62938,2.62938,0,0,1-2.03888-1.212,2.1869,2.1869,0,0,1,.21714-2.46934,3.67022,3.67022,0,0,1,1.16068-.85161c.11118-.04688.21642-.10784.33786-.16911a5.92316,5.92316,0,0,1-.52773-.69317,1.9345,1.9345,0,0,1,.01844-2.11209.95153.95153,0,0,1,.6348-.4124,3.24076,3.24076,0,0,1,1.06758-.014,6.45854,6.45854,0,0,1,1.85631.51067,2.86241,2.86241,0,0,1,.911.63275.76649.76649,0,0,1,.15813.88861,2.34141,2.34141,0,0,1-.80445,1.04925c-.22475.17183-.45872.3316-.72411.52235A11.41232,11.41232,0,0,0,48.16171,12.885c.46438-.2716.69138-.73392,1.04128-1.09379a1.76357,1.76357,0,0,1,.23757.14818c.26861.23915.53689.4791.79572.72868.21116.20361.20929.25186.00837.49646C50.00147,13.4606,49.75154,13.75106,49.45422,14.10355Zm-3.9304-1.59681a1.54955,1.54955,0,0,0-.72308.527.74333.74333,0,0,0-.14595.79425.68913.68913,0,0,0,.69283.45993,3.84932,3.84932,0,0,0,.55441-.02132,1.16105,1.16105,0,0,0,.81792-.48367Zm1.43529-2.859a.62861.62861,0,0,0-.53821-.6542.78405.78405,0,0,0-.77812.24275.59774.59774,0,0,0-.06166.75592c.04893.08592.08841.17748.14068.26118.28187.45134.43662.47753.83762.1194A.99243.99243,0,0,0,46.95912,9.64773Z"/>
    <path class="cls-1" d="M35.21058,5.87928c.78174-.0394,1.53058-.02432,2.31993-.00776a4.48728,4.48728,0,0,1,.04686.45025q.00419,2.73542.00135,5.47085c0,.62028-.00133,1.24056.00189,1.86082.00062.11908.01953.23807.03231.3833.15556.00854.27656.02067.39758.02093q1.13511.00237,2.27023.00034c.08683,0,.17376-.00257.26045.00095.12827.00521.2224.06889.22369.20056.0057.58026.00247,1.16061.00247,1.75616a1.39,1.39,0,0,1-.27321.062q-2.53072.0045-5.06144.00041a1.47536,1.47536,0,0,1-.21822-.03839,3.312,3.312,0,0,1-.03724-.35493q-.00233-4.70792.00119-9.41583C35.1785,6.14946,35.19764,6.03,35.21058,5.87928Z"/>
    <path class="cls-1" d="M26.60112,31.74558c.13556-.204.25973-.417.41042-.6091a2.41871,2.41871,0,0,1,.39292-.38418.28017.28017,0,0,1,.34771.009.29186.29186,0,0,1,.12757.32523c-.04.1809-.10658.3558-.15021.53606-.096.39679-.19288.79371-.27307,1.19385-.0387.19314-.01355.23617.10879.48493.06786-.052.15377-.08689.18846-.14994a6.77558,6.77558,0,0,0,.39859-.79521,3.6724,3.6724,0,0,1,.66561-1.19526,1.85245,1.85245,0,0,1,.56324-.41013.4129.4129,0,0,1,.61281.38957c.00183.02441-.01263.05515-.00234.07306.28976.50428-.04608.95681-.12167,1.42915-.03463.2164-.12626.42769.04.62015.18413.02857.26688-.08494.33482-.20342A4.49936,4.49936,0,0,0,30.8626,31.054c.00535-.09514.0234-.18957.0343-.27445.39811-.07855.49746-.00094.47435.34433a.8266.8266,0,0,0,.02064.344c.08888-.11147.1744-.22583.26739-.33375.15232-.17678.30262-.35623.46723-.52112a.2406.2406,0,0,1,.33938-.0167.33176.33176,0,0,1,.16682.34744c-.04289.1672-.10326.33012-.15976.4936-.14949.43262-.30718.86255-.44751,1.2981a.88222.88222,0,0,0-.02446.36678c.00859.07064.0816.13345.15552.24478a3.4988,3.4988,0,0,0,.28162-.33494,4.0608,4.0608,0,0,0,.58408-1.97412c.00784-.12738-.0053-.25772.151-.3009a.29811.29811,0,0,1,.35792.129.52249.52249,0,0,1,.02709.2791c-.009.1256-.1101.243-.02589.44249.11128-.17208.18695-.30955.28227-.43168a6.712,6.712,0,0,1,.4551-.5324.28508.28508,0,0,1,.3762-.03422.31124.31124,0,0,1,.16951.34292,3.54891,3.54891,0,0,1-.14521.45808c-.1462.42094-.3096.83669-.43578,1.26348a.81121.81121,0,0,0,.05706.68093,1.155,1.155,0,0,0,.22429-.18951,2.48362,2.48362,0,0,0,.41522-.86506,2.295,2.295,0,0,1,.71123-1.32033,1.93442,1.93442,0,0,1,.37482-.23148.303.303,0,0,1,.37266.07622.33058.33058,0,0,1,.09006.37363,1.72059,1.72059,0,0,1-.67444.90959c-.14086.09144-.28191.17647-.28607.35924a2.559,2.559,0,0,0,.02907.69335c.05966.22821.29254.2823.52.15275a1.52717,1.52717,0,0,0,.74943-1.05886c.12-.55754.24258-1.11452.35985-1.67262.06346-.30193.11819-.6057.17962-.923a.3792.3792,0,0,1,.50138.01466.38873.38873,0,0,1,.09066.473c-.19083.62917-.38646,1.25759-.54989,1.89409a7.62918,7.62918,0,0,0-.14388.99027.26079.26079,0,0,0,.11774.30457c.35341-.23777.405-.70355.73546-1.07411.02533.16577.07091.25868.04263.31346-.14692.28459-.30838.56208-.47529.83563a.4477.4477,0,0,1-.17516.13424c-.32893.17544-.516.11137-.68558-.22822-.02142-.04288-.04422-.08508-.08-.1538-.16243.106-.3086.2117-.46426.30089a.89653.89653,0,0,1-1.26231-.27167c-.01344-.01827-.03938-.02735-.0942-.06377a2.44126,2.44126,0,0,0-.18215.19231.62508.62508,0,0,1-.43161.26329.44986.44986,0,0,1-.5455-.33294,1.17732,1.17732,0,0,1-.03567-.69517c.06472-.27575.11973-.55377.19823-.921a1.60788,1.60788,0,0,0-.19968.23756c-.173.35584-.34616.712-.5027,1.07526-.07543.175-.161.31818-.37349.2899a.476.476,0,0,0-.42467.17689.49484.49484,0,0,1-.53991.15889.53973.53973,0,0,1-.34416-.49244,2.95783,2.95783,0,0,1,.03794-.6256c.02487-.19331.07361-.38354.12186-.6254a.57721.57721,0,0,0-.3401.32943c-.11144.24866-.23141.49476-.32235.751-.07476.21063-.17473.35837-.42223.32589a.38413.38413,0,0,0-.34983.1699.51166.51166,0,0,1-.42429.19408.39111.39111,0,0,1-.36187-.21881c-.05855-.12037-.1129-.2428-.19149-.4127-.13758.13972-.25427.25891-.37171.37735-.3024.305-.37019.30375-.69653-.00026a1.11,1.11,0,0,0-.16337-.10409c-.09683.09233-.1793.18393-.27457.25937a.44589.44589,0,0,1-.74025-.15272,1.15466,1.15466,0,0,1-.10231-.79463c.03147-.17942.04-.36285.05884-.54449l-.07076-.02811a1.14125,1.14125,0,0,0-.1646.21367c-.15245.33908-.29286.68355-.44,1.025-.05165.11988-.11.2369-.15572.33484-.27448.02413-.262-.19708-.37542-.33095a1.62616,1.62616,0,0,0-.17115.11282,1.10925,1.10925,0,0,1-.8661.24921.69677.69677,0,0,1-.66675-.546,1.79922,1.79922,0,0,1,.09194-1.095,1.95875,1.95875,0,0,1,.60457-.96628,1.57187,1.57187,0,0,1,.44779-.25276.49635.49635,0,0,1,.52584.26539.37083.37083,0,0,1-.09493.469.21246.21246,0,0,1-.09985.04385.509.509,0,0,1-.12642-.01862v-.37086c-.11979-.11978-.22247-.05993-.28455.0641a6.09317,6.09317,0,0,0-.365.81245,5.92489,5.92489,0,0,0-.15891.80089.51157.51157,0,0,0,.00266.14836c.0508.4255.31623.54608.67562.30847a1.49869,1.49869,0,0,0,.63711-1.01034c.14852-.74129.28973-1.484.43345-2.22628.02357-.12169.04609-.24364.06607-.366.03814-.23361.1138-.30916.29328-.2884a.33863.33863,0,0,1,.33189.37039,1.91672,1.91672,0,0,1-.08274.36079c-.1407.48845-.28562.9757-.426,1.46423a1.05041,1.05041,0,0,0-.02034.17767Zm2.08511,1.42512a.51943.51943,0,0,0,.33491-.34215c.20971-.52721.40828-1.059.601-1.59262.01763-.0488-.036-.12336-.05806-.19043-.3086.161-.58172.61224-.81945,1.41486C28.681,32.67534,28.54,32.9109,28.68623,33.1707Zm7.49737-2.12937a.84178.84178,0,0,0-.40889.70373,1.07392,1.07392,0,0,0,.4058-.49443A.719.719,0,0,0,36.18361,31.04134Z"/>
    <path class="cls-1" d="M20.09657,30.2715c-.20145-.15577-.60765.08185-.68959-.38036a2.12257,2.12257,0,0,1,.29376-.03552c.09835.00184.19581.03256.29447.04.2289.01724.28477-.02831.32572-.2501.04854-.26291.1-.32227.26951-.311a.34166.34166,0,0,1,.3524.346c.00622.05957.01081.11931.01754.19461l.62146.15867c-.25307.2302-.54139.05479-.77664.24713-.155.57641-.31,1.19948-.49306,1.81421a2.70627,2.70627,0,0,0-.13021.91381,1.77806,1.77806,0,0,0,.03933.23076c.19.07917.243-.05142.31322-.15A2.48192,2.48192,0,0,0,20.9426,31.758c.01448-.23469-.0006-.47112.00068-.70674.00123-.22542.10105-.34509.28934-.3535a.29889.29889,0,0,1,.31869.32949,3.65537,3.65537,0,0,1-.06819.54987c-.028.16786-.06892.33358-.11456.54951a.60608.60608,0,0,0,.33625-.3226c.20483-.32377.41443-.64517.63823-.95592a.99575.99575,0,0,1,.28845-.2236c.02642-.01667.08408.01618.16367.03475a1.664,1.664,0,0,1-.128.20051,6.566,6.566,0,0,0-1.225,2.02282c-.04859.12665-.0732.26233-.119.39025-.1266.35392-.25435.39229-.56993.17916a1.04,1.04,0,0,0-.10407-.04934c-.07438.03318-.17119.08253-.27231.12036a.44024.44024,0,0,1-.65616-.36347,3.6087,3.6087,0,0,1,.09037-1.36326c.09488-.47291.20393-.943.30375-1.41492A.32274.32274,0,0,0,20.09657,30.2715Z"/>
  </g>
</svg>
