<?xml version="1.0" encoding="utf-8"?>
<!-- Generator: Adobe Illustrator 21.1.0, SVG Export Plug-In . SVG Version: 6.00 Build 0)  -->
<svg version="1.1" id="Layer_1" xmlns="http://www.w3.org/2000/svg" xmlns:xlink="http://www.w3.org/1999/xlink" x="0px" y="0px"
	 viewBox="0 0 780.2 289.8" style="enable-background:new 0 0 780.2 289.8;" xml:space="preserve">
<style type="text/css">
	.st0{fill:#FFFFFF;}
</style>
<title>Asset 1</title>
<g id="Layer_2">
	<g id="Layer_1-2">
		<path class="st0" d="M357.8,23.6h-26.4v66.5h-29.9V23.6h-26.4V0h82.6V23.6z"/>
		<path class="st0" d="M442.7,67.2v22.9h-74.9V0H441v22.9h-43.4v10.6h38.1v21.9h-38.1v11.8H442.7z"/>
		<path class="st0" d="M376.3,273.4l-0.2-46.7L354,265.2h-18l-21.3-39.4v47.6H276V169.2h45.5l24.8,48.6l28-48.6h40.4l0.4,104.2
			H376.3z"/>
		<path class="st0" d="M535.8,217.4v56h-40v-13.7c-5,10.5-14.9,15.6-29.5,15.6c-25.5,0-38.7-14.5-38.7-32.4
			c0-20.2,15.2-31.4,47.6-31.4h17.3c-1.3-8-7.4-12.2-19.6-12.2c-9.3,0-19.8,3-26.7,8.2l-13.7-28.4c12.2-7.6,30.7-11.8,46.9-11.8
			C515.2,167.3,535.8,182.7,535.8,217.4z M492.8,239.5v-7.2h-10.7c-9.1,0-13.1,3.1-13.1,8.8c0,4.8,3.8,8.4,10.3,8.4
			C485.1,249.4,490.5,246.3,492.8,239.5L492.8,239.5z"/>
		<path class="st0" d="M659.2,169.2v104.2h-42.9v-35.2c-5.5,3.2-13.3,5.3-24,5.3c-29.9,0-44.8-12.6-44.8-42.5v-31.8h42.8v28.9
			c0,10.7,4,13.9,12.2,13.9c4.7,0.1,9.4-0.9,13.7-2.9v-40L659.2,169.2z"/>
		<path class="st0" d="M780.2,217.4v56h-40v-13.7c-5,10.5-14.9,15.6-29.5,15.6c-25.5,0-38.7-14.5-38.7-32.4
			c0-20.2,15.2-31.4,47.6-31.4H737c-1.3-8-7.4-12.2-19.6-12.2c-9.3,0-19.8,3-26.7,8.2L677,179.1c12.2-7.6,30.7-11.8,46.8-11.8
			C759.6,167.3,780.2,182.7,780.2,217.4z M737.2,239.5v-7.2h-10.7c-9.1,0-13.1,3.1-13.1,8.8c0,4.8,3.8,8.4,10.3,8.4
			C729.5,249.4,734.9,246.3,737.2,239.5L737.2,239.5z"/>
		<line class="st0" x1="276.5" y1="127.5" x2="624.2" y2="127.5"/>
		<rect x="276.5" y="125.3" class="st0" width="347.6" height="4.2"/>
		<path class="st0" d="M254.9,219.8c-5.4-3-10.8-6-16.1-9.1l-1.1-0.6c-0.4-0.3-1-0.7-1.4-0.6c-0.9,0-1.8,0.3-2.6,0.9
			c-0.6,0.6-0.6,1.8-0.8,2.7c0.4,0.5,0.9,0.9,1.4,1.3l3.1,1.7c5.1,2.9,10.3,5.8,15.5,8.7c1.2,0.7,2.8,0.3,3.5-0.9
			c0.1-0.2,0.2-0.4,0.3-0.7C257.3,221.5,256.3,220.5,254.9,219.8z"/>
		<path class="st0" d="M237.2,168.2l4.5-2.2c2.5-1.2,5-2.5,7.4-3.7c1.9-1,2.6-2.4,1.8-3.9s-2.2-1.9-4.2-1c-3.8,1.9-7.5,3.7-11.3,5.6
			l-3.6,1.8c-1.9,1-2.6,2.4-1.8,3.9s2.3,1.9,4.3,0.9L237.2,168.2z"/>
		<path class="st0" d="M192.2,256.3c-7.7,3-15.4,6-23.1,9.1c-3.2,1.3-3.6,2.4-1.8,5.4c1.9,3.1,3.8,6.3,5.8,9.4
			c11.5-4,22.3-9.7,32.1-17l-9.4-6.5C194.8,255.9,193.4,255.7,192.2,256.3z"/>
		<path class="st0" d="M153.2,258.5l4.9,4c1,0.8,1.9,1.7,2.9,2.4c1.1,0.8,2.7,0.7,3.6-0.4c0.9-1,0.8-2.6-0.2-3.5c0,0,0,0-0.1,0
			c-3.3-2.8-6.7-5.6-10-8.3c-1.4-1.1-2.7-0.5-4,0.6c-1.5-3.7-3-7.1-2.6-11.2c1.1-10.3,1.9-20.7,2.7-31.1c0-1.3-0.3-2.6-0.9-3.7
			c-0.5-1.1-1.2-2.1-2-3c-1.6-1.7-1.6-3.4-1-5.5c5.3-18.7,15.7-34,31.4-45.5c1.9-1.2,4.3-0.6,5.5,1.3c0.1,0.2,0.2,0.3,0.3,0.5
			c0.6,1.7,1.1,3.4,1.7,5.1s2,2.5,3.5,2s2-1.9,1.5-3.7c-0.3-1.3-0.7-2.6-1.3-3.8c-0.9-1.9-0.7-3.2,1.1-4.5c2-1.5,3.9-3.3,5.6-5.1
			c2.2-2.3,5-3.9,8.1-4.6c5-1.4,10.2-2.3,15.4-2.8c-1.3-1.4-2.7-2.7-4.2-4h0.2c-10.8-9.6-25-16.9-42.4-21.1l52.6-53.4V0.2H14.6v72
			h101.1L74,114.7v58.6h37.6c24.3,0,33.6,7.3,33.6,19.4c0,14.6-15.4,21.8-36.8,21.8c-26.7-0.2-52.9-7.3-76-20.6L0,264.3
			c30.3,17,72.8,25.5,111.6,25.5c19.7,0,37-2.3,52-6.4l-0.1-0.2c2.2-0.6,4.4-1.3,6.5-2C163,274.7,157.3,267,153.2,258.5z"/>
		<path class="st0" d="M225.6,167.8c-11-1.4-22-2.8-33-4.2c-1.7-0.4-3.4,0.4-4.2,1.9c-6.5,9.8-13,19.5-19.5,29.2
			c-1.5,2.3-1.4,3.1,0.5,5.1c8,8.3,16,16.5,23.9,24.8c1,1.3,2.8,1.6,4.2,0.8c5.3-2.5,10.7-4.9,16.1-7.4l0,0l15.4-7.1
			c2.2-1,2.6-1.6,2.5-4c-0.8-11.9-1.6-23.7-2.4-35.6C228.8,168.8,228.2,168.2,225.6,167.8z"/>
		<path class="st0" d="M162.6,199.3c-1.6,0.8-3.2,1.6-4.8,2.4s-3.1,1.5-4.6,2.3s-2.2,2.4-1.5,3.7s2.2,1.8,3.9,1
			c3.2-1.5,6.3-3.1,9.5-4.7c1.7-0.9,2.2-2.3,1.5-3.7S164.3,198.5,162.6,199.3z"/>
		<path class="st0" d="M196.8,251c0.4-6.5,0.7-13,1-19.5c0.1-2.2-0.8-3.5-2.6-3.6s-2.6,1.1-2.7,3.3c-0.4,6.5-0.7,12.9-1,19.4
			c0,0.7,0.1,1.4,0.1,2.5c0.9,0.5,1.8,0.8,2.8,0.9C196.2,253.8,196.8,252.5,196.8,251z"/>
	</g>
</g>
</svg>
