<svg xmlns="http://www.w3.org/2000/svg" viewBox="0 0 780.2 289.77"><defs><style>.cls-1{fill:#231f20;}</style></defs><title>Asset 1</title><g id="Layer_2" data-name="Layer 2"><g id="Layer_1-2" data-name="Layer 1"><path d="M357.8,23.55H331.42V90.07H301.57V23.55H275.19V0H357.8Z"/><path d="M442.72,67.17v22.9H367.84V0h73.21V22.9H397.69V33.46h38.09V55.33H397.69V67.17Z"/><path d="M376.34,273.35l-.2-46.66-22.09,38.48H336l-21.33-39.43v47.61H276V169.18h45.51l24.75,48.56,28-48.56h40.38L415,273.35Z"/><path d="M535.79,217.37v56h-40v-13.7c-5,10.47-14.86,15.61-29.53,15.61-25.52,0-38.66-14.47-38.66-32.37,0-20.19,15.24-31.43,47.61-31.43h17.34c-1.34-8-7.44-12.19-19.62-12.19-9.33,0-19.81,3-26.67,8.19l-13.7-28.38c12.19-7.61,30.66-11.8,46.85-11.8C515.22,167.28,535.79,182.7,535.79,217.37Zm-43,22.09v-7.24H482.08c-9.14,0-13.14,3.05-13.14,8.75,0,4.77,3.81,8.39,10.29,8.39C485.12,249.36,490.46,246.31,492.75,239.46Z"/><path d="M659.24,169.18V273.35H616.38V238.12c-5.52,3.24-13.33,5.33-24,5.33-29.9,0-44.76-12.56-44.76-42.46V169.18h42.85v28.95c0,10.67,4,13.91,12.19,13.91a31.67,31.67,0,0,0,13.71-2.87v-40Z"/><path d="M780.2,217.37v56h-40v-13.7c-5,10.47-14.86,15.61-29.53,15.61-25.51,0-38.65-14.47-38.65-32.37,0-20.19,15.24-31.43,47.61-31.43H737c-1.33-8-7.43-12.19-19.62-12.19-9.33,0-19.8,3-26.66,8.19L677,179.08c12.19-7.61,30.66-11.8,46.85-11.8C759.63,167.28,780.2,182.7,780.2,217.37Zm-43,22.09v-7.24H726.49c-9.14,0-13.14,3.05-13.14,8.75,0,4.77,3.82,8.39,10.29,8.39C729.54,249.36,734.88,246.31,737.16,239.46Z"/><line x1="276.52" y1="127.47" x2="624.15" y2="127.47"/><rect class="cls-1" x="276.52" y="125.35" width="347.63" height="4.23"/><path d="M254.92,219.75q-8.07-4.5-16.11-9.05l-1.09-.61c-.45-.25-1-.66-1.4-.6a4.45,4.45,0,0,0-2.57.88c-.57.65-.56,1.81-.78,2.67a11.69,11.69,0,0,0,1.45,1.25l3.09,1.74c5.15,2.91,10.29,5.83,15.47,8.69a2.54,2.54,0,0,0,3.77-1.51C257.25,221.5,256.32,220.53,254.92,219.75Z"/><path d="M237.21,168.16l4.49-2.23c2.48-1.24,5-2.46,7.44-3.71,1.94-1,2.57-2.35,1.84-3.86s-2.23-1.9-4.16-1q-5.67,2.79-11.3,5.62l-3.58,1.78c-1.95,1-2.57,2.35-1.84,3.86s2.26,1.89,4.31.88Z"/><path d="M192.21,256.25c-7.69,3.05-15.39,6.05-23.07,9.12-3.2,1.28-3.59,2.44-1.79,5.39,1.9,3.14,3.84,6.25,5.78,9.36a116.16,116.16,0,0,0,32.06-17l-9.39-6.49A3.53,3.53,0,0,0,192.21,256.25Z"/><path d="M153.2,258.49l4.86,3.95c1,.8,1.93,1.67,2.95,2.41a2.63,2.63,0,0,0,3.6-.41,2.5,2.5,0,0,0-.25-3.58q-5-4.23-10-8.29c-1.36-1.09-2.69-.49-4,.62-1.52-3.68-3-7.08-2.55-11.22,1.14-10.34,1.93-20.71,2.73-31.09a8.17,8.17,0,0,0-.95-3.69,10.91,10.91,0,0,0-2-3c-1.58-1.67-1.61-3.39-1-5.54,5.34-18.71,15.66-34,31.35-45.53a4,4,0,0,1,5.79,1.79c.59,1.7,1.11,3.41,1.74,5.09s2,2.48,3.49,2,2-1.94,1.49-3.72a24.29,24.29,0,0,0-1.26-3.78c-.94-1.9-.66-3.21,1.11-4.53a41.45,41.45,0,0,0,5.62-5.14,16.31,16.31,0,0,1,8.13-4.58,87.31,87.31,0,0,1,15.35-2.82c-1.33-1.38-2.74-2.7-4.2-4l.24,0c-10.82-9.59-25-16.87-42.37-21.14l52.58-53.39V.2H14.56v72h101.1L74,114.65v58.64h37.61c24.26,0,33.57,7.28,33.57,19.41,0,14.57-15.37,21.84-36.8,21.84a155,155,0,0,1-76-20.62L0,264.29c30.33,17,72.79,25.48,111.62,25.48,19.73,0,37-2.31,51.95-6.41l-.15-.17c2.23-.61,4.4-1.26,6.53-2A75.61,75.61,0,0,1,153.2,258.49Z"/><path d="M225.55,167.83c-11-1.39-22-2.75-33-4.21a3.85,3.85,0,0,0-4.22,1.88c-6.48,9.77-13,19.5-19.54,29.24-1.53,2.29-1.45,3.1.5,5.12q12,12.39,23.94,24.78a3.21,3.21,0,0,0,4.17.82c5.34-2.5,10.72-4.91,16.09-7.36l0,0L228.93,211c2.21-1,2.62-1.63,2.46-4q-1.19-17.79-2.38-35.59C228.84,168.84,228.2,168.17,225.55,167.83Z"/><path d="M162.59,199.34c-1.63.75-3.21,1.58-4.82,2.38s-3.12,1.51-4.65,2.33-2.19,2.37-1.51,3.73,2.24,1.83,3.9,1q4.77-2.3,9.47-4.72c1.69-.87,2.19-2.27,1.47-3.71S164.33,198.53,162.59,199.34Z"/><path d="M196.84,251q.53-9.76,1-19.54c.11-2.24-.81-3.51-2.55-3.57s-2.62,1.06-2.74,3.28q-.53,9.68-1,19.36c0,.68.08,1.36.15,2.5a8.62,8.62,0,0,0,2.83.89C196.24,253.83,196.76,252.5,196.84,251Z"/></g></g></svg>