<?xml version="1.0" encoding="utf-8"?>
<!-- Generator: Adobe Illustrator 19.0.0, SVG Export Plug-In . SVG Version: 6.00 Build 0)  -->
<svg version="1.1" id="Layer_1" xmlns="http://www.w3.org/2000/svg" xmlns:xlink="http://www.w3.org/1999/xlink" x="0px" y="0px"
	 viewBox="0 0 89.3 89.3" style="enable-background:new 0 0 89.3 89.3;" xml:space="preserve">
<style type="text/css">
	.st0{opacity:0.55;}
	.st1{fill:none;}
	.st2{fill:#FFFFFF;}
</style>
<g class="st0">
	<path id="XMLID_7_" class="st1" d="M49.9,25.3c1.7-1.7,2-4.4,0.7-6.4c-0.2-0.3-0.4-0.7-0.7-1c-0.3-0.3-0.6-0.5-1-0.7
		c-2-1.2-4.7-1-6.4,0.7c-2,2-2,5.3,0,7.4C44.6,27.3,47.9,27.3,49.9,25.3z"/>
	<path id="XMLID_6_" class="st1" d="M53.3,28.6c-2,2-2,5.3,0,7.4s5.3,2,7.4,0c1.7-1.7,2-4.4,0.7-6.4c-0.2-0.3-0.4-0.7-0.7-1
		c-0.3-0.3-0.6-0.5-1-0.7C57.7,26.7,55,26.9,53.3,28.6z"/>
	<path id="XMLID_5_" class="st1" d="M70.2,38.4c-2-1.2-4.7-1-6.4,0.7c-2,2-2,5.3,0,7.4s5.3,2,7.4,0c1.7-1.7,2-4.4,0.7-6.4
		c-0.2-0.3-0.4-0.7-0.7-1C70.9,38.9,70.5,38.6,70.2,38.4z"/>
	<path class="st2" d="M87,31.4l-9.8-9.8c-2.6,2.4-6.7,2.3-9.2-0.3s-2.6-6.6-0.3-9.2l-9.8-9.8c-2.2-2.2-5.7-2.2-7.8,0l-8,8l-0.6,0.6
		l-5.6,5.6l-5.3,5.3L2.3,50.1c-2.2,2.2-2.2,5.7,0,7.8l9.8,9.8c2.6-2.3,6.7-2.2,9.2,0.3c2.5,2.5,2.6,6.5,0.3,9.2l9.8,9.8
		c2.2,2.2,5.7,2.2,7.8,0l28.4-28.4l5.3-5.3l5.6-5.6l0.6-0.6l8-8C89.2,37.1,89.2,33.6,87,31.4z M60.6,28.6c0.3,0.3,0.5,0.6,0.7,1
		c1.2,2,1,4.7-0.7,6.4c-2,2-5.3,2-7.4,0s-2-5.3,0-7.4c1.7-1.7,4.4-2,6.4-0.7C60,28.1,60.3,28.4,60.6,28.6z M42.6,17.9
		c1.7-1.7,4.4-2,6.4-0.7c0.3,0.2,0.7,0.4,1,0.7c0.3,0.3,0.5,0.6,0.7,1c1.2,2,1,4.7-0.7,6.4c-2,2-5.3,2-7.4,0
		C40.5,23.3,40.5,20,42.6,17.9z M71.2,46.5c-2,2-5.3,2-7.4,0s-2-5.3,0-7.4c1.7-1.7,4.4-2,6.4-0.7c0.3,0.2,0.7,0.4,1,0.7
		c0.3,0.3,0.5,0.6,0.7,1C73.1,42.1,72.9,44.8,71.2,46.5z"/>
</g>
</svg>
