<?xml version="1.0" encoding="utf-8"?>
<!-- Generator: Adobe Illustrator 21.1.0, SVG Export Plug-In . SVG Version: 6.00 Build 0)  -->
<svg version="1.1" id="Layer_1" xmlns="http://www.w3.org/2000/svg" xmlns:xlink="http://www.w3.org/1999/xlink" x="0px" y="0px"
	 viewBox="0 0 71.2 35.6" style="enable-background:new 0 0 71.2 35.6;" xml:space="preserve">
<style type="text/css">
	.st0{fill:#A42276;}
	.st1{fill:#F99D1C;}
</style>
<g>
	<path class="st0" d="M42.2,17.1c0.4,0.2,0.4,0.4,0.4,0.7h2.3l-3.3-6.6c1.7-0.9,2.7-2.7,2.7-5.2c0-4-2.8-6-6.3-6h-4.8
		c0.3,0.2,0.5,0.4,0.7,0.9c-0.8,0-1-0.4-1.1-0.9h-1.3v17.8h4.4V12h1.5l2.8,5.8H42C42,17.5,42.2,17.3,42.2,17.1z M31.9,10.3
		c-0.1,0-0.2-0.1-0.3-0.1c0.1-0.2,0.2-0.5,0.3-0.7c0.1,0,0.2,0.1,0.3,0.1C32,9.8,31.9,10.1,31.9,10.3z M32.6,16.5
		c0-0.3-0.1-0.7-0.1-1.1C33.1,15.9,33.1,15.9,32.6,16.5z M33.7,10.7c-0.2-0.1-0.3-0.2-0.4-0.3c0.1-0.1,0.2-0.3,0.3-0.4
		c0.1,0,0.2,0.1,0.3,0.2C33.9,10.4,33.8,10.5,33.7,10.7z M37.9,8.1h-2v-4h1.6c0.1-0.1,0.2-0.1,0.2-0.2c0.1,0.1,0.1,0.1,0.2,0.2h0
		c1.2,0,2.1,0.7,2.1,2C39.9,7.4,39.1,8.1,37.9,8.1z M42.2,6.8c0.1,0.2,0.2,0.5,0.3,0.7c-0.1,0.1-0.2,0.1-0.3,0.2
		C42.1,7.4,42,7.2,41.9,7C41.9,7,42.1,6.9,42.2,6.8z M41.4,1.5c0.5,0.2,0.5,0.2,0.2,1.1c-0.3-0.5-0.4-0.7-0.6-1
		C41.2,1.6,41.3,1.5,41.4,1.5z M41.2,14.7c-0.1-0.2-0.3-0.3-0.3-0.5c0-0.1,0.1-0.2,0.2-0.3c0.1,0.1,0.3,0.2,0.3,0.4
		C41.5,14.4,41.3,14.5,41.2,14.7z"/>
	<path class="st0" d="M55.6,1.7c-0.2,0.1-0.4,0-0.9-0.5c0.2,0,0.5,0,0.7,0L55.1,0h-4.4L45,17.8h4.6l0.7-2.7h5.1l0.7,2.7h4.6
		L55.6,1.7z M50.5,12.2c-0.2-0.1-0.4-0.3-0.6-0.4c0.1-0.1,0.2-0.2,0.3-0.4c0.2,0.2,0.3,0.4,0.5,0.6C50.6,12,50.5,12.2,50.5,12.2z
		 M51.7,4.1c-0.2-0.1-0.4-0.3-0.6-0.5C51.6,3.5,51.6,3.5,51.7,4.1z M51.2,11.5l0.3-1.1c-0.1-0.1-0.1-0.2-0.2-0.3c0.1,0,0.2,0,0.3,0
		l0.5-1.7c0.3-1.2,0.6-2.4,0.8-3.8c0.2,1.4,0.5,2.7,0.8,3.8l0.8,3H51.2z M57.3,16.4c-0.7-0.1-0.8-0.5-0.6-1.2
		C57.3,15.5,57.4,15.8,57.3,16.4z M56.2,13.2c-0.1-0.2-0.2-0.5-0.3-0.7c0.2-0.1,0.3-0.1,0.3-0.1c0.6,0.1,1.2,0.2,1.8,0.3
		c0,0.1,0,0.1,0,0.2C57.4,12.9,56.9,13,56.2,13.2z"/>
	<path class="st0" d="M22.3,0c-1,0-1.9,0.2-2.7,0.5c0.1,0.2,0.2,0.4,0.3,0.6c-0.3,0.1-0.7,0.3-1,0.4c0-0.3,0-0.5-0.1-0.7
		c-1.7,0.9-2.8,2.6-2.8,5.2c0,2.6,1,4.4,2.8,5.3l-3.5,6.5h2c0.2-0.1,0.3-0.2,0.5-0.3c0,0.1,0,0.2,0,0.3h2.3l0.8-1.6
		c-0.2,0-0.5-0.2-1-0.4c0.5-0.1,0.9-0.2,1.3-0.2l1.8-3.5h1.4v5.8H26c0.1,0,0.2-0.1,0.3-0.1c0.2-0.1,0.3-0.4,0.5-0.5
		c0.4,0.2,0.5,0.4,0.4,0.6h1.7V0H22.3z M23.6,1.2c0,0.2,0.1,0.5,0.1,0.7c-0.1,0-0.1,0-0.2,0c-0.1-0.2-0.2-0.4-0.2-0.6
		C23.4,1.2,23.5,1.2,23.6,1.2z M20.3,10.5c-0.1-0.1-0.2-0.2-0.1-0.3c0-0.1,0.2-0.2,0.3-0.2c0.1,0,0.1,0.2,0.2,0.3
		C20.5,10.4,20.4,10.4,20.3,10.5z M21.3,8.8C21,9.3,20.6,9,20.3,8.9c-0.1,0-0.1-0.1-0.2-0.3c0.1-0.1,0.2-0.2,0.3-0.2
		c0.3,0,0.7,0,1,0C21.3,8.4,21.4,8.7,21.3,8.8z M24.3,8.1h-1.5c0.1,0.1,0.1,0.3,0.2,0.4c-0.3-0.1-0.4-0.3-0.5-0.4
		c-1.1,0-1.9-0.7-1.9-2c0-1.3,0.8-2,2.1-2h2.1v3.3c0,0,0,0,0,0c0.1,0.3,0.2,0.5,0.3,1C24.6,8.3,24.4,8.2,24.3,8.1z M26.2,13.9
		c-0.2-0.3-0.4-0.4-0.4-0.5c0-0.1,0.2-0.2,0.3-0.3c0,0,0.2,0.2,0.2,0.3C26.4,13.5,26.3,13.6,26.2,13.9z M26.5,5.6
		c0.1-0.1,0.1-0.2,0.2-0.3c0.2,0.1,0.4,0.3,0.6,0.4c-0.1,0.1-0.1,0.2-0.2,0.3C26.9,5.9,26.7,5.8,26.5,5.6z M27.1,8.4
		c-0.1-0.1-0.2-0.2-0.4-0.4c0.1-0.1,0.2-0.3,0.3-0.3c0.1,0.1,0.3,0.2,0.4,0.3C27.3,8.1,27.2,8.3,27.1,8.4z"/>
	<path class="st0" d="M10.5,0L8.2,9.3c-0.3,1.1-0.5,2.4-0.6,3.8c-0.2-1.4-0.4-2.7-0.7-3.8L5.2,2.2C5.1,2.2,5,2.3,4.9,2.3
		c-0.1,0-0.2-0.2-0.3-0.3c0.1-0.1,0.3-0.2,0.4-0.3L4.7,0H0l1.9,6.5c0.4-0.2,0.7-0.2,1.1,0.2C3.2,7,3.5,7.4,3.8,7.8
		C3.7,8,3.1,7.5,3.1,8.1c0,0.1-0.3,0.1-0.7,0l2.8,9.6H10L15.2,0H10.5z M1,0.4C1.3,0,1.6-0.1,2,0.3C1.7,0.8,1.4,0.7,1,0.4z M5.3,15.1
		c-0.2-0.2-0.4-0.3-0.6-0.5c0.1-0.1,0.1-0.2,0.2-0.3c0.2,0.1,0.5,0.2,0.7,0.3C5.5,14.7,5.4,14.9,5.3,15.1z M6.3,11
		c0-0.1,0.1-0.3,0.2-0.3c0.5-0.1,0.7,0.1,0.6,0.6C6.7,11.5,6.4,11.4,6.3,11z M8.5,15.7c0-0.5,0.4-0.6,0.9-0.6
		C9.1,15.3,8.8,15.5,8.5,15.7z M11.7,1.9c0.1,0.2,0.2,0.4,0.3,0.7c0,0-0.2,0.1-0.2,0.1c-0.2-0.2-0.3-0.4-0.4-0.6
		C11.5,2,11.6,1.9,11.7,1.9z M11.1,5.7c0.5-0.7,0.9-0.7,1.5-0.3C12.1,6.1,11.7,6.1,11.1,5.7z"/>
</g>
<g>
	<path class="st1" d="M59.7,22.8c0.2,0.1,0.4,0.3,0.5,0.6c0.3,0.5,0.4,1,0.3,1.5c-0.2,1-0.5,2-1,2.8s-1.1,1.5-2,2
		c-2.8,1.5-5.2,0.2-7.3-3.7c-0.3-0.6-0.6-1.2-0.9-1.9l-0.8,0.4c-0.4,0.2-0.7,0.3-0.9,0.2c-0.2-0.1-0.4-0.3-0.6-0.6
		c-0.4-0.8-0.3-1.3,0.3-1.6l1.2-0.6c-0.6-1.6-0.9-3.2-1.1-4.7s-0.1-2.8,0.2-3.9c0.3-1.1,0.8-1.8,1.6-2.3c0.6-0.3,1.2-0.3,1.8,0
		c0.6,0.3,1.1,0.9,1.5,1.6c1.1,2.1,1.2,4.4,0.2,6.9l2.3-1.2c0.2-0.1,0.4-0.1,0.5-0.1c0.1,0,0.3,0.2,0.4,0.5c0.5,0.9,0,1.8-1.6,2.6
		l-2.5,1.3c0.3,0.7,0.6,1.2,0.8,1.6c0.7,1.4,1.4,2.3,2.1,2.7c0.6,0.4,1.3,0.4,2,0c0.6-0.3,1-0.8,1.3-1.3c0.3-0.6,0.5-1.4,0.8-2.4
		c0.1-0.3,0.2-0.5,0.4-0.6C59.3,22.7,59.5,22.7,59.7,22.8z M49.3,14.4c0,0.6,0.1,1.5,0.4,2.5c0.3,1,0.6,2.1,1,3.3
		c0.4-1.1,0.6-2.2,0.6-3.3c-0.1-1.1-0.3-2-0.6-2.7c-0.4-0.8-0.8-1.1-1.1-1C49.4,13.4,49.3,13.8,49.3,14.4z"/>
	<path class="st1" d="M60.6,26.8c-0.7-0.4-1.4-1.1-1.9-2.2c-0.3-0.6-0.7-1.4-1-2.5c-0.3-1-0.6-2-0.8-3c-0.1-0.5-0.1-0.9,0-1.2
		c0.1-0.3,0.4-0.5,0.9-0.8c0.7-0.4,1.2-0.3,1.4,0.1c0.2,0.3,0.5,1.2,0.9,2.6c0.5,1.7,0.8,2.8,1.1,3.3c0.2,0.4,0.4,0.7,0.7,0.9
		c0.2,0.2,0.5,0.2,0.7,0c0.2-0.1,0.5-0.5,0.7-1c0.2-0.5,0.4-1.3,0.6-2.4c0.1-0.3,0.2-0.5,0.4-0.6c0.2-0.1,0.4-0.1,0.5,0
		c0.2,0.1,0.4,0.3,0.5,0.6c0.3,0.5,0.4,1,0.3,1.5c-0.5,2.4-1.3,3.9-2.5,4.5C62.1,27.2,61.3,27.2,60.6,26.8z M55.9,15.9
		c-0.4-0.1-0.8-0.4-1-0.9c-0.3-0.5-0.3-1-0.1-1.5c0.2-0.5,0.6-0.9,1.2-1.2c0.5-0.3,1-0.4,1.4-0.3c0.4,0.1,0.8,0.3,1,0.8
		c0.3,0.5,0.3,1.1,0.1,1.6c-0.2,0.5-0.6,0.9-1.2,1.2C56.8,15.9,56.3,16,55.9,15.9z"/>
	<path class="st1" d="M71.2,18.2c0,1.2-0.2,2.4-0.8,3.4c-0.5,1-1.2,1.8-2.2,2.3c1.2,2.7,2,5.1,2.3,7.2c0.3,2.1-0.2,3.5-1.4,4.1
		c-0.7,0.4-1.4,0.4-2.1,0.1c-0.6-0.3-1.2-1-1.7-1.9c-0.7-1.3-1.2-3.1-1.5-5.2c-0.3-2.1-0.4-4.6-0.2-7.4c-1-2-1.8-3.4-2.2-4.1
		c-0.2-0.4-0.2-0.8,0-1.2c0.2-0.4,0.6-0.7,1-1c0.3-0.2,0.5-0.2,0.7-0.2c0.2,0,0.4,0.2,0.6,0.6c0.2,0.3,0.3,0.6,0.4,0.7
		c0.2-0.8,0.4-1.4,0.7-1.9c0.3-0.5,0.7-0.8,1.2-1.1c0.8-0.4,1.6-0.4,2.4-0.1c0.8,0.4,1.5,1,2,2C70.9,15.8,71.2,17,71.2,18.2z
		 M67.9,30.3c-0.6-1.7-1.5-3.8-2.7-6.2c0.1,1.7,0.3,3.2,0.7,4.6c0.3,1.4,0.7,2.6,1.1,3.4c0.2,0.4,0.5,0.7,0.7,0.9
		c0.2,0.2,0.4,0.2,0.5,0.2C68.6,33,68.5,32,67.9,30.3z M68.3,20.4c0.2-0.6,0.2-1.4,0.2-2.1c-0.1-0.8-0.3-1.5-0.7-2.2
		c-0.2-0.4-0.5-0.7-0.7-0.8c-0.3-0.1-0.6-0.1-0.8,0c-0.5,0.3-0.8,1.1-1,2.5c0.3,0.6,0.8,1.5,1.4,2.7c0.3,0.6,0.6,1.1,0.7,1.5
		C67.8,21.6,68.1,21,68.3,20.4z"/>
</g>
</svg>
