<svg id="Layer_1" data-name="Layer 1" xmlns="http://www.w3.org/2000/svg" viewBox="0 0 110 27.87119">
  <defs>
    <style>
      .cls-1 {
        fill: #a82278;
      }
    </style>
  </defs>
  <title>wness</title>
  <g>
    <g>
      <path class="cls-1" d="M2.57923,21.33013A2.54133,2.54133,0,0,1,5.1657,23.89534a2.58339,2.58339,0,1,1-5.1657,0A2.53523,2.53523,0,0,1,2.57923,21.33013Zm0,4.5314a1.89309,1.89309,0,0,0,1.84541-1.96618,1.85908,1.85908,0,0,0-1.84541-1.9029,1.85315,1.85315,0,0,0-1.83816,1.9029A1.88731,1.88731,0,0,0,2.57923,25.86153Z"/>
      <path class="cls-1" d="M6.81739,23.43206H6.11884a.14244.14244,0,0,0-.15652.15652v.24251h-.57V23.2823c0-.32077.13527-.442.456-.442H8.47053c.32029,0,.456.12126.456.442v.54879h-.57v-.24251a.14258.14258,0,0,0-.157-.15652H7.50145v3.014H6.81739Z"/>
      <path class="cls-1" d="M9.50242,23.43206H9.05362v-.59179h1.93816c.72705,0,1.1971.32077,1.1971.92657a.79733.79733,0,0,1-.5058.78357v.01449a.84907.84907,0,0,1,.68406.85507c0,.66957-.54155,1.02609-1.3256,1.02609H9.90145c-.285,0-.399-.12126-.399-.39179Zm1.36812.92609c.40628,0,.62029-.20676.62029-.52705,0-.328-.22126-.5058-.64155-.5058h-.65556v1.03285ZM10.329,25.95428h.59855c.499,0,.7343-.22077.7343-.57,0-.356-.26377-.5628-.7343-.5628h-.73382v.99034A.12577.12577,0,0,0,10.329,25.95428Z"/>
      <path class="cls-1" d="M14.63913,22.75525A1.88881,1.88881,0,1,1,12.701,24.63641,1.88093,1.88093,0,0,1,14.63913,22.75525Zm0,3.17778a1.29085,1.29085,0,1,0-1.2401-1.29662A1.24535,1.24535,0,0,0,14.63913,25.933Z"/>
      <path class="cls-1" d="M17.28164,23.58858a.13945.13945,0,0,0-.157-.15652h-.29179v-.59179h.64831c.32077,0,.44155.13575.44155.36377,0,.10676-.00676.19227-.00676.19227h.014a1.28683,1.28683,0,0,1,1.1971-.64106c.97633,0,1.58889.76908,1.58889,1.88792a1.68964,1.68964,0,0,1-1.63865,1.88841,1.24427,1.24427,0,0,1-1.10435-.57729h-.01449a3.09605,3.09605,0,0,1,.01449.31353v1.60338h-.6913Zm1.69565,2.35169c.5628,0,1.03333-.47053,1.03333-1.28986,0-.78406-.42029-1.28986-1.01884-1.28986-.53478,0-1.04058.37778-1.04058,1.2971C17.95121,25.29873,18.30048,25.94027,18.97729,25.94027Z"/>
      <path class="cls-1" d="M22.85942,22.75525A1.5291,1.5291,0,0,1,24.413,24.44365a1.77857,1.77857,0,0,1-.02174.271h-2.629A1.21241,1.21241,0,0,0,23.00918,25.933a1.6689,1.6689,0,0,0,1.06184-.42029l.29227.5058a2.159,2.159,0,0,1-1.3971.513,1.8417,1.8417,0,0,1-1.91643-1.88841A1.77232,1.77232,0,0,1,22.85942,22.75525Zm.86232,1.50338a.88171.88171,0,0,0-.87633-.96232,1.05486,1.05486,0,0,0-1.05459.96232Z"/>
      <path class="cls-1" d="M26.06473,23.43206h-.69855a.14244.14244,0,0,0-.15652.15652v.24251h-.57V23.2823c0-.32077.13527-.442.456-.442h2.62222c.32029,0,.456.12126.456.442v.54879h-.57v-.24251a.14258.14258,0,0,0-.157-.15652h-.69807v3.014h-.68406Z"/>
      <path class="cls-1" d="M30.20338,22.75525A1.5291,1.5291,0,0,1,31.757,24.44365a1.77857,1.77857,0,0,1-.02174.271h-2.629A1.21241,1.21241,0,0,0,30.35314,25.933a1.6689,1.6689,0,0,0,1.06184-.42029l.29227.5058a2.159,2.159,0,0,1-1.3971.513,1.8417,1.8417,0,0,1-1.91643-1.88841A1.77232,1.77232,0,0,1,30.20338,22.75525Zm.86232,1.50338a.88171.88171,0,0,0-.87633-.96232,1.05486,1.05486,0,0,0-1.05459.96232Z"/>
      <path class="cls-1" d="M35.8029,22.75525a1.88881,1.88881,0,1,1-1.93816,1.88116A1.88052,1.88052,0,0,1,35.8029,22.75525Zm0,3.17778a1.29085,1.29085,0,1,0-1.2401-1.29662A1.24535,1.24535,0,0,0,35.8029,25.933Z"/>
      <path class="cls-1" d="M38.33092,24.10887v-.52029c0-.114-.04976-.15652-.16377-.15652h-.25652v-.59179h.64831c.34928,0,.44879.17826.44879.456v.62029c0,.356.114.67681.68406.67681a1.40919,1.40919,0,0,0,.80531-.25652V22.84027h.6913v3.6058h-.6913V25.1422c0-.10676.00725-.228.00725-.228H40.4971A1.92315,1.92315,0,0,1,39.485,25.192,1.00869,1.00869,0,0,1,38.33092,24.10887Z"/>
      <path class="cls-1" d="M42.099,23.58858a.13734.13734,0,0,0-.14976-.15652h-.285v-.59179h.6343c.32077,0,.456.1285.456.44928v1.71691a4.86519,4.86519,0,0,1-.0285.499h.014c.029-.057.214-.33478.33527-.499l1.55314-2.16618h.68406v2.85749a.13771.13771,0,0,0,.14976.157h.285v.5913H45.113c-.32077,0-.456-.13527-.456-.456V24.27989c0-.17826.02126-.44879.0285-.5058h-.014a5.35023,5.35023,0,0,1-.33527.5058l-1.55314,2.16618H42.099Z"/>
      <path class="cls-1" d="M48.03285,25.54848a1.39557,1.39557,0,0,0,.95459.42029c.40628,0,.74831-.19227.74831-.59855,0-.34928-.24928-.54155-.73382-.54155h-.456v-.47729h.36329c.44155,0,.70531-.18551.70531-.54879s-.27053-.52754-.62705-.52754c-.25652,0-.58406.1-.58406.34928v.16377h-.57729v-.33478c0-.48454.59855-.69807,1.21836-.69807.75556,0,1.2686.33478,1.2686.97585a.81611.81611,0,0,1-.5343.81256v.014a.8325.8325,0,0,1,.64831.85507c0,.73382-.64831,1.11884-1.39662,1.11884a1.86421,1.86421,0,0,1-1.3256-.52705Z"/>
      <path class="cls-1" d="M52.91981,24.20162h.157v-.05024c0-.61981-.242-.84783-.79807-.84783-.171,0-.5913.043-.5913.27778v.20676h-.65556v-.36329c0-.57729.90483-.66957,1.23285-.66957,1.18986,0,1.50338.60531,1.50338,1.41063v1.53188a.13965.13965,0,0,0,.15652.157h.29227v.5913h-.65556c-.32077,0-.44155-.15652-.44155-.41353,0-.128.00676-.21353.00676-.21353h-.014a1.2637,1.2637,0,0,1-1.16184.71256,1.1071,1.1071,0,0,1-1.21111-1.06908C50.73961,24.25138,52.31449,24.20162,52.91981,24.20162Zm-.81208,1.78116a1.08741,1.08741,0,0,0,.96908-1.14734v-.13527h-.185c-.52029,0-1.46087.05024-1.46087.69855A.609.609,0,0,0,52.10773,25.98278Z"/>
      <path class="cls-1" d="M56.54541,23.43206h-.44879v-.59179h3.11353c.32077,0,.456.13575.456.456v2.40145a.1398.1398,0,0,0,.157.157H60.115v.5913h-.68406c-.32029,0-.456-.13527-.456-.456V23.58858a.1393.1393,0,0,0-.15652-.15652H57.23671v3.014h-.6913Z"/>
      <path class="cls-1" d="M62.29469,22.75525a1.88881,1.88881,0,1,1-1.93816,1.88116A1.88052,1.88052,0,0,1,62.29469,22.75525Zm0,3.17778a1.29085,1.29085,0,1,0-1.2401-1.29662A1.24535,1.24535,0,0,0,62.29469,25.933Z"/>
      <path class="cls-1" d="M64.75121,24.10887h2.08068v.61256H64.75121Z"/>
      <path class="cls-1" d="M67.49372,25.86877h.057a3.59761,3.59761,0,0,0,.59855-2.27295v-.16377h-.44155v-.59179h2.387c.32077,0,.456.13575.456.456v2.57246h.114c.31353,0,.43478.14251.43478.44879v.98357h-.6343v-.69855a.14058.14058,0,0,0-.14976-.15652H67.843a.14058.14058,0,0,0-.14976.15652v.69855h-.6343v-.98357C67.05894,26.01129,67.18019,25.86877,67.49372,25.86877Zm2.3657,0V23.58858a.1393.1393,0,0,0-.15652-.15652h-.89807v.15652a3.86157,3.86157,0,0,1-.55556,2.28019Z"/>
      <path class="cls-1" d="M73.22174,22.75525a1.88881,1.88881,0,1,1-1.93816,1.88116A1.88093,1.88093,0,0,1,73.22174,22.75525Zm0,3.17778a1.29085,1.29085,0,1,0-1.2401-1.29662A1.24535,1.24535,0,0,0,73.22174,25.933Z"/>
      <path class="cls-1" d="M75.57923,24.3224c0-1.17536.25652-1.89517,1.2256-2.32271l.79082-.34928c.33478-.14251.413-.21353.413-.37729v-.171h.67v.313c0,.47053-.25652.59179-.74106.78406l-.84783.36329a1.31334,1.31334,0,0,0-.84831,1.27585h.00725a1.38174,1.38174,0,0,1,1.25411-.67,1.51761,1.51761,0,0,1,1.54638,1.66039,1.63631,1.63631,0,0,1-1.73865,1.7029C76.02077,26.53158,75.57923,25.5195,75.57923,24.3224Zm1.74541,1.61787a1.00884,1.00884,0,0,0,1.01208-1.09758.998.998,0,0,0-.99758-1.0971,1.09984,1.09984,0,0,0-.01449,2.19469Z"/>
      <path class="cls-1" d="M80.47295,23.55332c0-.10725-.043-.157-.14251-.157h-.399c-.10725,0-.14976.04976-.14976.157v.27053h-.55556V23.2823c0-.328.13527-.442.456-.442h1.02609c.32029,0,.456.13575.456.456v.85507h.72657c.83382,0,1.31836.456,1.31836,1.15459a1.16556,1.16556,0,0,1-1.31836,1.1401H80.872c-.285,0-.399-.12126-.399-.39179Zm.82657,2.3942h.5058a.6338.6338,0,0,0,.70531-.64879.62678.62678,0,0,0-.70531-.64831h-.64106v1.15411A.12614.12614,0,0,0,81.29952,25.94752Z"/>
      <path class="cls-1" d="M83.77826,23.58858a.13945.13945,0,0,0-.157-.15652h-.29179v-.59179h.64831c.32077,0,.44155.13575.44155.36377,0,.10676-.00676.19227-.00676.19227h.014a1.28683,1.28683,0,0,1,1.1971-.64106c.97633,0,1.58889.76908,1.58889,1.88792a1.68964,1.68964,0,0,1-1.63865,1.88841,1.24427,1.24427,0,0,1-1.10435-.57729h-.01449a3.096,3.096,0,0,1,.01449.31353v1.60338h-.6913Zm1.69565,2.35169c.5628,0,1.03333-.47053,1.03333-1.28986,0-.78406-.42029-1.28986-1.01884-1.28986-.53478,0-1.04058.37778-1.04058,1.2971C84.44783,25.29873,84.7971,25.94027,85.47391,25.94027Z"/>
      <path class="cls-1" d="M90.06135,24.96394a.71143.71143,0,0,1,.413-.34928v-.014a.52486.52486,0,0,1-.285-.285l-.37053-.74106c-.057-.12126-.13527-.14251-.32029-.14251H89.313v-.59179h.42754c.33478,0,.46329.043.6058.33527l.46329.93333a.41738.41738,0,0,0,.413.21353h.214V22.84027h.66957V24.3224H92.313a.41738.41738,0,0,0,.413-.21353l.46329-.93333c.14251-.29227.27053-.33527.6058-.33527h.42754v.59179H94.0372c-.17826,0-.25652.02126-.32029.14251l-.371.74106a.50268.50268,0,0,1-.285.285v.014a.71157.71157,0,0,1,.41353.34928l.86957,1.48213h-.80531L92.82609,25.192a.5295.5295,0,0,0-.50628-.285h-.21353v1.53913h-.66957V24.90694h-.214a.53925.53925,0,0,0-.513.285l-.70531,1.25411H89.199Z"/>
      <path class="cls-1" d="M94.90483,23.58858a.13734.13734,0,0,0-.14976-.15652H94.47v-.59179h.6343c.32077,0,.456.1285.456.44928v1.71691a4.86519,4.86519,0,0,1-.0285.499h.014c.029-.057.214-.33478.33527-.499l1.55314-2.16618h.68406v2.85749a.13771.13771,0,0,0,.14976.157h.285v.5913h-.6343c-.32077,0-.456-.13527-.456-.456V24.27989c0-.17826.02126-.44879.0285-.5058h-.014a5.35024,5.35024,0,0,1-.33527.5058l-1.55314,2.16618h-.68406Z"/>
      <path class="cls-1" d="M99.16425,23.43206h-.44879v-.59179h1.93816c.72705,0,1.1971.32077,1.1971.92657a.79733.79733,0,0,1-.5058.78357v.01449a.84907.84907,0,0,1,.68406.85507c0,.66957-.54155,1.02609-1.3256,1.02609h-1.1401c-.285,0-.399-.12126-.399-.39179Zm1.36812.92609c.40628,0,.62029-.20676.62029-.52705,0-.328-.22126-.5058-.64155-.5058h-.65556v1.03285Zm-.54155,1.59614h.59855c.499,0,.7343-.22077.7343-.57,0-.356-.26377-.5628-.7343-.5628h-.73382v.99034A.12577.12577,0,0,0,99.99082,25.95428Z"/>
      <path class="cls-1" d="M104.301,22.75525a1.88881,1.88881,0,1,1-1.93816,1.88116A1.88093,1.88093,0,0,1,104.301,22.75525Zm0,3.17778a1.29085,1.29085,0,1,0-1.2401-1.29662A1.24535,1.24535,0,0,0,104.301,25.933Z"/>
      <path class="cls-1" d="M107.89082,23.43206h-.69807a.14258.14258,0,0,0-.157.15652v.24251h-.57V23.2823c0-.32077.13575-.442.456-.442H109.544c.32077,0,.456.12126.456.442v.54879h-.57v-.24251a.14244.14244,0,0,0-.15652-.15652h-.69855v3.014h-.68406Z"/>
    </g>
    <g>
      <path class="cls-1" d="M98.91648,17.15535c-.96472-.00021-1.92947.005-2.89413-.00225a.99475.99475,0,0,1-1.05628-.69473,1.42391,1.42391,0,0,1-.04145-.648c.35746-1.97419.73335-3.945,1.09922-5.91771q.31579-1.70256.61711-3.4078a1.98328,1.98328,0,0,1,.52292-1.1423,1.58715,1.58715,0,0,1,1.14444-.48912c1.92943.00192,3.85889-.0037,5.78829.00315a1.05208,1.05208,0,0,1,1.08822,1.318c-.19426,1.06809-.40688,2.13283-.60387,3.20044q-.52369,2.838-1.03876,5.6776c-.04708.25683-.10338.512-.154.76816a1.71159,1.71159,0,0,1-1.619,1.3403C100.81873,17.1392,99.86741,17.15556,98.91648,17.15535Zm3.02032-7.63842-.02617.07522c-1.07322.15033-2.1486.287-3.21892.45582-.70988.112-.64061.00477-.77568.71841-.01532.08094-.04372.15968-.05549.241-.03406.23478.023.30209.25855.30233a1.78727,1.78727,0,0,0,.246-.02609q1.08139-.15058,2.16257-.30277c.73436-.10431,1.467-.222,2.20324-.311a.41069.41069,0,0,0,.40154-.388c.04883-.28437.09319-.56953.14414-.85351.07941-.44267.07761-.45648-.31689-.68664q-1.4626-.85334-2.92806-1.70179c-.32152-.18654-.642-.3752-.96781-.55394-.27546-.15111-.34463-.11769-.42819.19572-.03529.13238-.05189.26969-.0784.40449-.07684.39061-.07795.406.24916.6023.48391.29043.97479.56924,1.4623.85367Q101.10307,9.029,101.9368,9.51693Zm-3.51471,4.0343a12.312,12.312,0,0,0,.186-1.47509c-.07795-.02859-.13936-.05532-.20321-.07346a1.75084,1.75084,0,0,0-.24093-.05525c-.42921-.05824-.49137-.00859-.57483.42507-.06172.32068-.13122.63985-.20261.98564-.18926-.03521-.34945-.06316-.50881-.09516-.17513-.03517-.35063-.06955-.52392-.11257a.24225.24225,0,0,0-.33722.20056c-.04662.20061-.0929.4015-.131.60383-.05644.2993-.018.34945.29195.41938.30368.06851.607.13872.92615.21178-.01768.14328-.02868.25128-.04483.35851a3.36492,3.36492,0,0,1-.06439.365c-.05228.19642.03148.28386.21718.31025.08134.01156.1607.0365.24162.05184.3886.07367.49524.002.57554-.38124.03509-.16752.07349-.33435.11325-.51444.16115.02069.27042.02811.37689.04945.7138.14309,1.42518.29908,2.14086.43188a1.43736,1.43736,0,0,0,1.866-1.20406,8.37884,8.37884,0,0,0,.10841-1.06312.28537.28537,0,0,0-.15633-.203,1.4771,1.4771,0,0,0-.39991-.09342c-.22927-.03108-.29649.01906-.33813.24984-.03655.20257-.05813.40779-.09075.61112-.07123.4441-.26783.60438-.71333.5193C100.10119,13.91457,99.27157,13.7294,98.42209,13.55123Z"/>
      <path class="cls-1" d="M37.22623,6.16989l-.56282-.04511a3.56771,3.56771,0,0,1-.02923-1.04806.70467.70467,0,0,1,.1739-.055c.51013-.00509,1.02037-.00112,1.53044-.00884a.30521.30521,0,0,1,.359.30505c.00964.09561.03847.18964.04419.28524.06321,1.05811.11534,2.11694.18678,3.17447.09552,1.414.20867,2.82676.30761,4.24053.04133.5905.06145,1.18246.09919,1.77325.02266.35473.06072.70848.1,1.15514.10218-.16421.16568-.24675.209-.33877q1.53226-3.25292,3.06084-6.50756c.57492-1.22173,1.15857-2.43939,1.72457-3.66522a.62924.62924,0,0,1,.67232-.42514c.34368.01917.68928.0015,1.034.00478.43576.00415.45122.00844.519.457.05335.3531.0807.71052.10968,1.06683.06469.79547.11732,1.59194.18582,2.38707.06847.79477.15205,1.58823.22553,2.38259.03548.38365.063.768.09408,1.15209q.13305,1.64571.26751,3.2913a.76487.76487,0,0,0,.06352.15655,2.46572,2.46572,0,0,0,.18491-.28676q1.42827-3.164,2.85165-6.33011c.57747-1.281,1.16559-2.55717,1.73261-3.84272a.61439.61439,0,0,1,.69316-.43853,7.658,7.658,0,0,1,.98817.04979c-.07159.19341-.11659.34815-.18407.49237q-1.95327,4.174-3.91122,8.34573c-.41522.88565-.84109,1.76656-1.23993,2.65953a.78394.78394,0,0,1-.86709.53664c-.35612-.0294-.71666-.00175-1.0751-.0076-.41264-.00673-.497-.091-.53258-.51029-.02676-.31528-.05437-.63052-.07684-.94611-.06256-.87855-.11678-1.75774-.18533-2.63581-.06852-.87772-.15188-1.75428-.22579-2.63159-.03466-.41138-.06344-.82327-.09306-1.23507-.06022-.83733-.11868-1.67479-.18-2.512a1.45286,1.45286,0,0,0-.05872-.21084,2.96653,2.96653,0,0,0-.19971.3072q-1.28574,2.75226-2.56617,5.507C41.97627,13.68026,41.29271,15.14,40.623,16.606a.73045.73045,0,0,1-.77345.48581c-.38526-.01821-.77208-.00076-1.15815-.00509-.4515-.00506-.48725-.03168-.544-.48423-.04276-.341-.06411-.68483-.09119-1.02769-.06284-.79563-.11787-1.59193-.18642-2.38706-.06852-.79475-.15154-1.58824-.22445-2.38263-.03647-.39739-.06405-.7956-.09655-1.19337q-.13279-1.625-.26772-3.24988A1.20234,1.20234,0,0,0,37.22623,6.16989Z"/>
      <path class="cls-1" d="M66.34913,12.017a.79582.79582,0,0,0-.07622.17527,4.07569,4.07569,0,0,0,.52545,2.61958,2.6262,2.6262,0,0,0,1.58554,1.04524,7.04,7.04,0,0,0,2.12679.19124c.2756-.00828.553.00918.82693-.01476.69819-.061,1.3949-.13882,2.09222-.20975.07955-.00809.15921-.01519.27569-.02625a1.43921,1.43921,0,0,1-.11529.99738c-.0377.09576-.2169.16814-.3424.19139a13.81434,13.81434,0,0,1-1.62664.25411c-.906.05752-1.81644.08766-2.7237.0682a4.80649,4.80649,0,0,1-2.13895-.56563,3.4203,3.4203,0,0,1-1.817-2.52255,6.8243,6.8243,0,0,1,.01628-2.54755A19.61728,19.61728,0,0,1,65.53261,9.311a6.52488,6.52488,0,0,1,1.7129-2.74327,5.9146,5.9146,0,0,1,3.31931-1.62952,6.47926,6.47926,0,0,1,3.2971.26278A2.87926,2.87926,0,0,1,75.631,6.77752a4.09,4.09,0,0,1,.24765,1.07938,4.88544,4.88544,0,0,1-.29551,2.434,2.59645,2.59645,0,0,1-2.33293,1.64473,14.29613,14.29613,0,0,1-1.44146.07788c-1.6685.00916-3.33709.00354-5.00564.00354Zm.31528-1.225c.16915.00884.31563.023.46213.02316q2.8096.0022,5.6192.00068a2.18949,2.18949,0,0,0,.289-.00592c.78842-.10568,1.05313-.294,1.27445-1.01732a4.03711,4.03711,0,0,0,.12659-1.71644,2.01236,2.01236,0,0,0-1.35445-1.76765,2.18333,2.18333,0,0,0-.51152-.1537c-.47758-.04639-.95777-.08733-1.43709-.08922a3.63131,3.63131,0,0,0-1.77091.48756A5.2472,5.2472,0,0,0,67.06881,9.33,5.25558,5.25558,0,0,0,66.66441,10.792Z"/>
      <path class="cls-1" d="M4.79138,10.983a5.93528,5.93528,0,0,1,1.97627-.4942,10.06821,10.06821,0,0,1,9.06053,3.77478,18.0772,18.0772,0,0,1,2.742,4.24908c.04517.095.08668.19182.13864.30724a6.80307,6.80307,0,0,1-2.52007.67626,9.39037,9.39037,0,0,1-3.90147-.36805,10.30513,10.30513,0,0,1-4.40634-3.001,18.17148,18.17148,0,0,1-3.04191-4.93166A1.479,1.479,0,0,1,4.79138,10.983Z"/>
      <path class="cls-1" d="M35.46191,10.95819c-.06763.20086-.10033.33749-.15783.46274A18.88165,18.88165,0,0,1,32.616,15.828a9.88038,9.88038,0,0,1-5.46718,3.51311,9.3009,9.3009,0,0,1-5.29976-.37364,2.05344,2.05344,0,0,1-.28735-.165,2.06832,2.06832,0,0,1,.08506-.26153,17.85734,17.85734,0,0,1,3.54538-5.10356,10.19587,10.19587,0,0,1,5.58627-2.9168A9.48543,9.48543,0,0,1,35.46191,10.95819Z"/>
      <path class="cls-1" d="M56.23758,6.427c-.23509,1.20746-.46146,2.36735-.6867,3.52746q-.66407,3.42035-1.32817,6.8407c-.06533.33525-.169.4229-.49581.432-.23412.00649-.46905.00992-.70276-.00207-.30076-.01543-.36017-.09735-.30389-.39175q.41038-2.14652.82332-4.29256.565-2.9354,1.13373-5.8701a3.2759,3.2759,0,0,1,.1677-.636,1.14562,1.14562,0,0,1,.84317-.66709c.52074-.125,1.0445-.24343,1.57257-.33083a14.997,14.997,0,0,1,3.1281-.17448,5.61731,5.61731,0,0,1,2.39828.52981,2.52118,2.52118,0,0,1,1.38481,1.9331,6.32054,6.32054,0,0,1-.13562,2.25124c-.391,2.06624-.80211,4.1287-1.20661,6.19239-.074.37752-.16319.75228-.22846,1.13122a.35007.35007,0,0,1-.39613.32842c-.24808-.00176-.49672.00927-.74413-.00392-.29-.01546-.33893-.08175-.2867-.35733q.45683-2.41028.9169-4.81995c.19481-1.02633.41408-2.04911.56769-3.08162a4.29382,4.29382,0,0,0-.04232-1.30892,1.57994,1.57994,0,0,0-1.0627-1.22351,4.08762,4.08762,0,0,0-.99285-.26783,8.26529,8.26529,0,0,0-2.22232-.03352c-.54308.08-1.09215.11863-1.63747.18463A4.24991,4.24991,0,0,0,56.23758,6.427Z"/>
      <path class="cls-1" d="M94.73378,5.26276c-.05224.37468-.08328.67127-.13816.96339-.03323.17695-.187.18017-.33028.16214-.47687-.06-.95208-.136-1.43018-.18282a10.22,10.22,0,0,0-2.92109.04778,2.69487,2.69487,0,0,0-1.05594.43656,1.6868,1.6868,0,0,0,.21392,2.90288c.4437.247.92207.43172,1.38492.64422.538.247,1.09486.4604,1.60834.75066a4.356,4.356,0,0,1,1.074.82186,2.66809,2.66809,0,0,1,.535,2.55581A3.72126,3.72126,0,0,1,90.778,17.22286a7.46467,7.46467,0,0,1-2.82319.20782c-.505-.05875-1.01687-.05852-1.522-.1164a10.52452,10.52452,0,0,1-1.17434-.21543c-.29635-.06871-.32649-.136-.28834-.43877.01025-.08136.043-.15993.05266-.2413.05779-.48935.13077-.532.66474-.45608a23.06376,23.06376,0,0,0,3.78559.23719,3.96574,3.96574,0,0,0,1.40563-.296,2.21668,2.21668,0,0,0,1.4328-2.08645,1.569,1.569,0,0,0-.70648-1.419,6.78217,6.78217,0,0,0-.97343-.53846c-.70853-.3373-1.435-.63782-2.13587-.98986a6.09327,6.09327,0,0,1-1.109-.70861,2.19963,2.19963,0,0,1-.74164-2.2354,3.42506,3.42506,0,0,1,2.80884-2.888,8.0913,8.0913,0,0,1,2.9946-.117C93.18267,5.01541,93.91311,5.13892,94.73378,5.26276Z"/>
      <path class="cls-1" d="M82.19185,4.82337a14.98955,14.98955,0,0,1,3.0296.38327c.35439.07167.396.14773.32811.51736-.12332.6714-.12581.68742-.79384.58331A17.70679,17.70679,0,0,0,81.624,6.14989a4.05506,4.05506,0,0,0-1.48475.31921,1.80828,1.80828,0,0,0-1.07927,1.87267,1.486,1.486,0,0,0,.75577,1.13115c.43649.25822.90795.4582,1.36778.67589.65944.3122,1.32649.6087,1.98107.93064a2.84819,2.84819,0,0,1,.57443.40065,2.76463,2.76463,0,0,1,.80439,3.0831,3.673,3.673,0,0,1-2.764,2.638,7.46416,7.46416,0,0,1-2.90459.23136c-.50543-.05808-1.01765-.058-1.52258-.11915A11.26767,11.26767,0,0,1,76.139,17.08c-.27577-.06469-.32714-.1403-.25656-.40856.17645-.67061.01868-.80272.92846-.67522a18.19938,18.19938,0,0,0,3.74956.19067,2.90823,2.90823,0,0,0,2.11189-.89881,2.18171,2.18171,0,0,0,.53262-1.80516,1.52548,1.52548,0,0,0-.75723-1.13359c-.46294-.26967-.94873-.50164-1.43215-.73426-.60816-.29264-1.23729-.54445-1.83161-.86209a4.93737,4.93737,0,0,1-.99694-.72388,2.12639,2.12639,0,0,1-.61424-2.11569,3.40959,3.40959,0,0,1,1.15408-2.08863A4.20568,4.20568,0,0,1,80.83738,4.948C81.28543,4.88284,81.74014,4.8634,82.19185,4.82337Z"/>
      <path class="cls-1" d="M19.76732,18.31382c-.69612-1.11652-1.27685-2.13649-1.94286-3.09733a12.97118,12.97118,0,0,0-5.00268-4.37629,5.76361,5.76361,0,0,0-.88184-.37467.565.565,0,0,1-.45726-.56029c-.04044-.45856-.14784-.91367-.15883-1.37188-.02387-.99528-.01327-1.99172.002-2.9874a8.7917,8.7917,0,0,1,.11554-.93689,3.01667,3.01667,0,0,1,.48775.03428,9.38108,9.38108,0,0,1,6.25046,4.76416A11.61124,11.61124,0,0,1,19.609,14.27686C19.69781,15.5867,19.71472,16.90142,19.76732,18.31382Z"/>
      <path class="cls-1" d="M20.61191,18.33919c0-1.24815-.062-2.35595.01256-3.45447A12.03,12.03,0,0,1,23.03669,8.0491a9.51424,9.51424,0,0,1,5.39538-3.41788,1.10609,1.10609,0,0,1,.21141-.02633,2.11425,2.11425,0,0,1,.22785.02086,18.86483,18.86483,0,0,1-.11655,5.679C24.85447,11.7057,22.46595,14.67,20.61191,18.33919Z"/>
      <path class="cls-1" d="M15.91411,5.45217a16.6566,16.6566,0,0,1,2.07141-3.422A18.661,18.661,0,0,1,19.6374.29846c.43256-.40787.49327-.37852.95275-.02854a11.03519,11.03519,0,0,1,2.62764,3.12193c.39838.648.73835,1.3319,1.12718,2.04068A10.08293,10.08293,0,0,0,20.117,11.15565,10.02126,10.02126,0,0,0,15.91411,5.45217Z"/>
    </g>
  </g>
</svg>
