<svg id="Layer_1" data-name="Layer 1" xmlns="http://www.w3.org/2000/svg" viewBox="0 0 87 35.91145">
  <defs>
    <style>
      .cls-1 {
        fill: #a12674;
      }

      .cls-2 {
        opacity: 0.4;
      }

      .cls-3 {
        opacity: 0.7;
      }
    </style>
  </defs>
  <title>WT-</title>
  <g>
    <g>
      <polygon class="cls-1" points="47.094 12.716 45.727 8.021 43.275 8.021 41.908 12.716 41.293 10.427 38.86 11.196 40.647 16.78 43.1 16.78 44.501 12.103 45.903 16.78 48.355 16.78 51.158 8.021 48.355 8.021 47.094 12.716"/>
      <path class="cls-1" d="M56.0632,7.77579a4.60587,4.60587,0,0,0-4.64247,4.62488,4.64247,4.64247,0,1,0,9.28485,0A4.60587,4.60587,0,0,0,56.0632,7.77579Zm1.43649,6.11394a2.074,2.074,0,0,1-2.87307,0,2.01515,2.01515,0,0,1-.57807-1.48906,2.01578,2.01578,0,0,1,.57807-1.48906,2.074,2.074,0,0,1,2.87307,0,2.01578,2.01578,0,0,1,.57807,1.48906A2.01515,2.01515,0,0,1,57.49969,13.88973Z"/>
      <polygon class="cls-1" points="77.205 8.021 74.139 8.021 71.511 11.858 71.511 4.517 68.883 4.517 68.883 16.78 71.511 16.78 71.511 12.909 74.314 16.78 77.292 16.78 74.016 12.401 77.205 8.021"/>
      <path class="cls-1" d="M42.07878,21.12408V18.67157l-2.62771.78825v1.66426H38.04956v2.52267h1.40151V26.7475a3.19777,3.19777,0,0,0,.96345,2.66289,5.10442,5.10442,0,0,0,3.46874.47293V27.50087a4.11548,4.11548,0,0,1-1.384-.08755.62082.62082,0,0,1-.42046-.66582V21.12408Z"/>
      <path class="cls-1" d="M52.3844,21.94752a3.24158,3.24158,0,0,0-2.61012-1.0687,3.89441,3.89441,0,0,0-2.96073,1.34894,4.65581,4.65581,0,0,0-1.22631,3.27595,4.67822,4.67822,0,0,0,1.22631,3.29344,3.88013,3.88013,0,0,0,2.96073,1.33145A3.24057,3.24057,0,0,0,52.3844,29.06v.82333h2.62771V21.12408H52.3844Zm-.57807,5.11541a2.25232,2.25232,0,0,1-3.01319,0,2.39172,2.39172,0,0,1,0-3.11834,2.25232,2.25232,0,0,1,3.01319,0,2.39172,2.39172,0,0,1,0,3.11834Z"/>
      <path class="cls-1" d="M66.41294,27.6609a1.96364,1.96364,0,0,1-2.31243-.75881l6.08113-1.30257a5.16816,5.16816,0,0,0-.11735-1.04982A4.49536,4.49536,0,0,0,68.124,21.59718a4.18476,4.18476,0,0,0-3.37934-.6378,4.683,4.683,0,0,0-1.60972,8.46073,4.85592,4.85592,0,0,0,3.73548.54351,4.37472,4.37472,0,0,0,3.35641-2.56425l-2.30874-.7416A2.17384,2.17384,0,0,1,66.41294,27.6609Zm-1.19749-4.41953a1.74479,1.74479,0,0,1,2.10562.96429l-3.68292.78888A1.77762,1.77762,0,0,1,65.21545,23.24137Z"/>
      <path class="cls-1" d="M80.06293,24.50517a3.6377,3.6377,0,0,0-.94586-2.66279,3.06623,3.06623,0,0,0-2.33008-.96356,2.90588,2.90588,0,0,0-2.505,1.0687v-.82343H71.65409v8.75924H74.282V25.10083a1.87429,1.87429,0,0,1,.438-1.34894,1.57462,1.57462,0,0,1,1.19112-.45554,1.53657,1.53657,0,0,1,1.09488.403,1.55717,1.55717,0,0,1,.42926,1.19123v2.0004h2.62771Z"/>
      <path class="cls-1" d="M87,23.64675V21.12408H85.19562V18.67157l-2.62771.78825v1.66426H81.1665v2.52267h1.40141V26.7475a3.19777,3.19777,0,0,0,.96345,2.66289A5.1041,5.1041,0,0,0,87,29.88332V27.50087a4.11416,4.11416,0,0,1-1.38382-.08755.62067.62067,0,0,1-.42056-.66582V23.64675Z"/>
      <polygon class="cls-1" points="64.822 9.58 64.822 8.021 62.195 8.021 62.195 16.78 64.822 16.78 64.822 12.821 64.822 9.58"/>
      <path class="cls-1" d="M44.15282,21.15115a1.34754,1.34754,0,1,0,1.07777,1.32026A1.35311,1.35311,0,0,0,44.15282,21.15115Z"/>
      <circle class="cls-1" cx="78.7156" cy="28.74304" r="1.34733"/>
      <circle class="cls-1" cx="39.35137" cy="9.08063" r="1.34733" transform="translate(-0.90678 12.28522) rotate(-17.54519)"/>
      <circle class="cls-1" cx="66.6125" cy="9.36838" r="1.34733"/>
      <polygon class="cls-1" points="59.567 20.848 59.567 18.672 56.939 19.46 56.939 20.848 56.939 20.848 56.939 29.883 59.567 29.883 59.567 20.848 59.567 20.848"/>
    </g>
    <g>
      <path class="cls-1" d="M28.56446,4.85539A16.13071,16.13071,0,0,0,16.71015,0h-.00043A16.13062,16.13062,0,0,0,4.85542,4.85539,16.0574,16.0574,0,0,0,0,16.647a18.0706,18.0706,0,0,0,.34875,3.55457,15.9606,15.9606,0,0,0,4.50665,8.3q.60617.60626,1.24915,1.13495H6.10377l.01819.013a16.05,16.05,0,0,0,1.90131,1.32611c.1322.08862.25348.16895.34351.22528,2.02887,1.27039,8.33459,4.70581,8.343,4.71039v.00018l.00024-.00006.00018.00006v-.00018c.00836-.00458,6.31409-3.44,8.3429-4.71039.09009-.05634.21136-.13666.34357-.22528a16.055,16.055,0,0,0,1.90131-1.32611l.01819-.013h-.00079q.64252-.52954,1.24915-1.13495a15.96007,15.96007,0,0,0,4.50659-8.3,18.06593,18.06593,0,0,0,.34882-3.55457A16.0574,16.0574,0,0,0,28.56446,4.85539Zm-.56189,4.68732q-.61588.61835-1.23383,1.23462-1.41531,1.41541-2.83069,2.83075A7.87049,7.87049,0,1,1,19.669,9.41094Q21.71589,7.3662,23.7602,5.319a.26749.26749,0,0,1,.3139-.08954.27367.27367,0,0,1,.15485.28906q-.00165.86105-.00049,1.72217c.00006.57019.0033,1.14038-.00262,1.71051a.15748.15748,0,0,0,.02472.1026c.02167.02777.05853.03809.12048.03784,1.14423-.00378,2.28845-.00171,3.43274-.00311a.28182.28182,0,0,1,.24945.09924A.25237.25237,0,0,1,28.00257,9.54271Z"/>
      <g class="cls-2">
        <path class="cls-1" d="M19.13026,10.51836c.002.85522-.00122,1.71051.003,2.56573a.32433.32433,0,0,1-.10742.25446q-.89914.8898-1.79156,1.78644c-.40924.4093-.47089.4823-.59723.61792l-.02313.00262-.63965.63989a.67365.67365,0,0,0,.0127.9649c.0144.01361.03082.02356.046.03571l8.21759-8.33221a.15748.15748,0,0,1-.02472-.1026c.00592-.57013.00269-1.14032.00262-1.71051q0-.86115.00049-1.72217a.27367.27367,0,0,0-.15485-.28906.26749.26749,0,0,0-.3139.08954Q21.71574,7.36614,19.669,9.41094l-.14.14008A1.30771,1.30771,0,0,0,19.13026,10.51836Z"/>
      </g>
      <g class="cls-3">
        <path class="cls-1" d="M27.80378,9.08855c-1.14429.0014-2.28851-.00067-3.43274.00311-.062.00024-.09882-.01007-.12048-.03784L16.033,17.386a.67153.67153,0,0,0,.89417-.04816l.131-.1311.0155.01672c1.29688-1.297,1.6062-1.63794,2.90137-2.93658a.3392.3392,0,0,1,.26532-.11084c.85907.00488,1.71826.0011,2.57745.00342a1.26783,1.26783,0,0,0,.93585-.387l.18439-.18439q1.41531-1.41541,2.83069-2.83075.61707-.61716,1.23383-1.23462a.25237.25237,0,0,0,.05066-.35492A.28182.28182,0,0,0,27.80378,9.08855Z"/>
      </g>
    </g>
  </g>
</svg>
