<?xml version="1.0" encoding="utf-8"?>
<!-- Generator: Adobe Illustrator 21.1.0, SVG Export Plug-In . SVG Version: 6.00 Build 0)  -->
<svg version="1.1" id="Layer_1" xmlns="http://www.w3.org/2000/svg" xmlns:xlink="http://www.w3.org/1999/xlink" x="0px" y="0px"
	 viewBox="0 0 87 35.9" style="enable-background:new 0 0 87 35.9;" xml:space="preserve">
<style type="text/css">
	.st0{fill:#FFFFFF;}
	.st1{opacity:0.4;}
	.st2{opacity:0.7;}
</style>
<title>WT-</title>
<g>
	<g>
		<polygon class="st0" points="47.1,12.7 45.7,8 43.3,8 41.9,12.7 41.3,10.4 38.9,11.2 40.6,16.8 43.1,16.8 44.5,12.1 45.9,16.8 
			48.4,16.8 51.2,8 48.4,8 		"/>
		<path class="st0" d="M56.1,7.8c-2.5,0-4.6,2-4.6,4.6c0,0,0,0,0,0.1c0,2.6,2.1,4.7,4.6,4.7c2.6,0,4.7-2.1,4.7-4.6c0,0,0,0,0,0
			C60.7,9.9,58.7,7.8,56.1,7.8C56.1,7.8,56.1,7.8,56.1,7.8z M57.5,13.9c-0.8,0.8-2.1,0.8-2.9,0C54.2,13.5,54,13,54,12.4
			c0-0.6,0.2-1.1,0.6-1.5c0.8-0.8,2.1-0.8,2.9,0c0.4,0.4,0.6,0.9,0.6,1.5C58.1,13,57.9,13.5,57.5,13.9z"/>
		<polygon class="st0" points="77.2,8 74.1,8 71.5,11.9 71.5,4.5 68.9,4.5 68.9,16.8 71.5,16.8 71.5,12.9 74.3,16.8 77.3,16.8 
			74,12.4 		"/>
		<path class="st0" d="M42.1,21.1v-2.5l-2.6,0.8v1.7h-1.4v2.5h1.4v3.1c-0.1,1,0.2,2,1,2.7c1.1,0.6,2.3,0.7,3.5,0.5v-2.4
			c-0.5,0-0.9,0-1.4-0.1c-0.3-0.1-0.5-0.4-0.4-0.7L42.1,21.1L42.1,21.1z"/>
		<path class="st0" d="M52.4,21.9c-0.7-0.7-1.6-1.1-2.6-1.1c-1.1,0-2.2,0.5-3,1.3c-0.8,0.9-1.3,2.1-1.2,3.3c0,1.2,0.4,2.4,1.2,3.3
			c0.7,0.9,1.8,1.3,3,1.3c1,0.1,1.9-0.3,2.6-1.1v0.8H55v-8.8h-2.6V21.9z M51.8,27.1c-0.9,0.8-2.2,0.8-3,0c-0.8-0.9-0.8-2.2,0-3.1
			c0.9-0.8,2.2-0.8,3,0C52.6,24.8,52.6,26.2,51.8,27.1z"/>
		<path class="st0" d="M66.4,27.7c-0.9,0.3-1.8,0-2.3-0.8l6.1-1.3c0-0.4,0-0.7-0.1-1c-0.2-1.2-0.9-2.3-1.9-3c-1-0.7-2.2-0.9-3.4-0.6
			c-2.5,0.6-4.1,3.1-3.6,5.6c0.3,1.2,1,2.2,2,2.9c1.1,0.7,2.5,0.9,3.7,0.5c1.5-0.2,2.8-1.2,3.4-2.6l-2.3-0.7
			C67.6,27.2,67,27.6,66.4,27.7z M65.2,23.2c0.8-0.3,1.7,0.2,2.1,1L63.6,25C63.6,24.1,64.3,23.3,65.2,23.2z"/>
		<path class="st0" d="M80.1,24.5c0.1-1-0.3-1.9-0.9-2.7c-0.6-0.6-1.5-1-2.3-1c-1-0.1-1.9,0.3-2.5,1.1v-0.8h-2.6v8.8h2.6v-4.8
			c0-0.5,0.1-1,0.4-1.3c0.3-0.3,0.7-0.5,1.2-0.5c0.4,0,0.8,0.1,1.1,0.4c0.3,0.3,0.5,0.8,0.4,1.2v2h2.6L80.1,24.5z"/>
		<path class="st0" d="M87,23.6v-2.5h-1.8v-2.5l-2.6,0.8v1.7h-1.4v2.5h1.4v3.1c-0.1,1,0.2,2,1,2.7c1.1,0.6,2.3,0.7,3.5,0.5v-2.4
			c-0.5,0-0.9,0-1.4-0.1c-0.3-0.1-0.5-0.4-0.4-0.7v-3.1H87z"/>
		<polygon class="st0" points="64.8,9.6 64.8,8 62.2,8 62.2,16.8 64.8,16.8 64.8,12.8 		"/>
		<path class="st0" d="M44.2,21.2c-0.7-0.1-1.4,0.3-1.6,1.1s0.3,1.4,1.1,1.6c0.7,0.1,1.4-0.3,1.6-1.1c0-0.1,0-0.2,0-0.3
			C45.2,21.8,44.8,21.3,44.2,21.2z"/>
		<circle class="st0" cx="78.7" cy="28.7" r="1.3"/>
		<ellipse transform="matrix(0.9535 -0.3015 0.3015 0.9535 -0.9072 12.2857)" class="st0" cx="39.4" cy="9.1" rx="1.3" ry="1.3"/>
		<circle class="st0" cx="66.6" cy="9.4" r="1.3"/>
		<polygon class="st0" points="59.6,20.8 59.6,18.7 56.9,19.5 56.9,20.8 56.9,20.8 56.9,29.9 59.6,29.9 59.6,20.8 		"/>
	</g>
	<g>
		<path class="st0" d="M28.6,4.9C25.5,1.7,21.2-0.1,16.7,0h0C12.3-0.1,8,1.7,4.9,4.9C1.7,7.9-0.1,12.2,0,16.6c0,1.2,0.1,2.4,0.3,3.6
			c0.6,3.2,2.2,6.1,4.5,8.3c0.4,0.4,0.8,0.8,1.2,1.1h0l0,0C6.7,30.1,7.4,30.6,8,31c0.1,0.1,0.3,0.2,0.3,0.2c2,1.3,8.3,4.7,8.3,4.7v0
			l0,0l0,0v0c0,0,6.3-3.4,8.3-4.7c0.1-0.1,0.2-0.1,0.3-0.2c0.7-0.4,1.3-0.8,1.9-1.3l0,0h0c0.4-0.4,0.8-0.7,1.2-1.1
			c2.3-2.2,3.9-5.1,4.5-8.3c0.2-1.2,0.4-2.4,0.3-3.6C33.5,12.2,31.7,7.9,28.6,4.9z M28,9.5c-0.4,0.4-0.8,0.8-1.2,1.2
			c-0.9,0.9-1.9,1.9-2.8,2.8c1.7,4-0.1,8.6-4.1,10.3c-4,1.7-8.6-0.1-10.3-4.1s0.1-8.6,4.1-10.3c1.9-0.8,4.1-0.8,6.1-0.1
			C21,8,22.4,6.7,23.8,5.3c0.1-0.1,0.2-0.1,0.3-0.1c0.1,0.1,0.2,0.2,0.2,0.3c0,0.6,0,1.1,0,1.7c0,0.6,0,1.1,0,1.7c0,0,0,0.1,0,0.1
			c0,0,0.1,0,0.1,0c1.1,0,2.3,0,3.4,0c0.1,0,0.2,0,0.2,0.1C28.1,9.3,28.1,9.5,28,9.5C28,9.5,28,9.5,28,9.5z"/>
		<g class="st1">
			<path class="st0" d="M19.1,10.5c0,0.9,0,1.7,0,2.6c0,0.1,0,0.2-0.1,0.3c-0.6,0.6-1.2,1.2-1.8,1.8c-0.4,0.4-0.5,0.5-0.6,0.6l0,0
				L16,16.4c-0.3,0.3-0.3,0.7,0,1c0,0,0,0,0,0c0,0,0,0,0,0l8.2-8.3c0,0,0-0.1,0-0.1c0-0.6,0-1.1,0-1.7c0-0.6,0-1.1,0-1.7
				c0-0.1,0-0.2-0.2-0.3c-0.1,0-0.2,0-0.3,0.1C22.4,6.7,21,8,19.7,9.4l-0.1,0.1C19.3,9.8,19.1,10.2,19.1,10.5z"/>
		</g>
		<g class="st2">
			<path class="st0" d="M27.8,9.1c-1.1,0-2.3,0-3.4,0c-0.1,0-0.1,0-0.1,0L16,17.4c0.3,0.2,0.7,0.2,0.9,0l0.1-0.1l0,0
				c1.3-1.3,1.6-1.6,2.9-2.9c0.1-0.1,0.2-0.1,0.3-0.1c0.9,0,1.7,0,2.6,0c0.4,0,0.7-0.1,0.9-0.4l0.2-0.2c0.9-0.9,1.9-1.9,2.8-2.8
				c0.4-0.4,0.8-0.8,1.2-1.2c0.1-0.1,0.1-0.2,0.1-0.4c0,0,0,0,0,0C28,9.1,27.9,9.1,27.8,9.1z"/>
		</g>
	</g>
</g>
</svg>
