<?xml version="1.0" encoding="utf-8"?>
<!-- Generator: Adobe Illustrator 21.1.0, SVG Export Plug-In . SVG Version: 6.00 Build 0)  -->
<svg version="1.1" id="Layer_1" xmlns="http://www.w3.org/2000/svg" xmlns:xlink="http://www.w3.org/1999/xlink" x="0px" y="0px"
	 viewBox="0 0 85 85" style="enable-background:new 0 0 85 85;" xml:space="preserve">
<style type="text/css">
	.st0{opacity:0.55;}
	.st1{fill:#FFFFFF;}
	.st2{opacity:0.4;fill:#FFFFFF;}
	.st3{opacity:0.6;fill:#FFFFFF;}
</style>
<g class="st0">
	<path class="st1" d="M69.6,12.5C62.2,5.1,53.2,1.4,42.5,1.4c0,0,0,0,0,0h0c0,0,0,0,0,0c-10.7,0-19.7,3.7-27.1,11.1
		C8,19.9,4.2,28.9,4.2,39.5c0,2.8,0.3,5.5,0.8,8.1c1.4,7.2,4.9,13.6,10.3,19c0.9,0.9,1.9,1.8,2.9,2.6h0c0,0,0,0,0,0
		c1.4,1.1,2.9,2.1,4.4,3c0.3,0.2,0.6,0.4,0.8,0.5c4.6,2.9,19.1,10.8,19.1,10.8v0l0,0l0,0v0c0,0,14.5-7.9,19.1-10.8
		c0.2-0.1,0.5-0.3,0.8-0.5c1.5-0.9,3-1.9,4.4-3c0,0,0,0,0,0h0c1-0.8,1.9-1.7,2.9-2.6c5.4-5.4,8.9-11.8,10.3-19
		c0.5-2.6,0.8-5.3,0.8-8.1C80.8,28.9,77,19.9,69.6,12.5z M68.3,23.2c-0.9,0.9-1.9,1.9-2.8,2.8c-2.2,2.2-4.3,4.3-6.5,6.5
		c0.9,2.2,1.4,4.5,1.4,7c0,9.9-8,18-18,18s-18-8-18-18s8-18,18-18c2.4,0,4.7,0.5,6.8,1.3c3.1-3.1,6.2-6.2,9.4-9.4
		c0.2-0.2,0.4-0.3,0.7-0.2c0.3,0.1,0.4,0.4,0.4,0.7c0,1.3,0,2.6,0,3.9c0,1.3,0,2.6,0,3.9c0,0.1,0,0.2,0.1,0.2c0,0.1,0.1,0.1,0.3,0.1
		c2.6,0,5.2,0,7.9,0c0.2,0,0.4,0,0.6,0.2C68.7,22.7,68.6,23,68.3,23.2z"/>
	<path class="st2" d="M48,25.5c0,2,0,3.9,0,5.9c0,0.2-0.1,0.4-0.2,0.6c-1.4,1.4-2.7,2.7-4.1,4.1c-0.9,0.9-1.1,1.1-1.4,1.4l-0.1,0
		l-1.5,1.5c-0.6,0.6-0.6,1.6,0,2.2c0,0,0.1,0.1,0.1,0.1l18.8-19.1c0,0-0.1-0.1-0.1-0.2c0-1.3,0-2.6,0-3.9c0-1.3,0-2.6,0-3.9
		c0-0.3-0.1-0.5-0.4-0.7c-0.3-0.1-0.5,0-0.7,0.2c-3.1,3.1-6.2,6.2-9.4,9.4c-0.1,0.1-0.2,0.2-0.3,0.3C48.3,23.9,48,24.6,48,25.5z"/>
	<path class="st3" d="M67.9,22.2c-2.6,0-5.2,0-7.9,0c-0.1,0-0.2,0-0.3-0.1L41,41.2c0.6,0.5,1.5,0.4,2-0.1l0.3-0.3c0,0,0,0,0,0
		c3-3,3.7-3.7,6.6-6.7c0.2-0.2,0.4-0.3,0.6-0.3c2,0,3.9,0,5.9,0c0.8,0,1.6-0.3,2.1-0.9c0.1-0.1,0.3-0.3,0.4-0.4
		c2.2-2.2,4.3-4.3,6.5-6.5c0.9-0.9,1.9-1.9,2.8-2.8c0.3-0.3,0.3-0.6,0.1-0.8C68.3,22.2,68.1,22.2,67.9,22.2z"/>
</g>
</svg>
