<svg id="Layer_1" data-name="Layer 1" xmlns="http://www.w3.org/2000/svg" xmlns:xlink="http://www.w3.org/1999/xlink" viewBox="0 0 64 35.4">
  <defs>
    <style>
      .cls-1 {
        fill: #fff;
      }

      .cls-2 {
        clip-path: url(#clip-path);
      }
    </style>
    <clipPath id="clip-path">
      <path class="cls-1" d="M4.30518,28.27636V19.36277c0-.485.18181-.60635.60641-.60635H8.85293a3.10685,3.10685,0,0,1,3.39565,3.335,3.0081,3.0081,0,0,1-1.63729,2.911,3.33048,3.33048,0,0,1,.30317.485l1.45518,2.789c.18213.36357.12141.60635-.30312.60635H10.91446c-.72771,0-.97024-.12141-1.21271-.54534L8.67087,26.15412c-.30323-.66675-.5457-.84913-1.39453-.84913H6.67v2.97137c0,.48494-.18181.60635-.60641.60635h-1.152c-.4246,0-.60641-.18177-.60641-.60635m9.33792,0V19.36277c0-.485.18176-.60635.60635-.60635h5.6997c.48525,0,.60635.12136.66707.54595v.96993c0,.42454-.18182.54658-.607.54658H16.00843v1.81849H19.2821c.48592,0,.60641.12141.60641.54533v.97056c0,.485-.18181.60641-.60641.60641H16.00843v1.941h4.1228c.42428,0,.60641.18118.60641.60635v.96936c0,.48494-.18213.60635-.60641.60635H14.24946c-.4246,0-.60635-.18177-.60635-.60635m8.30724,0V19.36277c0-.485.18118-.60635.60635-.60635h3.81993a3.17042,3.17042,0,0,1,3.45636,3.396,3.17,3.17,0,0,1-3.45636,3.3954H24.3151v2.72859c0,.48494-.18212.60635-.60641.60635h-1.152c-.42517,0-.60635-.18177-.60635-.60635m18.67574,0V19.36277c0-.485.18119-.60635.60574-.60635h3.94192a3.13547,3.13547,0,0,1,3.3954,3.335,3.00849,3.00849,0,0,1-1.63668,2.911,3.33048,3.33048,0,0,1,.30317.485l1.45482,2.789c.18186.36357.12152.60635-.30369.60635H47.23564c-.72787,0-.97112-.12141-1.21219-.54534l-1.03136-2.18325c-.30328-.66675-.54611-.84913-1.39457-.84913h-.60635v2.97137c0,.48494-.18238.60635-.60635.60635h-1.153c-.42454,0-.60574-.18177-.60574-.60635m8.61046-7.943v-.97054c0-.485.18114-.60635.60626-.60635h6.7914c.424,0,.54476.12136.60635.54595v.96993c0,.42454-.18238.54658-.60635.54658H54.39056v7.45749c0,.48494-.18124.60635-.60635.60635H52.632c-.42469,0-.54538-.18177-.54538-.60635V20.87865H49.84281c-.48494,0-.60626-.12074-.60626-.54533M30.803,25.18476V22.33418c0-2.36506,1.51583-3.81936,4.18408-3.81936,2.66762,0,4.18356,1.4543,4.18356,3.81936v2.85058c0,2.36387-1.45492,3.82-4.18356,3.82-2.66825,0-4.18408-1.45611-4.18408-3.82M0,30.70183H63.54632V15.96737H0ZM12.91534,9.60061a21.34,21.34,0,0,1,.24278-2.18294l.78755-4.36558c.122-.4246.3038-.4853.78879-.4853h1.15231c.42428,0,.48493.12141.48493.60635L14.128,12.20784c-.12105.42516-.30318.4853-.72746.4853h-1.152c-.42516,0-.66706-.12141-.72777-.4853l-1.152-4.6081a9.98371,9.98371,0,0,1-.24247-1.94047h-.12136a10.63382,10.63382,0,0,1-.24247,1.94047l-1.152,4.54713c-.122.42485-.36388.48613-.72782.48613h-1.152c-.4246,0-.60635-.122-.72771-.48613L3.75953,3.11248c-.122-.36362-.06065-.54569.36358-.54569H5.45723c.485,0,.66707.0607.78873.4853l.72715,4.36558a19.66287,19.66287,0,0,1,.24247,2.18294H7.337a12.2466,12.2466,0,0,1,.30317-2.18294l1.152-4.36558c.06076-.4246.30266-.4853.72782-.4853h1.09129c.485,0,.66706.0607.78816.4853l1.0916,4.36558a12.26949,12.26949,0,0,1,.30318,2.18294Zm4.4873,2.48618V3.17314c0-.48494.18181-.60635.60635-.60635h5.6997c.42429,0,.60641.12141.66707.54569v.97018c0,.4246-.1815.5457-.60635.5457H19.768V6.44743h3.27362c.485,0,.60641.122.60641.546v.96993c0,.4853-.18182.60635-.60641.60635H19.768V10.5102h4.1225c.42459,0,.60635.18176.60635.60635v.97024c0,.48494-.18177.60635-.60635.60635H18.009c-.42454,0-.60635-.18213-.60635-.60635m8.24627,0V3.17314c0-.48494.18269-.60635.6063-.60635h4.00206c1.94017,0,3.03214.90952,3.03214,2.72864a2.39068,2.39068,0,0,1-.97061,2.12224v.06066a2.36206,2.36206,0,0,1,1.33356,2.426c0,1.8185-1.394,2.78879-3.335,2.78879H26.25522c-.42361,0-.6063-.18213-.6063-.60635M0,14.75528H38.62522V.02027H0Z"/>
    </clipPath>
  </defs>
  <title>WR-09</title>
  <g>
    <g>
      <path class="cls-1" d="M4.30518,28.27636V19.36277c0-.485.18181-.60635.60641-.60635H8.85293a3.10685,3.10685,0,0,1,3.39565,3.335,3.0081,3.0081,0,0,1-1.63729,2.911,3.33048,3.33048,0,0,1,.30317.485l1.45518,2.789c.18213.36357.12141.60635-.30312.60635H10.91446c-.72771,0-.97024-.12141-1.21271-.54534L8.67087,26.15412c-.30323-.66675-.5457-.84913-1.39453-.84913H6.67v2.97137c0,.48494-.18181.60635-.60641.60635h-1.152c-.4246,0-.60641-.18177-.60641-.60635m9.33792,0V19.36277c0-.485.18176-.60635.60635-.60635h5.6997c.48525,0,.60635.12136.66707.54595v.96993c0,.42454-.18182.54658-.607.54658H16.00843v1.81849H19.2821c.48592,0,.60641.12141.60641.54533v.97056c0,.485-.18181.60641-.60641.60641H16.00843v1.941h4.1228c.42428,0,.60641.18118.60641.60635v.96936c0,.48494-.18213.60635-.60641.60635H14.24946c-.4246,0-.60635-.18177-.60635-.60635m8.30724,0V19.36277c0-.485.18118-.60635.60635-.60635h3.81993a3.17042,3.17042,0,0,1,3.45636,3.396,3.17,3.17,0,0,1-3.45636,3.3954H24.3151v2.72859c0,.48494-.18212.60635-.60641.60635h-1.152c-.42517,0-.60635-.18177-.60635-.60635m18.67574,0V19.36277c0-.485.18119-.60635.60574-.60635h3.94192a3.13547,3.13547,0,0,1,3.3954,3.335,3.00849,3.00849,0,0,1-1.63668,2.911,3.33048,3.33048,0,0,1,.30317.485l1.45482,2.789c.18186.36357.12152.60635-.30369.60635H47.23564c-.72787,0-.97112-.12141-1.21219-.54534l-1.03136-2.18325c-.30328-.66675-.54611-.84913-1.39457-.84913h-.60635v2.97137c0,.48494-.18238.60635-.60635.60635h-1.153c-.42454,0-.60574-.18177-.60574-.60635m8.61046-7.943v-.97054c0-.485.18114-.60635.60626-.60635h6.7914c.424,0,.54476.12136.60635.54595v.96993c0,.42454-.18238.54658-.60635.54658H54.39056v7.45749c0,.48494-.18124.60635-.60635.60635H52.632c-.42469,0-.54538-.18177-.54538-.60635V20.87865H49.84281c-.48494,0-.60626-.12074-.60626-.54533M30.803,25.18476V22.33418c0-2.36506,1.51583-3.81936,4.18408-3.81936,2.66762,0,4.18356,1.4543,4.18356,3.81936v2.85058c0,2.36387-1.45492,3.82-4.18356,3.82-2.66825,0-4.18408-1.45611-4.18408-3.82M0,30.70183H63.54632V15.96737H0ZM12.91534,9.60061a21.34,21.34,0,0,1,.24278-2.18294l.78755-4.36558c.122-.4246.3038-.4853.78879-.4853h1.15231c.42428,0,.48493.12141.48493.60635L14.128,12.20784c-.12105.42516-.30318.4853-.72746.4853h-1.152c-.42516,0-.66706-.12141-.72777-.4853l-1.152-4.6081a9.98371,9.98371,0,0,1-.24247-1.94047h-.12136a10.63382,10.63382,0,0,1-.24247,1.94047l-1.152,4.54713c-.122.42485-.36388.48613-.72782.48613h-1.152c-.4246,0-.60635-.122-.72771-.48613L3.75953,3.11248c-.122-.36362-.06065-.54569.36358-.54569H5.45723c.485,0,.66707.0607.78873.4853l.72715,4.36558a19.66287,19.66287,0,0,1,.24247,2.18294H7.337a12.2466,12.2466,0,0,1,.30317-2.18294l1.152-4.36558c.06076-.4246.30266-.4853.72782-.4853h1.09129c.485,0,.66706.0607.78816.4853l1.0916,4.36558a12.26949,12.26949,0,0,1,.30318,2.18294Zm4.4873,2.48618V3.17314c0-.48494.18181-.60635.60635-.60635h5.6997c.42429,0,.60641.12141.66707.54569v.97018c0,.4246-.1815.5457-.60635.5457H19.768V6.44743h3.27362c.485,0,.60641.122.60641.546v.96993c0,.4853-.18182.60635-.60641.60635H19.768V10.5102h4.1225c.42459,0,.60635.18176.60635.60635v.97024c0,.48494-.18177.60635-.60635.60635H18.009c-.42454,0-.60635-.18213-.60635-.60635m8.24627,0V3.17314c0-.48494.18269-.60635.6063-.60635h4.00206c1.94017,0,3.03214.90952,3.03214,2.72864a2.39068,2.39068,0,0,1-.97061,2.12224v.06066a2.36206,2.36206,0,0,1,1.33356,2.426c0,1.8185-1.394,2.78879-3.335,2.78879H26.25522c-.42361,0-.6063-.18213-.6063-.60635M0,14.75528H38.62522V.02027H0Z"/>
      <g class="cls-2">
        <rect class="cls-1" y="0.02027" width="63.54632" height="30.68156"/>
      </g>
    </g>
    <path class="cls-1" d="M53.59594,10.67032a.37437.37437,0,1,1,0-.7479.3742.3742,0,1,1,0,.7479m-.33341.4086h.66857V13.9532h-.66857Z"/>
    <path class="cls-1" d="M56.00541,11.55977a1.80406,1.80406,0,0,0-.31984-.0249,1.06774,1.06774,0,0,0-.3925.0631v2.35461h-.66795V11.23227a2.57062,2.57062,0,0,1,.97588-.20133,2.86068,2.86068,0,0,1,.598.053c-.0562.16613-.132.30112-.19355.47583"/>
    <path class="cls-1" d="M57.04815,14.00029a.41629.41629,0,1,1,.41807-.41336.40575.40575,0,0,1-.41807.41336"/>
    <polygon class="cls-1" points="48.84 9.363 46.748 14.428 47.379 14.428 49.471 9.363 48.84 9.363"/>
    <path class="cls-1" d="M51.7834,9.78507V13.4487a.96061.96061,0,0,1-.388.05362c-.48731,0-.73657-.37668-.73657-.99156,0-.56257.19129-.98654.71586-.98654.01832,0,.03675.00295.05506.00413v-.48142a1.35234,1.35234,0,0,0-.16633-.011c-.77983,0-1.27791.58359-1.27791,1.50083A1.32517,1.32517,0,0,0,51.3854,14.011a2.47474,2.47474,0,0,0,1.06054-.20665V9.78507Z"/>
    <path class="cls-1" d="M59.34925,11.03094a1.46487,1.46487,0,0,0-.23807.01957v.48137a.95925.95925,0,0,1,.11076-.00792c.48783,0,.66793.41916.66793.97583,0,.63119-.24987,1.01257-.73667,1.01257A1.40244,1.40244,0,0,1,58.76,13.465V11.79753H58.7577v-.941H58.76V9.78507H58.098v4.04019a2.65422,2.65422,0,0,0,1.03851.186,1.36106,1.36106,0,0,0,1.42665-1.52742c0-.86927-.46733-1.45285-1.21395-1.45285"/>
    <path class="cls-1" d="M62.52314,11.02566a1.33874,1.33874,0,0,0-1.40524,1.49043c0,.89561.50389,1.38385,1.21457,1.38385a1.47664,1.47664,0,0,0,.20785-.01573V13.4105c-.03075.003-.06221.00678-.09472.00678-.414,0-.66328-.29723-.66328-.92283,0-.60459.2392-.98059.71649-.98059a.98687.98687,0,0,1,.3867.05269l.01418,2.33867a.50436.50436,0,0,1-.318.493.86519.86519,0,0,1-.50388.1166,1.59224,1.59224,0,0,1-.601-.148c-.06822.16965-.13746.32569-.20495.49772a2.60051,2.60051,0,0,0,.98591.18559c.82787,0,1.288-.38692,1.288-1.22487v-2.614a2.58716,2.58716,0,0,0-1.02266-.18559"/>
    <path class="cls-1" d="M41.52378,13.93606a2.27987,2.27987,0,0,1-.89293-.1596V10.305h.56962v1.1843a1.09714,1.09714,0,0,1,.50569-.114c.64253,0,1.04279.50155,1.04279,1.24852a1.16959,1.16959,0,0,1-1.22517,1.31228m.07282-2.13709a.7637.7637,0,0,0-.39613.1045v1.563a1.18785,1.18785,0,0,0,.33635.04088c.41983,0,.6342-.3275.6342-.86958,0-.479-.15572-.83878-.57442-.83878"/>
    <path class="cls-1" d="M44.43656,14.14567c-.141.34634-.29127.53318-.59693.53318a1.23568,1.23568,0,0,1-.50564-.13234l.11375-.37837a.69467.69467,0,0,0,.26467.09088c.17276,0,.2273-.24542.27347-.405-.31022-.75179-.611-1.57716-.87041-2.43762h.60511c.119.47376.2653.97437.4335,1.47593.045.1596.08228.30556.10951.36922.01842-.02278.05921-.22353.10009-.36922.1504-.49172.27367-.961.40566-1.47593h.55605c-.27823.97437-.57023,1.88157-.88884,2.72926"/>
    <g>
      <path class="cls-1" d="M.41968,32.2851h.379v1.04424L1.9102,32.2851H2.407l-.96424.88841.98106,1.31368H1.93541l-.76633-1.061-.37041.3452v.71581h-.379Z"/>
      <path class="cls-1" d="M3.45165,34.55446c-.64,0-1.02313-.45042-1.02313-1.17037,0-.71586.38309-1.16633,1.02313-1.16633s1.02314.45047,1.02314,1.16633C4.47478,34.104,4.09164,34.55446,3.45165,34.55446Zm0-2.00832c-.42107,0-.64418.34944-.64418.83795,0,.4926.22311.842.64418.842s.64419-.34945.64419-.842C4.09584,32.89558,3.87272,32.54614,3.45165,32.54614Z"/>
      <path class="cls-1" d="M4.90046,32.2851h.37895v.88841H6.30673V32.2851h.379v2.20209h-.379v-.9853H5.27941v.9853H4.90046Z"/>
      <path class="cls-1" d="M7.27562,32.2851h.37889v1.04424L8.76609,32.2851h.49684l-.96424.88841.981,1.31368H8.79135l-.76633-1.061-.37051.3452v.71581H7.27562Z"/>
      <path class="cls-1" d="M9.35175,32.2851h.41683l.58529,1.79364h.00838l.58519-1.79364h.41693l-.84216,2.29048c-.2568.6947-.35782.80416-.75784.80416a.716.716,0,0,1-.21053-.02525v-.34106a.73623.73623,0,0,0,.22317.03793.26823.26823,0,0,0,.26949-.19367l.12208-.31161Z"/>
      <path class="cls-1" d="M11.66781,32.2851h.379v.30312h.00838a.66058.66058,0,0,1,.64838-.37046c.47164,0,.901.36207.901,1.08623,0,.90528-.38314,1.25048-.96837,1.25048a.66511.66511,0,0,1-.58105-.3157h-.00838v1.11572h-.379Zm.95579,1.941c.41693,0,.60217-.3537.60217-.82952,0-.49684-.18523-.85048-.60217-.85048-.4,0-.58524.35363-.58524.85048C12.03836,33.87244,12.22364,34.22614,12.6236,34.22614Z"/>
      <path class="cls-1" d="M15.76079,33.71243a.88249.88249,0,0,1-.94312.842c-.39152,0-.91786-.26943-.91786-1.15784a1.04959,1.04959,0,0,1,.95575-1.17886.82112.82112,0,0,1,.90523.80841h-.35363a.48368.48368,0,0,0-.50953-.48c-.41677,0-.61892.35363-.61892.87159,0,.581.22321.83365.59377.83365a.563.563,0,0,0,.53468-.539Z"/>
      <path class="cls-1" d="M17.875,33.17351h.15158c.20216,0,.50528-.05057.50528-.29474,0-.17679-.14734-.33262-.43789-.33262a.46969.46969,0,0,0-.49684.41263h-.35365a.7959.7959,0,0,1,.86311-.741c.39157,0,.80421.2021.80421.64414a.437.437,0,0,1-.36212.4337V33.304a.533.533,0,0,1,.4379.52639c0,.49264-.46316.72409-.89681.72409a.85.85,0,0,1-.9558-.74521h.379c.04208.32006.31157.41689.57256.41689.3453,0,.52215-.15159.52215-.38744,0-.20205-.15579-.36207-.51791-.36207a1.83467,1.83467,0,0,0-.21477.01262Z"/>
      <path class="cls-1" d="M19.408,32.94615c.01687-.539.38728-.72839.90524-.72839.42521,0,.83784.16841.83784.6105v1.27994a.11714.11714,0,0,0,.12209.13057.65139.65139,0,0,0,.12219-.01682v.261a.69564.69564,0,0,1-.2022.0337c-.261,0-.37884-.08421-.4-.32006a.99535.99535,0,0,1-.80841.35788.635.635,0,0,1-.67368-.63565.67683.67683,0,0,1,.66106-.69055l.619-.07576c.1179-.01269.18942-.08426.18942-.25692,0-.26529-.181-.37464-.50517-.37464-.33267,0-.49264.1431-.51376.42521Zm1.36424.421a1.5931,1.5931,0,0,1-.61059.139c-.27373.03783-.47153.1389-.47153.35782a.36389.36389,0,0,0,.4.38738c.22311,0,.68212-.15154.68212-.53053Z"/>
      <path class="cls-1" d="M24.78115,34.48718H23.1602v.539h-.35379v-.8674H23.097a4.98361,4.98361,0,0,0,.33268-1.87366h1.43572v1.87366h.26949v.8674h-.35369Zm-.29469-.32843V32.61352H23.7707a7.14608,7.14608,0,0,1-.11795.89685,3.565,3.565,0,0,1-.17265.64838Z"/>
      <path class="cls-1" d="M26.39,34.55446c-.64,0-1.02313-.45042-1.02313-1.17037,0-.71586.38308-1.16633,1.02313-1.16633s1.023.45047,1.023,1.16633C27.413,34.104,27.02993,34.55446,26.39,34.55446Zm0-2.00832c-.42112,0-.64429.34944-.64429.83795,0,.4926.22317.842.64429.842s.64418-.34945.64418-.842C27.03417,32.89558,26.811,32.54614,26.39,32.54614Z"/>
      <path class="cls-1" d="M29.54819,31.43881a.47706.47706,0,0,1-.18947.36212c-.0884.05894-.1179.06314-.4042.07571l-.15583.00844c-.42521.01693-.602.22741-.68207.72425a.87731.87731,0,0,1,.69475-.31575.95645.95645,0,0,1,.94318,1.07784,1.04862,1.04862,0,0,1-1.019,1.183.938.938,0,0,1-.8-.37465,1.43644,1.43644,0,0,1-.22735-.91367,2.63983,2.63983,0,0,1,.26949-1.25479.95012.95012,0,0,1,.88-.43784l.13472-.0042c.17685-.00844.23584-.01268.26949-.13052Zm-.81679,2.81258c.64843,0,.64419-.70314.64419-.86321,0-.40415-.16847-.79577-.63161-.79577-.45472,0-.65682.379-.65682.83376C28.08716,33.67035,28.14612,34.25139,28.7314,34.25139Z"/>
      <path class="cls-1" d="M30.15915,32.2851H30.538v.30312h.00843a.66073.66073,0,0,1,.64838-.37046c.47169,0,.901.36207.901,1.08623,0,.90528-.38308,1.25048-.96837,1.25048a.66525.66525,0,0,1-.58105-.3157H30.538v1.11572h-.37889Zm.95574,1.941c.41684,0,.60211-.3537.60211-.82952,0-.49684-.18528-.85048-.60211-.85048-.4,0-.58523.35363-.58523.85048C30.52966,33.87244,30.71494,34.22614,31.11489,34.22614Z"/>
      <path class="cls-1" d="M32.43323,32.94615c.01682-.539.38733-.72839.90524-.72839.42521,0,.83784.16841.83784.6105v1.27994a.11717.11717,0,0,0,.12209.13057.65086.65086,0,0,0,.12214-.01682v.261a.6952.6952,0,0,1-.2021.0337c-.261,0-.37889-.08421-.4-.32006a.99527.99527,0,0,1-.80841.35788.635.635,0,0,1-.67368-.63565.67679.67679,0,0,1,.661-.69055l.619-.07576c.1179-.01269.18942-.08426.18942-.25692,0-.26529-.181-.37464-.50523-.37464-.33262,0-.49259.1431-.51361.42521Zm1.36414.421a1.59229,1.59229,0,0,1-.61054.139c-.27363.03783-.47153.1389-.47153.35782a.36394.36394,0,0,0,.4.38738c.22317,0,.68206-.15154.68206-.53053Z"/>
      <path class="cls-1" d="M37.50743,33.18613h.10951l.80416-.901h.45476l-.94736,1.04424.981,1.15784h-.4674l-.82517-1.00211h-.10951v1.00211h-.37895V33.48507H37.019l-.83367,1.00211H35.718l.98949-1.15784L35.7643,32.2851h.459l.79577.901h.10946v-.901h.37895Z"/>
      <path class="cls-1" d="M39.00272,32.2851h.41683l.58524,1.79364h.00838l.58529-1.79364h.41688l-.842,2.29048c-.25691.6947-.35793.80416-.75793.80416a.71706.71706,0,0,1-.2106-.02525v-.34106a.73662.73662,0,0,0,.22322.03793.2683.2683,0,0,0,.26949-.19367l.122-.31161Z"/>
      <path class="cls-1" d="M41.31878,32.2851h.379v.30312h.00843a.66073.66073,0,0,1,.64838-.37046c.47159,0,.90115.36207.90115,1.08623,0,.90528-.38319,1.25048-.96858,1.25048a.6652.6652,0,0,1-.58095-.3157h-.00843v1.11572h-.379Zm.95584,1.941c.41678,0,.60206-.3537.60206-.82952,0-.49684-.18528-.85048-.60206-.85048-.4,0-.58528.35363-.58528.85048C41.68934,33.87244,41.87461,34.22614,42.27462,34.22614Z"/>
      <path class="cls-1" d="M43.68125,32.2851h.37905v.88841h1.02722V32.2851h.37916v2.20209h-.37916v-.9853H44.0603v.9853h-.37905Z"/>
      <path class="cls-1" d="M46.01848,32.94615c.017-.539.38754-.72839.90528-.72839.42532,0,.8378.16841.8378.6105v1.27994a.11716.11716,0,0,0,.12215.13057.65089.65089,0,0,0,.12214-.01682v.261a.695.695,0,0,1-.20215.0337c-.26094,0-.37895-.08421-.39986-.32006a.99546.99546,0,0,1-.8084.35788.635.635,0,0,1-.67374-.63565.67676.67676,0,0,1,.661-.69055l.61887-.07576c.1179-.01269.18963-.08426.18963-.25692,0-.26529-.181-.37464-.50544-.37464-.33257,0-.49259.1431-.51361.42521Zm1.36424.421a1.59315,1.59315,0,0,1-.61039.139c-.27378.03783-.47169.1389-.47169.35782a.3639.3639,0,0,0,.39986.38738c.22326,0,.68222-.15154.68222-.53053Z"/>
      <path class="cls-1" d="M49.84623,32.61352h-.86316l-.03363,1.05682c-.021.5768-.181.88412-.57261.88412a.32044.32044,0,0,1-.23579-.06728V34.1883a.42506.42506,0,0,0,.15992.03784c.15588,0,.24842-.12209.261-.62313l.04627-1.31791h1.6168v2.20209h-.37884Z"/>
      <path class="cls-1" d="M50.76456,32.2851h.37895v1.64625h.00838l.99782-1.64625h.4337v2.20209h-.37895v-1.6463h-.00838l-.99792,1.6463h-.4336Z"/>
      <path class="cls-1" d="M54.85335,33.71243a.88274.88274,0,0,1-.94327.842c-.39157,0-.91781-.26943-.91781-1.15784a1.04959,1.04959,0,0,1,.9558-1.17886.82128.82128,0,0,1,.90528.80841h-.35369a.48374.48374,0,0,0-.50957-.48c-.41683,0-.61888.35363-.61888.87159,0,.581.22317.83365.59362.83365a.56306.56306,0,0,0,.53483-.539Z"/>
      <path class="cls-1" d="M55.8136,32.61352h-.75779V32.2851h1.89462v.32843h-.75789v1.87366H55.8136Z"/>
      <path class="cls-1" d="M57.31707,32.2851H57.696v1.64625h.00859l.99783-1.64625h.4337v2.20209h-.37895v-1.6463h-.0086l-.99782,1.6463h-.4337Z"/>
      <path class="cls-1" d="M59.70915,32.2851H60.088v1.04424l1.11167-1.04424h.49675l-.96429.88841.98106,1.31368h-.48836l-.76628-1.061-.37055.3452v.71581h-.37885Z"/>
      <path class="cls-1" d="M62.01263,32.94615c.01686-.539.38742-.72839.90528-.72839.42511,0,.8378.16841.8378.6105v1.27994a.1172.1172,0,0,0,.12214.13057A.65225.65225,0,0,0,64,34.22194v.261a.69559.69559,0,0,1-.20216.0337c-.26094,0-.37894-.08421-.4-.32006a.99535.99535,0,0,1-.80841.35788.63507.63507,0,0,1-.67373-.63565.67678.67678,0,0,1,.66111-.69055l.61888-.07576c.1179-.01269.18952-.08426.18952-.25692,0-.26529-.181-.37464-.50532-.37464-.33257,0-.4926.1431-.51361.42521Zm1.36423.421a1.5933,1.5933,0,0,1-.61059.139c-.27357.03783-.47158.1389-.47158.35782a.36393.36393,0,0,0,.4.38738c.22327,0,.68222-.15154.68222-.53053Z"/>
    </g>
  </g>
</svg>
